<svg width="1080" height="1080" viewBox="0 0 1080 1080" fill="none" xmlns="http://www.w3.org/2000/svg">
<rect width="1080" height="1080" fill="white"/>
<path d="M132.285 694.662C129.193 694.337 126.833 692.953 125.205 690.512C123.577 688.07 122.926 685.385 123.252 682.455C124.066 677.41 125.612 672.771 127.891 668.539C130.169 664.307 131.797 661.133 132.773 659.018C133.913 656.902 135.052 654.542 136.191 651.938L145.469 630.453L245.811 329.916L353.721 538.412L458.457 329.916L583.701 691H452.598L392.051 504.477L298.301 699.789L199.668 524.008L165.488 630.697C160.117 642.579 156.292 652.67 154.014 660.971C151.735 669.271 149.863 675.701 148.398 680.258C145.143 690.512 139.772 695.313 132.285 694.662ZM794.395 589.682L816.123 590.658C847.699 590.658 873.74 580.242 894.248 559.408C915.081 538.412 925.986 511.231 926.963 477.865C928.753 426.433 904.014 391.684 852.744 373.617C833.538 366.781 808.555 363.363 777.793 363.363H757.285V691H632.773V345.541H726.279C776.735 345.541 807.171 346.273 817.588 347.738C828.005 349.203 838.828 351.075 850.059 353.354C861.452 355.632 873.659 360.596 886.68 368.246C899.863 375.896 911.012 385.01 920.127 395.59C938.519 417.074 947.389 442.302 946.738 471.273C945.762 508.22 934.938 538.982 914.268 563.559C893.271 588.298 864.3 603.598 827.354 609.457C816.611 610.922 808.148 611.654 801.963 611.654C787.314 611.654 779.99 607.667 779.99 599.691C779.99 596.762 781.292 594.402 783.896 592.611C786.501 590.658 790 589.682 794.395 589.682Z" fill="#CA6666"/>
</svg>
