<svg width="758" height="1050" viewBox="0 0 758 1050" fill="none" xmlns="http://www.w3.org/2000/svg">
<rect width="758" height="1050" fill="white"/>
<rect width="758" height="1050" fill="white"/>
<line x1="346" y1="430.5" x2="413" y2="430.5" stroke="#CA6666"/>
<path d="M334.516 16.9375L340.094 30.8594L345.672 16.9375H348.59V34H346.34V27.3555L346.551 20.1836L340.949 34H339.227L333.637 20.2188L333.859 27.3555V34H331.609V16.9375H334.516ZM365.688 26.0195C365.688 27.6914 365.406 29.1523 364.844 30.4023C364.281 31.6445 363.484 32.5938 362.453 33.25C361.422 33.9062 360.219 34.2344 358.844 34.2344C357.5 34.2344 356.309 33.9062 355.27 33.25C354.23 32.5859 353.422 31.6445 352.844 30.4258C352.273 29.1992 351.98 27.7812 351.965 26.1719V24.9414C351.965 23.3008 352.25 21.8516 352.82 20.5938C353.391 19.3359 354.195 18.375 355.234 17.7109C356.281 17.0391 357.477 16.7031 358.82 16.7031C360.188 16.7031 361.391 17.0352 362.43 17.6992C363.477 18.3555 364.281 19.3125 364.844 20.5703C365.406 21.8203 365.688 23.2773 365.688 24.9414V26.0195ZM363.449 24.918C363.449 22.8945 363.043 21.3438 362.23 20.2656C361.418 19.1797 360.281 18.6367 358.82 18.6367C357.398 18.6367 356.277 19.1797 355.457 20.2656C354.645 21.3438 354.227 22.8438 354.203 24.7656V26.0195C354.203 27.9805 354.613 29.5234 355.434 30.6484C356.262 31.7656 357.398 32.3242 358.844 32.3242C360.297 32.3242 361.422 31.7969 362.219 30.7422C363.016 29.6797 363.426 28.1602 363.449 26.1836V24.918ZM369.062 34V16.9375H373.879C375.363 16.9375 376.676 17.2656 377.816 17.9219C378.957 18.5781 379.836 19.5117 380.453 20.7227C381.078 21.9336 381.395 23.3242 381.402 24.8945V25.9844C381.402 27.5938 381.09 29.0039 380.465 30.2148C379.848 31.4258 378.961 32.3555 377.805 33.0039C376.656 33.6523 375.316 33.9844 373.785 34H369.062ZM371.312 18.7891V32.1602H373.68C375.414 32.1602 376.762 31.6211 377.723 30.543C378.691 29.4648 379.176 27.9297 379.176 25.9375V24.9414C379.176 23.0039 378.719 21.5 377.805 20.4297C376.898 19.3516 375.609 18.8047 373.938 18.7891H371.312ZM394.457 26.1133H387.062V32.1602H395.652V34H384.812V16.9375H395.535V18.7891H387.062V24.2734H394.457V26.1133ZM404.711 27.0977H400.703V34H398.441V16.9375H404.09C406.012 16.9375 407.488 17.375 408.52 18.25C409.559 19.125 410.078 20.3984 410.078 22.0703C410.078 23.1328 409.789 24.0586 409.211 24.8477C408.641 25.6367 407.844 26.2266 406.82 26.6172L410.828 33.8594V34H408.414L404.711 27.0977ZM400.703 25.2578H404.16C405.277 25.2578 406.164 24.9688 406.82 24.3906C407.484 23.8125 407.816 23.0391 407.816 22.0703C407.816 21.0156 407.5 20.207 406.867 19.6445C406.242 19.082 405.336 18.7969 404.148 18.7891H400.703V25.2578ZM426.355 34H424.094L415.504 20.8516V34H413.242V16.9375H415.504L424.117 30.1445V16.9375H426.355V34Z" fill="#CA6666"/>
<path d="M319.891 55.3203V62H317.641V44.9375H323.934C325.801 44.9375 327.262 45.4141 328.316 46.3672C329.379 47.3203 329.91 48.582 329.91 50.1523C329.91 51.8086 329.391 53.0859 328.352 53.9844C327.32 54.875 325.84 55.3203 323.91 55.3203H319.891ZM319.891 53.4805H323.934C325.137 53.4805 326.059 53.1992 326.699 52.6367C327.34 52.0664 327.66 51.2461 327.66 50.1758C327.66 49.1602 327.34 48.3477 326.699 47.7383C326.059 47.1289 325.18 46.8125 324.062 46.7891H319.891V53.4805ZM345.906 54.0195C345.906 55.6914 345.625 57.1523 345.062 58.4023C344.5 59.6445 343.703 60.5938 342.672 61.25C341.641 61.9062 340.438 62.2344 339.062 62.2344C337.719 62.2344 336.527 61.9062 335.488 61.25C334.449 60.5859 333.641 59.6445 333.062 58.4258C332.492 57.1992 332.199 55.7812 332.184 54.1719V52.9414C332.184 51.3008 332.469 49.8516 333.039 48.5938C333.609 47.3359 334.414 46.375 335.453 45.7109C336.5 45.0391 337.695 44.7031 339.039 44.7031C340.406 44.7031 341.609 45.0352 342.648 45.6992C343.695 46.3555 344.5 47.3125 345.062 48.5703C345.625 49.8203 345.906 51.2773 345.906 52.9414V54.0195ZM343.668 52.918C343.668 50.8945 343.262 49.3438 342.449 48.2656C341.637 47.1797 340.5 46.6367 339.039 46.6367C337.617 46.6367 336.496 47.1797 335.676 48.2656C334.863 49.3438 334.445 50.8438 334.422 52.7656V54.0195C334.422 55.9805 334.832 57.5234 335.652 58.6484C336.48 59.7656 337.617 60.3242 339.062 60.3242C340.516 60.3242 341.641 59.7969 342.438 58.7422C343.234 57.6797 343.645 56.1602 343.668 54.1836V52.918ZM352.188 44.9375L357.766 58.8594L363.344 44.9375H366.262V62H364.012V55.3555L364.223 48.1836L358.621 62H356.898L351.309 48.2188L351.531 55.3555V62H349.281V44.9375H352.188ZM383.359 54.0195C383.359 55.6914 383.078 57.1523 382.516 58.4023C381.953 59.6445 381.156 60.5938 380.125 61.25C379.094 61.9062 377.891 62.2344 376.516 62.2344C375.172 62.2344 373.98 61.9062 372.941 61.25C371.902 60.5859 371.094 59.6445 370.516 58.4258C369.945 57.1992 369.652 55.7812 369.637 54.1719V52.9414C369.637 51.3008 369.922 49.8516 370.492 48.5938C371.062 47.3359 371.867 46.375 372.906 45.7109C373.953 45.0391 375.148 44.7031 376.492 44.7031C377.859 44.7031 379.062 45.0352 380.102 45.6992C381.148 46.3555 381.953 47.3125 382.516 48.5703C383.078 49.8203 383.359 51.2773 383.359 52.9414V54.0195ZM381.121 52.918C381.121 50.8945 380.715 49.3438 379.902 48.2656C379.09 47.1797 377.953 46.6367 376.492 46.6367C375.07 46.6367 373.949 47.1797 373.129 48.2656C372.316 49.3438 371.898 50.8438 371.875 52.7656V54.0195C371.875 55.9805 372.285 57.5234 373.105 58.6484C373.934 59.7656 375.07 60.3242 376.516 60.3242C377.969 60.3242 379.094 59.7969 379.891 58.7422C380.688 57.6797 381.098 56.1602 381.121 54.1836V52.918ZM386.734 62V44.9375H391.551C393.035 44.9375 394.348 45.2656 395.488 45.9219C396.629 46.5781 397.508 47.5117 398.125 48.7227C398.75 49.9336 399.066 51.3242 399.074 52.8945V53.9844C399.074 55.5938 398.762 57.0039 398.137 58.2148C397.52 59.4258 396.633 60.3555 395.477 61.0039C394.328 61.6523 392.988 61.9844 391.457 62H386.734ZM388.984 46.7891V60.1602H391.352C393.086 60.1602 394.434 59.6211 395.395 58.543C396.363 57.4648 396.848 55.9297 396.848 53.9375V52.9414C396.848 51.0039 396.391 49.5 395.477 48.4297C394.57 47.3516 393.281 46.8047 391.609 46.7891H388.984ZM415.609 54.0195C415.609 55.6914 415.328 57.1523 414.766 58.4023C414.203 59.6445 413.406 60.5938 412.375 61.25C411.344 61.9062 410.141 62.2344 408.766 62.2344C407.422 62.2344 406.23 61.9062 405.191 61.25C404.152 60.5859 403.344 59.6445 402.766 58.4258C402.195 57.1992 401.902 55.7812 401.887 54.1719V52.9414C401.887 51.3008 402.172 49.8516 402.742 48.5938C403.312 47.3359 404.117 46.375 405.156 45.7109C406.203 45.0391 407.398 44.7031 408.742 44.7031C410.109 44.7031 411.312 45.0352 412.352 45.6992C413.398 46.3555 414.203 47.3125 414.766 48.5703C415.328 49.8203 415.609 51.2773 415.609 52.9414V54.0195ZM413.371 52.918C413.371 50.8945 412.965 49.3438 412.152 48.2656C411.34 47.1797 410.203 46.6367 408.742 46.6367C407.32 46.6367 406.199 47.1797 405.379 48.2656C404.566 49.3438 404.148 50.8438 404.125 52.7656V54.0195C404.125 55.9805 404.535 57.5234 405.355 58.6484C406.184 59.7656 407.32 60.3242 408.766 60.3242C410.219 60.3242 411.344 59.7969 412.141 58.7422C412.938 57.6797 413.348 56.1602 413.371 54.1836V52.918ZM425.242 55.0977H421.234V62H418.973V44.9375H424.621C426.543 44.9375 428.02 45.375 429.051 46.25C430.09 47.125 430.609 48.3984 430.609 50.0703C430.609 51.1328 430.32 52.0586 429.742 52.8477C429.172 53.6367 428.375 54.2266 427.352 54.6172L431.359 61.8594V62H428.945L425.242 55.0977ZM421.234 53.2578H424.691C425.809 53.2578 426.695 52.9688 427.352 52.3906C428.016 51.8125 428.348 51.0391 428.348 50.0703C428.348 49.0156 428.031 48.207 427.398 47.6445C426.773 47.082 425.867 46.7969 424.68 46.7891H421.234V53.2578ZM446.898 54.0195C446.898 55.6914 446.617 57.1523 446.055 58.4023C445.492 59.6445 444.695 60.5938 443.664 61.25C442.633 61.9062 441.43 62.2344 440.055 62.2344C438.711 62.2344 437.52 61.9062 436.48 61.25C435.441 60.5859 434.633 59.6445 434.055 58.4258C433.484 57.1992 433.191 55.7812 433.176 54.1719V52.9414C433.176 51.3008 433.461 49.8516 434.031 48.5938C434.602 47.3359 435.406 46.375 436.445 45.7109C437.492 45.0391 438.688 44.7031 440.031 44.7031C441.398 44.7031 442.602 45.0352 443.641 45.6992C444.688 46.3555 445.492 47.3125 446.055 48.5703C446.617 49.8203 446.898 51.2773 446.898 52.9414V54.0195ZM444.66 52.918C444.66 50.8945 444.254 49.3438 443.441 48.2656C442.629 47.1797 441.492 46.6367 440.031 46.6367C438.609 46.6367 437.488 47.1797 436.668 48.2656C435.855 49.3438 435.438 50.8438 435.414 52.7656V54.0195C435.414 55.9805 435.824 57.5234 436.645 58.6484C437.473 59.7656 438.609 60.3242 440.055 60.3242C441.508 60.3242 442.633 59.7969 443.43 58.7422C444.227 57.6797 444.637 56.1602 444.66 54.1836V52.918Z" fill="#CA6666"/>
<line x1="346" y1="79.5" x2="413" y2="79.5" stroke="#CA6666"/>
<path d="M320.371 175.621L320.699 177.871L321.18 175.844L324.555 163.938H326.453L329.746 175.844L330.215 177.906L330.578 175.609L333.227 163.938H335.488L331.352 181H329.301L325.785 168.566L325.516 167.266L325.246 168.566L321.602 181H319.551L315.426 163.938H317.676L320.371 175.621ZM351.121 173.02C351.121 174.691 350.84 176.152 350.277 177.402C349.715 178.645 348.918 179.594 347.887 180.25C346.855 180.906 345.652 181.234 344.277 181.234C342.934 181.234 341.742 180.906 340.703 180.25C339.664 179.586 338.855 178.645 338.277 177.426C337.707 176.199 337.414 174.781 337.398 173.172V171.941C337.398 170.301 337.684 168.852 338.254 167.594C338.824 166.336 339.629 165.375 340.668 164.711C341.715 164.039 342.91 163.703 344.254 163.703C345.621 163.703 346.824 164.035 347.863 164.699C348.91 165.355 349.715 166.312 350.277 167.57C350.84 168.82 351.121 170.277 351.121 171.941V173.02ZM348.883 171.918C348.883 169.895 348.477 168.344 347.664 167.266C346.852 166.18 345.715 165.637 344.254 165.637C342.832 165.637 341.711 166.18 340.891 167.266C340.078 168.344 339.66 169.844 339.637 171.766V173.02C339.637 174.98 340.047 176.523 340.867 177.648C341.695 178.766 342.832 179.324 344.277 179.324C345.73 179.324 346.855 178.797 347.652 177.742C348.449 176.68 348.859 175.16 348.883 173.184V171.918ZM360.754 174.098H356.746V181H354.484V163.938H360.133C362.055 163.938 363.531 164.375 364.562 165.25C365.602 166.125 366.121 167.398 366.121 169.07C366.121 170.133 365.832 171.059 365.254 171.848C364.684 172.637 363.887 173.227 362.863 173.617L366.871 180.859V181H364.457L360.754 174.098ZM356.746 172.258H360.203C361.32 172.258 362.207 171.969 362.863 171.391C363.527 170.812 363.859 170.039 363.859 169.07C363.859 168.016 363.543 167.207 362.91 166.645C362.285 166.082 361.379 165.797 360.191 165.789H356.746V172.258ZM373.621 173.066L371.535 175.234V181H369.285V163.938H371.535V172.375L379.117 163.938H381.836L375.121 171.473L382.363 181H379.668L373.621 173.066ZM401.605 165.789H396.121V181H393.883V165.789H388.41V163.938H401.605V165.789ZM406.551 181H404.301V163.938H406.551V181ZM413.582 163.938L419.16 177.859L424.738 163.938H427.656V181H425.406V174.355L425.617 167.184L420.016 181H418.293L412.703 167.219L412.926 174.355V181H410.676V163.938H413.582ZM441.273 173.113H433.879V179.16H442.469V181H431.629V163.938H442.352V165.789H433.879V171.273H441.273V173.113Z" fill="#686868"/>
<rect x="229.5" y="104.5" width="299" height="299" stroke="#CA6666"/>
<rect x="243" y="188" width="272" height="57" fill="#F9F9F9"/>
<line x1="243" y1="244.5" x2="515" y2="244.5" stroke="#CA6666"/>
<path d="M337.539 213.395H334.797V221H333.678V213.395H330.941V212.469H337.539V213.395ZM340.012 221H338.887V212.469H340.012V221ZM343.527 212.469L346.316 219.43L349.105 212.469H350.564V221H349.439V217.678L349.545 214.092L346.744 221H345.883L343.088 214.109L343.199 217.678V221H342.074V212.469H343.527ZM357.373 217.057H353.676V220.08H357.971V221H352.551V212.469H357.912V213.395H353.676V216.137H357.373V217.057ZM363.555 221H362.43V212.469H363.555V221ZM372.174 221H371.043L366.748 214.426V221H365.617V212.469H366.748L371.055 219.072V212.469H372.174V221ZM378.602 212.469L381.391 219.43L384.18 212.469H385.639V221H384.514V217.678L384.619 214.092L381.818 221H380.957L378.162 214.109L378.273 217.678V221H377.148V212.469H378.602ZM388.832 221H387.707V212.469H388.832V221ZM397.451 221H396.32L392.025 214.426V221H390.895V212.469H392.025L396.332 219.072V212.469H397.451V221ZM405.455 212.469V218.27C405.451 219.074 405.197 219.732 404.693 220.244C404.193 220.756 403.514 221.043 402.654 221.105L402.355 221.117C401.422 221.117 400.678 220.865 400.123 220.361C399.568 219.857 399.287 219.164 399.279 218.281V212.469H400.393V218.246C400.393 218.863 400.562 219.344 400.902 219.688C401.242 220.027 401.727 220.197 402.355 220.197C402.992 220.197 403.479 220.027 403.814 219.688C404.154 219.348 404.324 218.869 404.324 218.252V212.469H405.455ZM413.125 213.395H410.383V221H409.264V213.395H406.527V212.469H413.125V213.395ZM419.213 217.057H415.516V220.08H419.811V221H414.391V212.469H419.752V213.395H415.516V216.137H419.213V217.057ZM423.725 217.197C422.76 216.92 422.057 216.58 421.615 216.178C421.178 215.771 420.959 215.271 420.959 214.678C420.959 214.006 421.227 213.451 421.762 213.014C422.301 212.572 423 212.352 423.859 212.352C424.445 212.352 424.967 212.465 425.424 212.691C425.885 212.918 426.24 213.23 426.49 213.629C426.744 214.027 426.871 214.463 426.871 214.936H425.74C425.74 214.42 425.576 214.016 425.248 213.723C424.92 213.426 424.457 213.277 423.859 213.277C423.305 213.277 422.871 213.4 422.559 213.646C422.25 213.889 422.096 214.227 422.096 214.66C422.096 215.008 422.242 215.303 422.535 215.545C422.832 215.783 423.334 216.002 424.041 216.201C424.752 216.4 425.307 216.621 425.705 216.863C426.107 217.102 426.404 217.381 426.596 217.701C426.791 218.021 426.889 218.398 426.889 218.832C426.889 219.523 426.619 220.078 426.08 220.496C425.541 220.91 424.82 221.117 423.918 221.117C423.332 221.117 422.785 221.006 422.277 220.783C421.77 220.557 421.377 220.248 421.1 219.857C420.826 219.467 420.689 219.023 420.689 218.527H421.82C421.82 219.043 422.01 219.451 422.389 219.752C422.771 220.049 423.281 220.197 423.918 220.197C424.512 220.197 424.967 220.076 425.283 219.834C425.6 219.592 425.758 219.262 425.758 218.844C425.758 218.426 425.611 218.104 425.318 217.877C425.025 217.646 424.494 217.42 423.725 217.197Z" fill="#A5A5A5"/>
<path d="M313.469 285V267.938H319.047C320.898 267.938 322.289 268.32 323.219 269.086C324.156 269.852 324.625 270.984 324.625 272.484C324.625 273.281 324.398 273.988 323.945 274.605C323.492 275.215 322.875 275.688 322.094 276.023C323.016 276.281 323.742 276.773 324.273 277.5C324.812 278.219 325.082 279.078 325.082 280.078C325.082 281.609 324.586 282.812 323.594 283.688C322.602 284.562 321.199 285 319.387 285H313.469ZM315.719 277.02V283.16H319.434C320.48 283.16 321.305 282.891 321.906 282.352C322.516 281.805 322.82 281.055 322.82 280.102C322.82 278.047 321.703 277.02 319.469 277.02H315.719ZM315.719 275.215H319.117C320.102 275.215 320.887 274.969 321.473 274.477C322.066 273.984 322.363 273.316 322.363 272.473C322.363 271.535 322.09 270.855 321.543 270.434C320.996 270.004 320.164 269.789 319.047 269.789H315.719V275.215ZM334.68 278.098H330.672V285H328.41V267.938H334.059C335.98 267.938 337.457 268.375 338.488 269.25C339.527 270.125 340.047 271.398 340.047 273.07C340.047 274.133 339.758 275.059 339.18 275.848C338.609 276.637 337.812 277.227 336.789 277.617L340.797 284.859V285H338.383L334.68 278.098ZM330.672 276.258H334.129C335.246 276.258 336.133 275.969 336.789 275.391C337.453 274.812 337.785 274.039 337.785 273.07C337.785 272.016 337.469 271.207 336.836 270.645C336.211 270.082 335.305 269.797 334.117 269.789H330.672V276.258ZM352.855 277.113H345.461V283.16H354.051V285H343.211V267.938H353.934V269.789H345.461V275.273H352.855V277.113ZM366.273 280.547H359.125L357.52 285H355.199L361.715 267.938H363.684L370.211 285H367.902L366.273 280.547ZM359.805 278.695H365.605L362.699 270.715L359.805 278.695ZM376.844 277.066L374.758 279.234V285H372.508V267.938H374.758V276.375L382.34 267.938H385.059L378.344 275.473L385.586 285H382.891L376.844 277.066ZM404.828 269.789H399.344V285H397.105V269.789H391.633V267.938H404.828V269.789ZM409.773 285H407.523V267.938H409.773V285ZM416.805 267.938L422.383 281.859L427.961 267.938H430.879V285H428.629V278.355L428.84 271.184L423.238 285H421.516L415.926 271.219L416.148 278.355V285H413.898V267.938H416.805ZM444.496 277.113H437.102V283.16H445.691V285H434.852V267.938H445.574V269.789H437.102V275.273H444.496V277.113Z" fill="#686868"/>
<rect x="243" y="292" width="272" height="57" fill="#F9F9F9"/>
<line x1="243" y1="348.5" x2="515" y2="348.5" stroke="#CA6666"/>
<path d="M337.539 317.395H334.797V325H333.678V317.395H330.941V316.469H337.539V317.395ZM340.012 325H338.887V316.469H340.012V325ZM343.527 316.469L346.316 323.43L349.105 316.469H350.564V325H349.439V321.678L349.545 318.092L346.744 325H345.883L343.088 318.109L343.199 321.678V325H342.074V316.469H343.527ZM357.373 321.057H353.676V324.08H357.971V325H352.551V316.469H357.912V317.395H353.676V320.137H357.373V321.057ZM363.555 325H362.43V316.469H363.555V325ZM372.174 325H371.043L366.748 318.426V325H365.617V316.469H366.748L371.055 323.072V316.469H372.174V325ZM378.602 316.469L381.391 323.43L384.18 316.469H385.639V325H384.514V321.678L384.619 318.092L381.818 325H380.957L378.162 318.109L378.273 321.678V325H377.148V316.469H378.602ZM388.832 325H387.707V316.469H388.832V325ZM397.451 325H396.32L392.025 318.426V325H390.895V316.469H392.025L396.332 323.072V316.469H397.451V325ZM405.455 316.469V322.27C405.451 323.074 405.197 323.732 404.693 324.244C404.193 324.756 403.514 325.043 402.654 325.105L402.355 325.117C401.422 325.117 400.678 324.865 400.123 324.361C399.568 323.857 399.287 323.164 399.279 322.281V316.469H400.393V322.246C400.393 322.863 400.562 323.344 400.902 323.688C401.242 324.027 401.727 324.197 402.355 324.197C402.992 324.197 403.479 324.027 403.814 323.688C404.154 323.348 404.324 322.869 404.324 322.252V316.469H405.455ZM413.125 317.395H410.383V325H409.264V317.395H406.527V316.469H413.125V317.395ZM419.213 321.057H415.516V324.08H419.811V325H414.391V316.469H419.752V317.395H415.516V320.137H419.213V321.057ZM423.725 321.197C422.76 320.92 422.057 320.58 421.615 320.178C421.178 319.771 420.959 319.271 420.959 318.678C420.959 318.006 421.227 317.451 421.762 317.014C422.301 316.572 423 316.352 423.859 316.352C424.445 316.352 424.967 316.465 425.424 316.691C425.885 316.918 426.24 317.23 426.49 317.629C426.744 318.027 426.871 318.463 426.871 318.936H425.74C425.74 318.42 425.576 318.016 425.248 317.723C424.92 317.426 424.457 317.277 423.859 317.277C423.305 317.277 422.871 317.4 422.559 317.646C422.25 317.889 422.096 318.227 422.096 318.66C422.096 319.008 422.242 319.303 422.535 319.545C422.832 319.783 423.334 320.002 424.041 320.201C424.752 320.4 425.307 320.621 425.705 320.863C426.107 321.102 426.404 321.381 426.596 321.701C426.791 322.021 426.889 322.398 426.889 322.832C426.889 323.523 426.619 324.078 426.08 324.496C425.541 324.91 424.82 325.117 423.918 325.117C423.332 325.117 422.785 325.006 422.277 324.783C421.77 324.557 421.377 324.248 421.1 323.857C420.826 323.467 420.689 323.023 420.689 322.527H421.82C421.82 323.043 422.01 323.451 422.389 323.752C422.771 324.049 423.281 324.197 423.918 324.197C424.512 324.197 424.967 324.076 425.283 323.834C425.6 323.592 425.758 323.262 425.758 322.844C425.758 322.426 425.611 322.104 425.318 321.877C425.025 321.646 424.494 321.42 423.725 321.197Z" fill="#A5A5A5"/>
<rect x="229" y="458" width="126" height="45" fill="#EDA3A3"/>
<path d="M270.458 481.296C269.011 480.88 267.956 480.37 267.294 479.767C266.638 479.157 266.31 478.407 266.31 477.517C266.31 476.509 266.711 475.677 267.514 475.021C268.322 474.358 269.371 474.027 270.66 474.027C271.539 474.027 272.321 474.197 273.007 474.537C273.698 474.877 274.231 475.346 274.606 475.943C274.987 476.541 275.178 477.194 275.178 477.903H273.481C273.481 477.13 273.235 476.523 272.743 476.084C272.251 475.639 271.557 475.416 270.66 475.416C269.828 475.416 269.178 475.601 268.709 475.97C268.246 476.333 268.015 476.84 268.015 477.49C268.015 478.012 268.234 478.454 268.674 478.817C269.119 479.175 269.872 479.503 270.933 479.802C271.999 480.101 272.831 480.432 273.429 480.795C274.032 481.152 274.478 481.571 274.765 482.052C275.058 482.532 275.204 483.098 275.204 483.748C275.204 484.785 274.8 485.617 273.991 486.244C273.183 486.865 272.102 487.176 270.748 487.176C269.869 487.176 269.049 487.009 268.287 486.675C267.525 486.335 266.937 485.872 266.521 485.286C266.11 484.7 265.905 484.035 265.905 483.291H267.602C267.602 484.064 267.886 484.677 268.454 485.128C269.028 485.573 269.793 485.796 270.748 485.796C271.639 485.796 272.321 485.614 272.796 485.251C273.271 484.888 273.508 484.393 273.508 483.766C273.508 483.139 273.288 482.655 272.849 482.315C272.409 481.97 271.612 481.63 270.458 481.296ZM286.217 475.592H282.104V487H280.425V475.592H276.32V474.203H286.217V475.592ZM294.479 483.66H289.117L287.913 487H286.173L291.06 474.203H292.536L297.432 487H295.7L294.479 483.66ZM289.627 482.271H293.978L291.798 476.286L289.627 482.271ZM303.848 481.823H300.842V487H299.146V474.203H303.382C304.823 474.203 305.931 474.531 306.704 475.188C307.483 475.844 307.873 476.799 307.873 478.053C307.873 478.85 307.656 479.544 307.223 480.136C306.795 480.728 306.197 481.17 305.43 481.463L308.436 486.895V487H306.625L303.848 481.823ZM300.842 480.443H303.435C304.272 480.443 304.938 480.227 305.43 479.793C305.928 479.359 306.177 478.779 306.177 478.053C306.177 477.262 305.939 476.655 305.465 476.233C304.996 475.812 304.316 475.598 303.426 475.592H300.842V480.443ZM318.385 475.592H314.271V487H312.593V475.592H308.488V474.203H318.385V475.592Z" fill="white"/>
<rect x="403" y="458" width="126" height="45" fill="#CA6666"/>
<path d="M449.582 481.296C448.135 480.88 447.08 480.37 446.418 479.767C445.762 479.157 445.434 478.407 445.434 477.517C445.434 476.509 445.835 475.677 446.638 475.021C447.446 474.358 448.495 474.027 449.784 474.027C450.663 474.027 451.445 474.197 452.131 474.537C452.822 474.877 453.355 475.346 453.73 475.943C454.111 476.541 454.302 477.194 454.302 477.903H452.605C452.605 477.13 452.359 476.523 451.867 476.084C451.375 475.639 450.681 475.416 449.784 475.416C448.952 475.416 448.302 475.601 447.833 475.97C447.37 476.333 447.139 476.84 447.139 477.49C447.139 478.012 447.358 478.454 447.798 478.817C448.243 479.175 448.996 479.503 450.057 479.802C451.123 480.101 451.955 480.432 452.553 480.795C453.156 481.152 453.602 481.571 453.889 482.052C454.182 482.532 454.328 483.098 454.328 483.748C454.328 484.785 453.924 485.617 453.115 486.244C452.307 486.865 451.226 487.176 449.872 487.176C448.993 487.176 448.173 487.009 447.411 486.675C446.649 486.335 446.061 485.872 445.645 485.286C445.234 484.7 445.029 484.035 445.029 483.291H446.726C446.726 484.064 447.01 484.677 447.578 485.128C448.152 485.573 448.917 485.796 449.872 485.796C450.763 485.796 451.445 485.614 451.92 485.251C452.395 484.888 452.632 484.393 452.632 483.766C452.632 483.139 452.412 482.655 451.973 482.315C451.533 481.97 450.736 481.63 449.582 481.296ZM463.565 483.66H458.204L457 487H455.26L460.146 474.203H461.623L466.519 487H464.787L463.565 483.66ZM458.714 482.271H463.064L460.885 476.286L458.714 482.271ZM471.704 484.759L475.36 474.203H477.206L472.46 487H470.966L466.229 474.203H468.065L471.704 484.759ZM486.162 481.085H480.616V485.62H487.059V487H478.929V474.203H486.971V475.592H480.616V479.705H486.162V481.085Z" fill="white"/>
<rect x="229" y="578" width="300" height="25" fill="#F2F2F2"/>
<line x1="229" y1="577.5" x2="529" y2="577.5" stroke="#CA6666"/>
<path d="M281.887 588.395H279.145V596H278.025V588.395H275.289V587.469H281.887V588.395ZM284.359 596H283.234V587.469H284.359V596ZM287.875 587.469L290.664 594.43L293.453 587.469H294.912V596H293.787V592.678L293.893 589.092L291.092 596H290.23L287.436 589.109L287.547 592.678V596H286.422V587.469H287.875ZM301.721 592.057H298.023V595.08H302.318V596H296.898V587.469H302.26V588.395H298.023V591.137H301.721V592.057ZM306.232 592.197C305.268 591.92 304.564 591.58 304.123 591.178C303.686 590.771 303.467 590.271 303.467 589.678C303.467 589.006 303.734 588.451 304.27 588.014C304.809 587.572 305.508 587.352 306.367 587.352C306.953 587.352 307.475 587.465 307.932 587.691C308.393 587.918 308.748 588.23 308.998 588.629C309.252 589.027 309.379 589.463 309.379 589.936H308.248C308.248 589.42 308.084 589.016 307.756 588.723C307.428 588.426 306.965 588.277 306.367 588.277C305.812 588.277 305.379 588.4 305.066 588.646C304.758 588.889 304.604 589.227 304.604 589.66C304.604 590.008 304.75 590.303 305.043 590.545C305.34 590.783 305.842 591.002 306.549 591.201C307.26 591.4 307.814 591.621 308.213 591.863C308.615 592.102 308.912 592.381 309.104 592.701C309.299 593.021 309.396 593.398 309.396 593.832C309.396 594.523 309.127 595.078 308.588 595.496C308.049 595.91 307.328 596.117 306.426 596.117C305.84 596.117 305.293 596.006 304.785 595.783C304.277 595.557 303.885 595.248 303.607 594.857C303.334 594.467 303.197 594.023 303.197 593.527H304.328C304.328 594.043 304.518 594.451 304.896 594.752C305.279 595.049 305.789 595.197 306.426 595.197C307.02 595.197 307.475 595.076 307.791 594.834C308.107 594.592 308.266 594.262 308.266 593.844C308.266 593.426 308.119 593.104 307.826 592.877C307.533 592.646 307.002 592.42 306.232 592.197ZM311.969 592.66V596H310.844V587.469H313.99C314.924 587.469 315.654 587.707 316.182 588.184C316.713 588.66 316.979 589.291 316.979 590.076C316.979 590.904 316.719 591.543 316.199 591.992C315.684 592.438 314.943 592.66 313.979 592.66H311.969ZM311.969 591.74H313.99C314.592 591.74 315.053 591.6 315.373 591.318C315.693 591.033 315.854 590.623 315.854 590.088C315.854 589.58 315.693 589.174 315.373 588.869C315.053 588.564 314.613 588.406 314.055 588.395H311.969V591.74ZM322.316 593.773H318.742L317.939 596H316.779L320.037 587.469H321.021L324.285 596H323.131L322.316 593.773ZM319.082 592.848H321.982L320.529 588.857L319.082 592.848ZM331.99 596H330.859L326.564 589.426V596H325.434V587.469H326.564L330.871 594.072V587.469H331.99V596Z" fill="#686868"/>
<path d="M397.129 592.549H395.125V596H393.994V587.469H396.818C397.779 587.469 398.518 587.688 399.033 588.125C399.553 588.562 399.812 589.199 399.812 590.035C399.812 590.566 399.668 591.029 399.379 591.424C399.094 591.818 398.695 592.113 398.184 592.309L400.188 595.93V596H398.98L397.129 592.549ZM395.125 591.629H396.854C397.412 591.629 397.855 591.484 398.184 591.195C398.516 590.906 398.682 590.52 398.682 590.035C398.682 589.508 398.523 589.104 398.207 588.822C397.895 588.541 397.441 588.398 396.848 588.395H395.125V591.629ZM407.957 592.01C407.957 592.846 407.816 593.576 407.535 594.201C407.254 594.822 406.855 595.297 406.34 595.625C405.824 595.953 405.223 596.117 404.535 596.117C403.863 596.117 403.268 595.953 402.748 595.625C402.229 595.293 401.824 594.822 401.535 594.213C401.25 593.6 401.104 592.891 401.096 592.086V591.471C401.096 590.65 401.238 589.926 401.523 589.297C401.809 588.668 402.211 588.188 402.73 587.855C403.254 587.52 403.852 587.352 404.523 587.352C405.207 587.352 405.809 587.518 406.328 587.85C406.852 588.178 407.254 588.656 407.535 589.285C407.816 589.91 407.957 590.639 407.957 591.471V592.01ZM406.838 591.459C406.838 590.447 406.635 589.672 406.229 589.133C405.822 588.59 405.254 588.318 404.523 588.318C403.812 588.318 403.252 588.59 402.842 589.133C402.436 589.672 402.227 590.422 402.215 591.383V592.01C402.215 592.99 402.42 593.762 402.83 594.324C403.244 594.883 403.812 595.162 404.535 595.162C405.262 595.162 405.824 594.898 406.223 594.371C406.621 593.84 406.826 593.08 406.838 592.092V591.459ZM415.65 587.469V593.27C415.646 594.074 415.393 594.732 414.889 595.244C414.389 595.756 413.709 596.043 412.85 596.105L412.551 596.117C411.617 596.117 410.873 595.865 410.318 595.361C409.764 594.857 409.482 594.164 409.475 593.281V587.469H410.588V593.246C410.588 593.863 410.758 594.344 411.098 594.688C411.438 595.027 411.922 595.197 412.551 595.197C413.188 595.197 413.674 595.027 414.01 594.688C414.35 594.348 414.52 593.869 414.52 593.252V587.469H415.65ZM423.982 596H422.852L418.557 589.426V596H417.426V587.469H418.557L422.863 594.072V587.469H423.982V596ZM425.98 596V587.469H428.389C429.131 587.469 429.787 587.633 430.357 587.961C430.928 588.289 431.367 588.756 431.676 589.361C431.988 589.967 432.146 590.662 432.15 591.447V591.992C432.15 592.797 431.994 593.502 431.682 594.107C431.373 594.713 430.93 595.178 430.352 595.502C429.777 595.826 429.107 595.992 428.342 596H425.98ZM427.105 588.395V595.08H428.289C429.156 595.08 429.83 594.811 430.311 594.271C430.795 593.732 431.037 592.965 431.037 591.969V591.471C431.037 590.502 430.809 589.75 430.352 589.215C429.898 588.676 429.254 588.402 428.418 588.395H427.105ZM436.369 592.197C435.404 591.92 434.701 591.58 434.26 591.178C433.822 590.771 433.604 590.271 433.604 589.678C433.604 589.006 433.871 588.451 434.406 588.014C434.945 587.572 435.645 587.352 436.504 587.352C437.09 587.352 437.611 587.465 438.068 587.691C438.529 587.918 438.885 588.23 439.135 588.629C439.389 589.027 439.516 589.463 439.516 589.936H438.385C438.385 589.42 438.221 589.016 437.893 588.723C437.564 588.426 437.102 588.277 436.504 588.277C435.949 588.277 435.516 588.4 435.203 588.646C434.895 588.889 434.74 589.227 434.74 589.66C434.74 590.008 434.887 590.303 435.18 590.545C435.477 590.783 435.979 591.002 436.686 591.201C437.396 591.4 437.951 591.621 438.35 591.863C438.752 592.102 439.049 592.381 439.24 592.701C439.436 593.021 439.533 593.398 439.533 593.832C439.533 594.523 439.264 595.078 438.725 595.496C438.186 595.91 437.465 596.117 436.562 596.117C435.977 596.117 435.43 596.006 434.922 595.783C434.414 595.557 434.021 595.248 433.744 594.857C433.471 594.467 433.334 594.023 433.334 593.527H434.465C434.465 594.043 434.654 594.451 435.033 594.752C435.416 595.049 435.926 595.197 436.562 595.197C437.156 595.197 437.611 595.076 437.928 594.834C438.244 594.592 438.402 594.262 438.402 593.844C438.402 593.426 438.256 593.104 437.963 592.877C437.67 592.646 437.139 592.42 436.369 592.197Z" fill="#686868"/>
<path d="M470.406 596V587.469H473.195C474.121 587.469 474.816 587.66 475.281 588.043C475.75 588.426 475.984 588.992 475.984 589.742C475.984 590.141 475.871 590.494 475.645 590.803C475.418 591.107 475.109 591.344 474.719 591.512C475.18 591.641 475.543 591.887 475.809 592.25C476.078 592.609 476.213 593.039 476.213 593.539C476.213 594.305 475.965 594.906 475.469 595.344C474.973 595.781 474.271 596 473.365 596H470.406ZM471.531 592.01V595.08H473.389C473.912 595.08 474.324 594.945 474.625 594.676C474.93 594.402 475.082 594.027 475.082 593.551C475.082 592.523 474.523 592.01 473.406 592.01H471.531ZM471.531 591.107H473.23C473.723 591.107 474.115 590.984 474.408 590.738C474.705 590.492 474.854 590.158 474.854 589.736C474.854 589.268 474.717 588.928 474.443 588.717C474.17 588.502 473.754 588.395 473.195 588.395H471.531V591.107ZM481.012 592.549H479.008V596H477.877V587.469H480.701C481.662 587.469 482.4 587.688 482.916 588.125C483.436 588.562 483.695 589.199 483.695 590.035C483.695 590.566 483.551 591.029 483.262 591.424C482.977 591.818 482.578 592.113 482.066 592.309L484.07 595.93V596H482.863L481.012 592.549ZM479.008 591.629H480.736C481.295 591.629 481.738 591.484 482.066 591.195C482.398 590.906 482.564 590.52 482.564 590.035C482.564 589.508 482.406 589.104 482.09 588.822C481.777 588.541 481.324 588.398 480.73 588.395H479.008V591.629ZM490.1 592.057H486.402V595.08H490.697V596H485.277V587.469H490.639V588.395H486.402V591.137H490.1V592.057ZM496.809 593.773H493.234L492.432 596H491.271L494.529 587.469H495.514L498.777 596H497.623L496.809 593.773ZM493.574 592.848H496.475L495.021 588.857L493.574 592.848ZM502.094 592.033L501.051 593.117V596H499.926V587.469H501.051V591.688L504.842 587.469H506.201L502.844 591.236L506.465 596H505.117L502.094 592.033ZM509.963 592.197C508.998 591.92 508.295 591.58 507.854 591.178C507.416 590.771 507.197 590.271 507.197 589.678C507.197 589.006 507.465 588.451 508 588.014C508.539 587.572 509.238 587.352 510.098 587.352C510.684 587.352 511.205 587.465 511.662 587.691C512.123 587.918 512.479 588.23 512.729 588.629C512.982 589.027 513.109 589.463 513.109 589.936H511.979C511.979 589.42 511.814 589.016 511.486 588.723C511.158 588.426 510.695 588.277 510.098 588.277C509.543 588.277 509.109 588.4 508.797 588.646C508.488 588.889 508.334 589.227 508.334 589.66C508.334 590.008 508.48 590.303 508.773 590.545C509.07 590.783 509.572 591.002 510.279 591.201C510.99 591.4 511.545 591.621 511.943 591.863C512.346 592.102 512.643 592.381 512.834 592.701C513.029 593.021 513.127 593.398 513.127 593.832C513.127 594.523 512.857 595.078 512.318 595.496C511.779 595.91 511.059 596.117 510.156 596.117C509.57 596.117 509.023 596.006 508.516 595.783C508.008 595.557 507.615 595.248 507.338 594.857C507.064 594.467 506.928 594.023 506.928 593.527H508.059C508.059 594.043 508.248 594.451 508.627 594.752C509.01 595.049 509.52 595.197 510.156 595.197C510.75 595.197 511.205 595.076 511.521 594.834C511.838 594.592 511.996 594.262 511.996 593.844C511.996 593.426 511.85 593.104 511.557 592.877C511.264 592.646 510.732 592.42 509.963 592.197Z" fill="#686868"/>
<rect x="229" y="603" width="300" height="45" fill="#F9F9F9"/>
<line x1="229" y1="602.5" x2="529" y2="602.5" stroke="#CA6666"/>
<path d="M254.166 622.395H251.424V630H250.305V622.395H247.568V621.469H254.166V622.395ZM261.83 626.01C261.83 626.846 261.689 627.576 261.408 628.201C261.127 628.822 260.729 629.297 260.213 629.625C259.697 629.953 259.096 630.117 258.408 630.117C257.736 630.117 257.141 629.953 256.621 629.625C256.102 629.293 255.697 628.822 255.408 628.213C255.123 627.6 254.977 626.891 254.969 626.086V625.471C254.969 624.65 255.111 623.926 255.396 623.297C255.682 622.668 256.084 622.188 256.604 621.855C257.127 621.52 257.725 621.352 258.396 621.352C259.08 621.352 259.682 621.518 260.201 621.85C260.725 622.178 261.127 622.656 261.408 623.285C261.689 623.91 261.83 624.639 261.83 625.471V626.01ZM260.711 625.459C260.711 624.447 260.508 623.672 260.102 623.133C259.695 622.59 259.127 622.318 258.396 622.318C257.686 622.318 257.125 622.59 256.715 623.133C256.309 623.672 256.1 624.422 256.088 625.383V626.01C256.088 626.99 256.293 627.762 256.703 628.324C257.117 628.883 257.686 629.162 258.408 629.162C259.135 629.162 259.697 628.898 260.096 628.371C260.494 627.84 260.699 627.08 260.711 626.092V625.459ZM263.518 630V621.469H265.926C266.668 621.469 267.324 621.633 267.895 621.961C268.465 622.289 268.904 622.756 269.213 623.361C269.525 623.967 269.684 624.662 269.688 625.447V625.992C269.688 626.797 269.531 627.502 269.219 628.107C268.91 628.713 268.467 629.178 267.889 629.502C267.314 629.826 266.645 629.992 265.879 630H263.518ZM264.643 622.395V629.08H265.826C266.693 629.08 267.367 628.811 267.848 628.271C268.332 627.732 268.574 626.965 268.574 625.969V625.471C268.574 624.502 268.346 623.75 267.889 623.215C267.436 622.676 266.791 622.402 265.955 622.395H264.643ZM275.975 627.773H272.4L271.598 630H270.438L273.695 621.469H274.68L277.943 630H276.789L275.975 627.773ZM272.74 626.848H275.641L274.188 622.857L272.74 626.848ZM281.143 625.752L283.369 621.469H284.646L281.705 626.818V630H280.58V626.818L277.639 621.469H278.928L281.143 625.752ZM290.811 626.818H287.951V625.934H290.811V626.818ZM298.299 630H297.209V622.775L295.023 623.578V622.594L298.129 621.428H298.299V630ZM306.467 627.773H302.893L302.09 630H300.93L304.188 621.469H305.172L308.436 630H307.281L306.467 627.773ZM303.232 626.848H306.133L304.68 622.857L303.232 626.848ZM311.037 621.469L313.826 628.43L316.615 621.469H318.074V630H316.949V626.678L317.055 623.092L314.254 630H313.393L310.598 623.109L310.709 626.678V630H309.584V621.469H311.037ZM324.338 622.125V623.66H325.521V624.498H324.338V628.43C324.338 628.684 324.391 628.875 324.496 629.004C324.602 629.129 324.781 629.191 325.035 629.191C325.16 629.191 325.332 629.168 325.551 629.121V630C325.266 630.078 324.988 630.117 324.719 630.117C324.234 630.117 323.869 629.971 323.623 629.678C323.377 629.385 323.254 628.969 323.254 628.43V624.498H322.1V623.66H323.254V622.125H324.338ZM326.389 626.771C326.389 626.15 326.51 625.592 326.752 625.096C326.998 624.6 327.338 624.217 327.771 623.947C328.209 623.678 328.707 623.543 329.266 623.543C330.129 623.543 330.826 623.842 331.357 624.439C331.893 625.037 332.16 625.832 332.16 626.824V626.9C332.16 627.518 332.041 628.072 331.803 628.564C331.568 629.053 331.23 629.434 330.789 629.707C330.352 629.98 329.848 630.117 329.277 630.117C328.418 630.117 327.721 629.818 327.186 629.221C326.654 628.623 326.389 627.832 326.389 626.848V626.771ZM327.479 626.9C327.479 627.604 327.641 628.168 327.965 628.594C328.293 629.02 328.73 629.232 329.277 629.232C329.828 629.232 330.266 629.018 330.59 628.588C330.914 628.154 331.076 627.549 331.076 626.771C331.076 626.076 330.91 625.514 330.578 625.084C330.25 624.65 329.812 624.434 329.266 624.434C328.73 624.434 328.299 624.646 327.971 625.072C327.643 625.498 327.479 626.107 327.479 626.9ZM341.975 630H336.385V629.221L339.338 625.939C339.775 625.443 340.076 625.041 340.24 624.732C340.408 624.42 340.492 624.098 340.492 623.766C340.492 623.32 340.357 622.955 340.088 622.67C339.818 622.385 339.459 622.242 339.01 622.242C338.471 622.242 338.051 622.396 337.75 622.705C337.453 623.01 337.305 623.436 337.305 623.982H336.221C336.221 623.197 336.473 622.562 336.977 622.078C337.484 621.594 338.162 621.352 339.01 621.352C339.803 621.352 340.43 621.561 340.891 621.979C341.352 622.393 341.582 622.945 341.582 623.637C341.582 624.477 341.047 625.477 339.977 626.637L337.691 629.115H341.975V630ZM348.115 627.773H344.541L343.738 630H342.578L345.836 621.469H346.82L350.084 630H348.93L348.115 627.773ZM344.881 626.848H347.781L346.328 622.857L344.881 626.848ZM352.686 621.469L355.475 628.43L358.264 621.469H359.723V630H358.598V626.678L358.703 623.092L355.902 630H355.041L352.246 623.109L352.357 626.678V630H351.232V621.469H352.686Z" fill="#686868"/>
<path d="M414.338 625.723L414.771 621.469H419.143V622.471H415.691L415.434 624.797C415.852 624.551 416.326 624.428 416.857 624.428C417.635 624.428 418.252 624.686 418.709 625.201C419.166 625.713 419.395 626.406 419.395 627.281C419.395 628.16 419.156 628.854 418.68 629.361C418.207 629.865 417.545 630.117 416.693 630.117C415.939 630.117 415.324 629.908 414.848 629.49C414.371 629.072 414.1 628.494 414.033 627.756H415.059C415.125 628.244 415.299 628.613 415.58 628.863C415.861 629.109 416.232 629.232 416.693 629.232C417.197 629.232 417.592 629.061 417.877 628.717C418.166 628.373 418.311 627.898 418.311 627.293C418.311 626.723 418.154 626.266 417.842 625.922C417.533 625.574 417.121 625.4 416.605 625.4C416.133 625.4 415.762 625.504 415.492 625.711L415.205 625.945L414.338 625.723Z" fill="#686868"/>
<path d="M490.416 625.207H491.23C491.742 625.199 492.145 625.064 492.438 624.803C492.73 624.541 492.877 624.188 492.877 623.742C492.877 622.742 492.379 622.242 491.383 622.242C490.914 622.242 490.539 622.377 490.258 622.646C489.98 622.912 489.842 623.266 489.842 623.707H488.758C488.758 623.031 489.004 622.471 489.496 622.025C489.992 621.576 490.621 621.352 491.383 621.352C492.188 621.352 492.818 621.564 493.275 621.99C493.732 622.416 493.961 623.008 493.961 623.766C493.961 624.137 493.84 624.496 493.598 624.844C493.359 625.191 493.033 625.451 492.619 625.623C493.088 625.771 493.449 626.018 493.703 626.361C493.961 626.705 494.09 627.125 494.09 627.621C494.09 628.387 493.84 628.994 493.34 629.443C492.84 629.893 492.189 630.117 491.389 630.117C490.588 630.117 489.936 629.9 489.432 629.467C488.932 629.033 488.682 628.461 488.682 627.75H489.771C489.771 628.199 489.918 628.559 490.211 628.828C490.504 629.098 490.896 629.232 491.389 629.232C491.912 629.232 492.312 629.096 492.59 628.822C492.867 628.549 493.006 628.156 493.006 627.645C493.006 627.148 492.854 626.768 492.549 626.502C492.244 626.236 491.805 626.1 491.23 626.092H490.416V625.207Z" fill="#686868"/>
<rect x="229" y="648" width="300" height="45" fill="#F9F9F9"/>
<line x1="229" y1="647.5" x2="529" y2="647.5" stroke="#CA6666"/>
<path d="M241.158 670.752L243.385 666.469H244.662L241.721 671.818V675H240.596V671.818L237.654 666.469H238.943L241.158 670.752ZM250.586 671.057H246.889V674.08H251.184V675H245.764V666.469H251.125V667.395H246.889V670.137H250.586V671.057ZM255.098 671.197C254.133 670.92 253.43 670.58 252.988 670.178C252.551 669.771 252.332 669.271 252.332 668.678C252.332 668.006 252.6 667.451 253.135 667.014C253.674 666.572 254.373 666.352 255.232 666.352C255.818 666.352 256.34 666.465 256.797 666.691C257.258 666.918 257.613 667.23 257.863 667.629C258.117 668.027 258.244 668.463 258.244 668.936H257.113C257.113 668.42 256.949 668.016 256.621 667.723C256.293 667.426 255.83 667.277 255.232 667.277C254.678 667.277 254.244 667.4 253.932 667.646C253.623 667.889 253.469 668.227 253.469 668.66C253.469 669.008 253.615 669.303 253.908 669.545C254.205 669.783 254.707 670.002 255.414 670.201C256.125 670.4 256.68 670.621 257.078 670.863C257.48 671.102 257.777 671.381 257.969 671.701C258.164 672.021 258.262 672.398 258.262 672.832C258.262 673.523 257.992 674.078 257.453 674.496C256.914 674.91 256.193 675.117 255.291 675.117C254.705 675.117 254.158 675.006 253.65 674.783C253.143 674.557 252.75 674.248 252.473 673.857C252.199 673.467 252.062 673.023 252.062 672.527H253.193C253.193 673.043 253.383 673.451 253.762 673.752C254.145 674.049 254.654 674.197 255.291 674.197C255.885 674.197 256.34 674.076 256.656 673.834C256.973 673.592 257.131 673.262 257.131 672.844C257.131 672.426 256.984 672.104 256.691 671.877C256.398 671.646 255.867 671.42 255.098 671.197ZM265.604 667.395H262.861V675H261.742V667.395H259.006V666.469H265.604V667.395ZM271.691 671.057H267.994V674.08H272.289V675H266.869V666.469H272.23V667.395H267.994V670.137H271.691V671.057ZM276.818 671.549H274.814V675H273.684V666.469H276.508C277.469 666.469 278.207 666.688 278.723 667.125C279.242 667.562 279.502 668.199 279.502 669.035C279.502 669.566 279.357 670.029 279.068 670.424C278.783 670.818 278.385 671.113 277.873 671.309L279.877 674.93V675H278.67L276.818 671.549ZM274.814 670.629H276.543C277.102 670.629 277.545 670.484 277.873 670.195C278.205 669.906 278.371 669.52 278.371 669.035C278.371 668.508 278.213 668.104 277.896 667.822C277.584 667.541 277.131 667.398 276.537 667.395H274.814V670.629ZM281.084 675V666.469H283.492C284.234 666.469 284.891 666.633 285.461 666.961C286.031 667.289 286.471 667.756 286.779 668.361C287.092 668.967 287.25 669.662 287.254 670.447V670.992C287.254 671.797 287.098 672.502 286.785 673.107C286.477 673.713 286.033 674.178 285.455 674.502C284.881 674.826 284.211 674.992 283.445 675H281.084ZM282.209 667.395V674.08H283.393C284.26 674.08 284.934 673.811 285.414 673.271C285.898 672.732 286.141 671.965 286.141 670.969V670.471C286.141 669.502 285.912 668.75 285.455 668.215C285.002 667.676 284.357 667.402 283.521 667.395H282.209ZM293.541 672.773H289.967L289.164 675H288.004L291.262 666.469H292.246L295.51 675H294.355L293.541 672.773ZM290.307 671.848H293.207L291.754 667.857L290.307 671.848ZM298.709 670.752L300.936 666.469H302.213L299.271 671.818V675H298.146V671.818L295.205 666.469H296.494L298.709 670.752ZM308.377 671.818H305.518V670.934H308.377V671.818ZM315.865 675H314.775V667.775L312.59 668.578V667.594L315.695 666.428H315.865V675ZM320.447 671.66V675H319.322V666.469H322.469C323.402 666.469 324.133 666.707 324.66 667.184C325.191 667.66 325.457 668.291 325.457 669.076C325.457 669.904 325.197 670.543 324.678 670.992C324.162 671.438 323.422 671.66 322.457 671.66H320.447ZM320.447 670.74H322.469C323.07 670.74 323.531 670.6 323.852 670.318C324.172 670.033 324.332 669.623 324.332 669.088C324.332 668.58 324.172 668.174 323.852 667.869C323.531 667.564 323.092 667.406 322.533 667.395H320.447V670.74ZM328.346 666.469L331.135 673.43L333.924 666.469H335.383V675H334.258V671.678L334.363 668.092L331.562 675H330.701L327.906 668.109L328.018 671.678V675H326.893V666.469H328.346ZM342.432 671.818H339.572V670.934H342.432V671.818ZM350.611 666.463V667.383H350.412C349.568 667.398 348.896 667.648 348.396 668.133C347.896 668.617 347.607 669.299 347.529 670.178C347.979 669.662 348.592 669.404 349.369 669.404C350.111 669.404 350.703 669.666 351.145 670.189C351.59 670.713 351.812 671.389 351.812 672.217C351.812 673.096 351.572 673.799 351.092 674.326C350.615 674.854 349.975 675.117 349.17 675.117C348.354 675.117 347.691 674.805 347.184 674.18C346.676 673.551 346.422 672.742 346.422 671.754V671.338C346.422 669.768 346.756 668.568 347.424 667.74C348.096 666.908 349.094 666.482 350.418 666.463H350.611ZM349.188 670.307C348.816 670.307 348.475 670.418 348.162 670.641C347.85 670.863 347.633 671.143 347.512 671.479V671.877C347.512 672.58 347.67 673.146 347.986 673.576C348.303 674.006 348.697 674.221 349.17 674.221C349.658 674.221 350.041 674.041 350.318 673.682C350.6 673.322 350.74 672.852 350.74 672.27C350.74 671.684 350.598 671.211 350.312 670.852C350.031 670.488 349.656 670.307 349.188 670.307ZM354.502 671.66V675H353.377V666.469H356.523C357.457 666.469 358.188 666.707 358.715 667.184C359.246 667.66 359.512 668.291 359.512 669.076C359.512 669.904 359.252 670.543 358.732 670.992C358.217 671.438 357.477 671.66 356.512 671.66H354.502ZM354.502 670.74H356.523C357.125 670.74 357.586 670.6 357.906 670.318C358.227 670.033 358.387 669.623 358.387 669.088C358.387 668.58 358.227 668.174 357.906 667.869C357.586 667.564 357.146 667.406 356.588 667.395H354.502V670.74ZM362.4 666.469L365.189 673.43L367.979 666.469H369.438V675H368.312V671.678L368.418 668.092L365.617 675H364.756L361.961 668.109L362.072 671.678V675H360.947V666.469H362.4Z" fill="#686868"/>
<path d="M418.416 672.135H419.6V673.02H418.416V675H417.326V673.02H413.441V672.381L417.262 666.469H418.416V672.135ZM414.672 672.135H417.326V667.951L417.197 668.186L414.672 672.135Z" fill="#686868"/>
<path d="M494.43 675H488.84V674.221L491.793 670.939C492.23 670.443 492.531 670.041 492.695 669.732C492.863 669.42 492.947 669.098 492.947 668.766C492.947 668.32 492.812 667.955 492.543 667.67C492.273 667.385 491.914 667.242 491.465 667.242C490.926 667.242 490.506 667.396 490.205 667.705C489.908 668.01 489.76 668.436 489.76 668.982H488.676C488.676 668.197 488.928 667.562 489.432 667.078C489.939 666.594 490.617 666.352 491.465 666.352C492.258 666.352 492.885 666.561 493.346 666.979C493.807 667.393 494.037 667.945 494.037 668.637C494.037 669.477 493.502 670.477 492.432 671.637L490.146 674.115H494.43V675Z" fill="#686868"/>
<rect x="229" y="693" width="300" height="45" fill="#F9F9F9"/>
<line x1="229" y1="692.5" x2="529" y2="692.5" stroke="#CA6666"/>
<path d="M243.689 720H242.6V712.775L240.414 713.578V712.594L243.52 711.428H243.689V720ZM250.428 720H249.338V712.775L247.152 713.578V712.594L250.258 711.428H250.428V720ZM255.971 716.818H253.111V715.934H255.971V716.818ZM262.27 716.361C262.27 717.631 262.053 718.574 261.619 719.191C261.186 719.809 260.508 720.117 259.586 720.117C258.676 720.117 258.002 719.816 257.564 719.215C257.127 718.609 256.9 717.707 256.885 716.508V715.061C256.885 713.807 257.102 712.875 257.535 712.266C257.969 711.656 258.648 711.352 259.574 711.352C260.492 711.352 261.168 711.646 261.602 712.236C262.035 712.822 262.258 713.729 262.27 714.955V716.361ZM261.186 714.879C261.186 713.961 261.057 713.293 260.799 712.875C260.541 712.453 260.133 712.242 259.574 712.242C259.02 712.242 258.615 712.451 258.361 712.869C258.107 713.287 257.977 713.93 257.969 714.797V716.531C257.969 717.453 258.102 718.135 258.367 718.576C258.637 719.014 259.043 719.232 259.586 719.232C260.121 719.232 260.518 719.025 260.775 718.611C261.037 718.197 261.174 717.545 261.186 716.654V714.879ZM269.248 720H263.658V719.221L266.611 715.939C267.049 715.443 267.35 715.041 267.514 714.732C267.682 714.42 267.766 714.098 267.766 713.766C267.766 713.32 267.631 712.955 267.361 712.67C267.092 712.385 266.732 712.242 266.283 712.242C265.744 712.242 265.324 712.396 265.023 712.705C264.727 713.01 264.578 713.436 264.578 713.982H263.494C263.494 713.197 263.746 712.562 264.25 712.078C264.758 711.594 265.436 711.352 266.283 711.352C267.076 711.352 267.703 711.561 268.164 711.979C268.625 712.393 268.855 712.945 268.855 713.637C268.855 714.477 268.32 715.477 267.25 716.637L264.965 719.115H269.248V720ZM272.764 716.818H269.904V715.934H272.764V716.818ZM279.303 720H273.713V719.221L276.666 715.939C277.104 715.443 277.404 715.041 277.568 714.732C277.736 714.42 277.82 714.098 277.82 713.766C277.82 713.32 277.686 712.955 277.416 712.67C277.146 712.385 276.787 712.242 276.338 712.242C275.799 712.242 275.379 712.396 275.078 712.705C274.781 713.01 274.633 713.436 274.633 713.982H273.549C273.549 713.197 273.801 712.562 274.305 712.078C274.812 711.594 275.49 711.352 276.338 711.352C277.131 711.352 277.758 711.561 278.219 711.979C278.68 712.393 278.91 712.945 278.91 713.637C278.91 714.477 278.375 715.477 277.305 716.637L275.02 719.115H279.303V720ZM285.801 716.361C285.801 717.631 285.584 718.574 285.15 719.191C284.717 719.809 284.039 720.117 283.117 720.117C282.207 720.117 281.533 719.816 281.096 719.215C280.658 718.609 280.432 717.707 280.416 716.508V715.061C280.416 713.807 280.633 712.875 281.066 712.266C281.5 711.656 282.18 711.352 283.105 711.352C284.023 711.352 284.699 711.646 285.133 712.236C285.566 712.822 285.789 713.729 285.801 714.955V716.361ZM284.717 714.879C284.717 713.961 284.588 713.293 284.33 712.875C284.072 712.453 283.664 712.242 283.105 712.242C282.551 712.242 282.146 712.451 281.893 712.869C281.639 713.287 281.508 713.93 281.5 714.797V716.531C281.5 717.453 281.633 718.135 281.898 718.576C282.168 719.014 282.574 719.232 283.117 719.232C283.652 719.232 284.049 719.025 284.307 718.611C284.568 718.197 284.705 717.545 284.717 716.654V714.879ZM290.752 720H289.662V712.775L287.477 713.578V712.594L290.582 711.428H290.752V720ZM299.102 713.695C299.102 714.121 298.988 714.5 298.762 714.832C298.539 715.164 298.236 715.424 297.854 715.611C298.299 715.803 298.65 716.082 298.908 716.449C299.17 716.816 299.301 717.232 299.301 717.697C299.301 718.436 299.051 719.023 298.551 719.461C298.055 719.898 297.4 720.117 296.588 720.117C295.768 720.117 295.109 719.898 294.613 719.461C294.121 719.02 293.875 718.432 293.875 717.697C293.875 717.236 294 716.82 294.25 716.449C294.504 716.078 294.854 715.797 295.299 715.605C294.92 715.418 294.621 715.158 294.402 714.826C294.184 714.494 294.074 714.117 294.074 713.695C294.074 712.977 294.305 712.406 294.766 711.984C295.227 711.562 295.834 711.352 296.588 711.352C297.338 711.352 297.943 711.562 298.404 711.984C298.869 712.406 299.102 712.977 299.102 713.695ZM298.217 717.674C298.217 717.197 298.064 716.809 297.76 716.508C297.459 716.207 297.064 716.057 296.576 716.057C296.088 716.057 295.695 716.205 295.398 716.502C295.105 716.799 294.959 717.189 294.959 717.674C294.959 718.158 295.102 718.539 295.387 718.816C295.676 719.094 296.076 719.232 296.588 719.232C297.096 719.232 297.494 719.094 297.783 718.816C298.072 718.535 298.217 718.154 298.217 717.674ZM296.588 712.242C296.162 712.242 295.816 712.375 295.551 712.641C295.289 712.902 295.158 713.26 295.158 713.713C295.158 714.146 295.287 714.498 295.545 714.768C295.807 715.033 296.154 715.166 296.588 715.166C297.021 715.166 297.367 715.033 297.625 714.768C297.887 714.498 298.018 714.146 298.018 713.713C298.018 713.279 297.883 712.926 297.613 712.652C297.344 712.379 297.002 712.242 296.588 712.242ZM306.01 716.818H303.15V715.934H306.01V716.818ZM313.498 720H312.408V712.775L310.223 713.578V712.594L313.328 711.428H313.498V720ZM321.666 717.773H318.092L317.289 720H316.129L319.387 711.469H320.371L323.635 720H322.48L321.666 717.773ZM318.432 716.848H321.332L319.879 712.857L318.432 716.848ZM326.236 711.469L329.025 718.43L331.814 711.469H333.273V720H332.148V716.678L332.254 713.092L329.453 720H328.592L325.797 713.109L325.908 716.678V720H324.783V711.469H326.236ZM340.322 716.818H337.463V715.934H340.322V716.818ZM345.824 715.207H346.639C347.15 715.199 347.553 715.064 347.846 714.803C348.139 714.541 348.285 714.188 348.285 713.742C348.285 712.742 347.787 712.242 346.791 712.242C346.322 712.242 345.947 712.377 345.666 712.646C345.389 712.912 345.25 713.266 345.25 713.707H344.166C344.166 713.031 344.412 712.471 344.904 712.025C345.4 711.576 346.029 711.352 346.791 711.352C347.596 711.352 348.227 711.564 348.684 711.99C349.141 712.416 349.369 713.008 349.369 713.766C349.369 714.137 349.248 714.496 349.006 714.844C348.768 715.191 348.441 715.451 348.027 715.623C348.496 715.771 348.857 716.018 349.111 716.361C349.369 716.705 349.498 717.125 349.498 717.621C349.498 718.387 349.248 718.994 348.748 719.443C348.248 719.893 347.598 720.117 346.797 720.117C345.996 720.117 345.344 719.9 344.84 719.467C344.34 719.033 344.09 718.461 344.09 717.75H345.18C345.18 718.199 345.326 718.559 345.619 718.828C345.912 719.098 346.305 719.232 346.797 719.232C347.32 719.232 347.721 719.096 347.998 718.822C348.275 718.549 348.414 718.156 348.414 717.645C348.414 717.148 348.262 716.768 347.957 716.502C347.652 716.236 347.213 716.1 346.639 716.092H345.824V715.207ZM355.979 717.773H352.404L351.602 720H350.441L353.699 711.469H354.684L357.947 720H356.793L355.979 717.773ZM352.744 716.848H355.645L354.191 712.857L352.744 716.848ZM360.549 711.469L363.338 718.43L366.127 711.469H367.586V720H366.461V716.678L366.566 713.092L363.766 720H362.904L360.109 713.109L360.221 716.678V720H359.096V711.469H360.549Z" fill="#686868"/>
<path d="M414.338 715.723L414.771 711.469H419.143V712.471H415.691L415.434 714.797C415.852 714.551 416.326 714.428 416.857 714.428C417.635 714.428 418.252 714.686 418.709 715.201C419.166 715.713 419.395 716.406 419.395 717.281C419.395 718.16 419.156 718.854 418.68 719.361C418.207 719.865 417.545 720.117 416.693 720.117C415.939 720.117 415.324 719.908 414.848 719.49C414.371 719.072 414.1 718.494 414.033 717.756H415.059C415.125 718.244 415.299 718.613 415.58 718.863C415.861 719.109 416.232 719.232 416.693 719.232C417.197 719.232 417.592 719.061 417.877 718.717C418.166 718.373 418.311 717.898 418.311 717.293C418.311 716.723 418.154 716.266 417.842 715.922C417.533 715.574 417.121 715.4 416.605 715.4C416.133 715.4 415.762 715.504 415.492 715.711L415.205 715.945L414.338 715.723Z" fill="#686868"/>
<path d="M490.416 715.207H491.23C491.742 715.199 492.145 715.064 492.438 714.803C492.73 714.541 492.877 714.188 492.877 713.742C492.877 712.742 492.379 712.242 491.383 712.242C490.914 712.242 490.539 712.377 490.258 712.646C489.98 712.912 489.842 713.266 489.842 713.707H488.758C488.758 713.031 489.004 712.471 489.496 712.025C489.992 711.576 490.621 711.352 491.383 711.352C492.188 711.352 492.818 711.564 493.275 711.99C493.732 712.416 493.961 713.008 493.961 713.766C493.961 714.137 493.84 714.496 493.598 714.844C493.359 715.191 493.033 715.451 492.619 715.623C493.088 715.771 493.449 716.018 493.703 716.361C493.961 716.705 494.09 717.125 494.09 717.621C494.09 718.387 493.84 718.994 493.34 719.443C492.84 719.893 492.189 720.117 491.389 720.117C490.588 720.117 489.936 719.9 489.432 719.467C488.932 719.033 488.682 718.461 488.682 717.75H489.771C489.771 718.199 489.918 718.559 490.211 718.828C490.504 719.098 490.896 719.232 491.389 719.232C491.912 719.232 492.312 719.096 492.59 718.822C492.867 718.549 493.006 718.156 493.006 717.645C493.006 717.148 492.854 716.768 492.549 716.502C492.244 716.236 491.805 716.1 491.23 716.092H490.416V715.207Z" fill="#686868"/>
<rect x="229" y="738" width="300" height="45" fill="#F9F9F9"/>
<line x1="229" y1="737.5" x2="529" y2="737.5" stroke="#CA6666"/>
<path d="M254.166 757.395H251.424V765H250.305V757.395H247.568V756.469H254.166V757.395ZM261.83 761.01C261.83 761.846 261.689 762.576 261.408 763.201C261.127 763.822 260.729 764.297 260.213 764.625C259.697 764.953 259.096 765.117 258.408 765.117C257.736 765.117 257.141 764.953 256.621 764.625C256.102 764.293 255.697 763.822 255.408 763.213C255.123 762.6 254.977 761.891 254.969 761.086V760.471C254.969 759.65 255.111 758.926 255.396 758.297C255.682 757.668 256.084 757.188 256.604 756.855C257.127 756.52 257.725 756.352 258.396 756.352C259.08 756.352 259.682 756.518 260.201 756.85C260.725 757.178 261.127 757.656 261.408 758.285C261.689 758.91 261.83 759.639 261.83 760.471V761.01ZM260.711 760.459C260.711 759.447 260.508 758.672 260.102 758.133C259.695 757.59 259.127 757.318 258.396 757.318C257.686 757.318 257.125 757.59 256.715 758.133C256.309 758.672 256.1 759.422 256.088 760.383V761.01C256.088 761.99 256.293 762.762 256.703 763.324C257.117 763.883 257.686 764.162 258.408 764.162C259.135 764.162 259.697 763.898 260.096 763.371C260.494 762.84 260.699 762.08 260.711 761.092V760.459ZM263.518 765V756.469H265.926C266.668 756.469 267.324 756.633 267.895 756.961C268.465 757.289 268.904 757.756 269.213 758.361C269.525 758.967 269.684 759.662 269.688 760.447V760.992C269.688 761.797 269.531 762.502 269.219 763.107C268.91 763.713 268.467 764.178 267.889 764.502C267.314 764.826 266.645 764.992 265.879 765H263.518ZM264.643 757.395V764.08H265.826C266.693 764.08 267.367 763.811 267.848 763.271C268.332 762.732 268.574 761.965 268.574 760.969V760.471C268.574 759.502 268.346 758.75 267.889 758.215C267.436 757.676 266.791 757.402 265.955 757.395H264.643ZM275.975 762.773H272.4L271.598 765H270.438L273.695 756.469H274.68L277.943 765H276.789L275.975 762.773ZM272.74 761.848H275.641L274.188 757.857L272.74 761.848ZM281.143 760.752L283.369 756.469H284.646L281.705 761.818V765H280.58V761.818L277.639 756.469H278.928L281.143 760.752ZM290.811 761.818H287.951V760.934H290.811V761.818ZM298.299 765H297.209V757.775L295.023 758.578V757.594L298.129 756.428H298.299V765ZM306.467 762.773H302.893L302.09 765H300.93L304.188 756.469H305.172L308.436 765H307.281L306.467 762.773ZM303.232 761.848H306.133L304.68 757.857L303.232 761.848ZM311.037 756.469L313.826 763.43L316.615 756.469H318.074V765H316.949V761.678L317.055 758.092L314.254 765H313.393L310.598 758.109L310.709 761.678V765H309.584V756.469H311.037ZM324.338 757.125V758.66H325.521V759.498H324.338V763.43C324.338 763.684 324.391 763.875 324.496 764.004C324.602 764.129 324.781 764.191 325.035 764.191C325.16 764.191 325.332 764.168 325.551 764.121V765C325.266 765.078 324.988 765.117 324.719 765.117C324.234 765.117 323.869 764.971 323.623 764.678C323.377 764.385 323.254 763.969 323.254 763.43V759.498H322.1V758.66H323.254V757.125H324.338ZM326.389 761.771C326.389 761.15 326.51 760.592 326.752 760.096C326.998 759.6 327.338 759.217 327.771 758.947C328.209 758.678 328.707 758.543 329.266 758.543C330.129 758.543 330.826 758.842 331.357 759.439C331.893 760.037 332.16 760.832 332.16 761.824V761.9C332.16 762.518 332.041 763.072 331.803 763.564C331.568 764.053 331.23 764.434 330.789 764.707C330.352 764.98 329.848 765.117 329.277 765.117C328.418 765.117 327.721 764.818 327.186 764.221C326.654 763.623 326.389 762.832 326.389 761.848V761.771ZM327.479 761.9C327.479 762.604 327.641 763.168 327.965 763.594C328.293 764.02 328.73 764.232 329.277 764.232C329.828 764.232 330.266 764.018 330.59 763.588C330.914 763.154 331.076 762.549 331.076 761.771C331.076 761.076 330.91 760.514 330.578 760.084C330.25 759.65 329.812 759.434 329.266 759.434C328.73 759.434 328.299 759.646 327.971 760.072C327.643 760.498 327.479 761.107 327.479 761.9ZM341.975 765H336.385V764.221L339.338 760.939C339.775 760.443 340.076 760.041 340.24 759.732C340.408 759.42 340.492 759.098 340.492 758.766C340.492 758.32 340.357 757.955 340.088 757.67C339.818 757.385 339.459 757.242 339.01 757.242C338.471 757.242 338.051 757.396 337.75 757.705C337.453 758.01 337.305 758.436 337.305 758.982H336.221C336.221 758.197 336.473 757.562 336.977 757.078C337.484 756.594 338.162 756.352 339.01 756.352C339.803 756.352 340.43 756.561 340.891 756.979C341.352 757.393 341.582 757.945 341.582 758.637C341.582 759.477 341.047 760.477 339.977 761.637L337.691 764.115H341.975V765ZM348.115 762.773H344.541L343.738 765H342.578L345.836 756.469H346.82L350.084 765H348.93L348.115 762.773ZM344.881 761.848H347.781L346.328 757.857L344.881 761.848ZM352.686 756.469L355.475 763.43L358.264 756.469H359.723V765H358.598V761.678L358.703 758.092L355.902 765H355.041L352.246 758.109L352.357 761.678V765H351.232V756.469H352.686Z" fill="#686868"/>
<path d="M414.338 760.723L414.771 756.469H419.143V757.471H415.691L415.434 759.797C415.852 759.551 416.326 759.428 416.857 759.428C417.635 759.428 418.252 759.686 418.709 760.201C419.166 760.713 419.395 761.406 419.395 762.281C419.395 763.16 419.156 763.854 418.68 764.361C418.207 764.865 417.545 765.117 416.693 765.117C415.939 765.117 415.324 764.908 414.848 764.49C414.371 764.072 414.1 763.494 414.033 762.756H415.059C415.125 763.244 415.299 763.613 415.58 763.863C415.861 764.109 416.232 764.232 416.693 764.232C417.197 764.232 417.592 764.061 417.877 763.717C418.166 763.373 418.311 762.898 418.311 762.293C418.311 761.723 418.154 761.266 417.842 760.922C417.533 760.574 417.121 760.4 416.605 760.4C416.133 760.4 415.762 760.504 415.492 760.711L415.205 760.945L414.338 760.723Z" fill="#686868"/>
<path d="M490.416 760.207H491.23C491.742 760.199 492.145 760.064 492.438 759.803C492.73 759.541 492.877 759.188 492.877 758.742C492.877 757.742 492.379 757.242 491.383 757.242C490.914 757.242 490.539 757.377 490.258 757.646C489.98 757.912 489.842 758.266 489.842 758.707H488.758C488.758 758.031 489.004 757.471 489.496 757.025C489.992 756.576 490.621 756.352 491.383 756.352C492.188 756.352 492.818 756.564 493.275 756.99C493.732 757.416 493.961 758.008 493.961 758.766C493.961 759.137 493.84 759.496 493.598 759.844C493.359 760.191 493.033 760.451 492.619 760.623C493.088 760.771 493.449 761.018 493.703 761.361C493.961 761.705 494.09 762.125 494.09 762.621C494.09 763.387 493.84 763.994 493.34 764.443C492.84 764.893 492.189 765.117 491.389 765.117C490.588 765.117 489.936 764.9 489.432 764.467C488.932 764.033 488.682 763.461 488.682 762.75H489.771C489.771 763.199 489.918 763.559 490.211 763.828C490.504 764.098 490.896 764.232 491.389 764.232C491.912 764.232 492.312 764.096 492.59 763.822C492.867 763.549 493.006 763.156 493.006 762.645C493.006 762.148 492.854 761.768 492.549 761.502C492.244 761.236 491.805 761.1 491.23 761.092H490.416V760.207Z" fill="#686868"/>
<rect x="229" y="783" width="300" height="45" fill="#F9F9F9"/>
<line x1="229" y1="782.5" x2="529" y2="782.5" stroke="#CA6666"/>
<path d="M254.166 802.395H251.424V810H250.305V802.395H247.568V801.469H254.166V802.395ZM261.83 806.01C261.83 806.846 261.689 807.576 261.408 808.201C261.127 808.822 260.729 809.297 260.213 809.625C259.697 809.953 259.096 810.117 258.408 810.117C257.736 810.117 257.141 809.953 256.621 809.625C256.102 809.293 255.697 808.822 255.408 808.213C255.123 807.6 254.977 806.891 254.969 806.086V805.471C254.969 804.65 255.111 803.926 255.396 803.297C255.682 802.668 256.084 802.188 256.604 801.855C257.127 801.52 257.725 801.352 258.396 801.352C259.08 801.352 259.682 801.518 260.201 801.85C260.725 802.178 261.127 802.656 261.408 803.285C261.689 803.91 261.83 804.639 261.83 805.471V806.01ZM260.711 805.459C260.711 804.447 260.508 803.672 260.102 803.133C259.695 802.59 259.127 802.318 258.396 802.318C257.686 802.318 257.125 802.59 256.715 803.133C256.309 803.672 256.1 804.422 256.088 805.383V806.01C256.088 806.99 256.293 807.762 256.703 808.324C257.117 808.883 257.686 809.162 258.408 809.162C259.135 809.162 259.697 808.898 260.096 808.371C260.494 807.84 260.699 807.08 260.711 806.092V805.459ZM263.518 810V801.469H265.926C266.668 801.469 267.324 801.633 267.895 801.961C268.465 802.289 268.904 802.756 269.213 803.361C269.525 803.967 269.684 804.662 269.688 805.447V805.992C269.688 806.797 269.531 807.502 269.219 808.107C268.91 808.713 268.467 809.178 267.889 809.502C267.314 809.826 266.645 809.992 265.879 810H263.518ZM264.643 802.395V809.08H265.826C266.693 809.08 267.367 808.811 267.848 808.271C268.332 807.732 268.574 806.965 268.574 805.969V805.471C268.574 804.502 268.346 803.75 267.889 803.215C267.436 802.676 266.791 802.402 265.955 802.395H264.643ZM275.975 807.773H272.4L271.598 810H270.438L273.695 801.469H274.68L277.943 810H276.789L275.975 807.773ZM272.74 806.848H275.641L274.188 802.857L272.74 806.848ZM281.143 805.752L283.369 801.469H284.646L281.705 806.818V810H280.58V806.818L277.639 801.469H278.928L281.143 805.752ZM290.811 806.818H287.951V805.934H290.811V806.818ZM298.299 810H297.209V802.775L295.023 803.578V802.594L298.129 801.428H298.299V810ZM306.467 807.773H302.893L302.09 810H300.93L304.188 801.469H305.172L308.436 810H307.281L306.467 807.773ZM303.232 806.848H306.133L304.68 802.857L303.232 806.848ZM311.037 801.469L313.826 808.43L316.615 801.469H318.074V810H316.949V806.678L317.055 803.092L314.254 810H313.393L310.598 803.109L310.709 806.678V810H309.584V801.469H311.037ZM324.338 802.125V803.66H325.521V804.498H324.338V808.43C324.338 808.684 324.391 808.875 324.496 809.004C324.602 809.129 324.781 809.191 325.035 809.191C325.16 809.191 325.332 809.168 325.551 809.121V810C325.266 810.078 324.988 810.117 324.719 810.117C324.234 810.117 323.869 809.971 323.623 809.678C323.377 809.385 323.254 808.969 323.254 808.43V804.498H322.1V803.66H323.254V802.125H324.338ZM326.389 806.771C326.389 806.15 326.51 805.592 326.752 805.096C326.998 804.6 327.338 804.217 327.771 803.947C328.209 803.678 328.707 803.543 329.266 803.543C330.129 803.543 330.826 803.842 331.357 804.439C331.893 805.037 332.16 805.832 332.16 806.824V806.9C332.16 807.518 332.041 808.072 331.803 808.564C331.568 809.053 331.23 809.434 330.789 809.707C330.352 809.98 329.848 810.117 329.277 810.117C328.418 810.117 327.721 809.818 327.186 809.221C326.654 808.623 326.389 807.832 326.389 806.848V806.771ZM327.479 806.9C327.479 807.604 327.641 808.168 327.965 808.594C328.293 809.02 328.73 809.232 329.277 809.232C329.828 809.232 330.266 809.018 330.59 808.588C330.914 808.154 331.076 807.549 331.076 806.771C331.076 806.076 330.91 805.514 330.578 805.084C330.25 804.65 329.812 804.434 329.266 804.434C328.73 804.434 328.299 804.646 327.971 805.072C327.643 805.498 327.479 806.107 327.479 806.9ZM341.975 810H336.385V809.221L339.338 805.939C339.775 805.443 340.076 805.041 340.24 804.732C340.408 804.42 340.492 804.098 340.492 803.766C340.492 803.32 340.357 802.955 340.088 802.67C339.818 802.385 339.459 802.242 339.01 802.242C338.471 802.242 338.051 802.396 337.75 802.705C337.453 803.01 337.305 803.436 337.305 803.982H336.221C336.221 803.197 336.473 802.562 336.977 802.078C337.484 801.594 338.162 801.352 339.01 801.352C339.803 801.352 340.43 801.561 340.891 801.979C341.352 802.393 341.582 802.945 341.582 803.637C341.582 804.477 341.047 805.477 339.977 806.637L337.691 809.115H341.975V810ZM348.115 807.773H344.541L343.738 810H342.578L345.836 801.469H346.82L350.084 810H348.93L348.115 807.773ZM344.881 806.848H347.781L346.328 802.857L344.881 806.848ZM352.686 801.469L355.475 808.43L358.264 801.469H359.723V810H358.598V806.678L358.703 803.092L355.902 810H355.041L352.246 803.109L352.357 806.678V810H351.232V801.469H352.686Z" fill="#686868"/>
<path d="M414.338 805.723L414.771 801.469H419.143V802.471H415.691L415.434 804.797C415.852 804.551 416.326 804.428 416.857 804.428C417.635 804.428 418.252 804.686 418.709 805.201C419.166 805.713 419.395 806.406 419.395 807.281C419.395 808.16 419.156 808.854 418.68 809.361C418.207 809.865 417.545 810.117 416.693 810.117C415.939 810.117 415.324 809.908 414.848 809.49C414.371 809.072 414.1 808.494 414.033 807.756H415.059C415.125 808.244 415.299 808.613 415.58 808.863C415.861 809.109 416.232 809.232 416.693 809.232C417.197 809.232 417.592 809.061 417.877 808.717C418.166 808.373 418.311 807.898 418.311 807.293C418.311 806.723 418.154 806.266 417.842 805.922C417.533 805.574 417.121 805.4 416.605 805.4C416.133 805.4 415.762 805.504 415.492 805.711L415.205 805.945L414.338 805.723Z" fill="#686868"/>
<path d="M490.416 805.207H491.23C491.742 805.199 492.145 805.064 492.438 804.803C492.73 804.541 492.877 804.188 492.877 803.742C492.877 802.742 492.379 802.242 491.383 802.242C490.914 802.242 490.539 802.377 490.258 802.646C489.98 802.912 489.842 803.266 489.842 803.707H488.758C488.758 803.031 489.004 802.471 489.496 802.025C489.992 801.576 490.621 801.352 491.383 801.352C492.188 801.352 492.818 801.564 493.275 801.99C493.732 802.416 493.961 803.008 493.961 803.766C493.961 804.137 493.84 804.496 493.598 804.844C493.359 805.191 493.033 805.451 492.619 805.623C493.088 805.771 493.449 806.018 493.703 806.361C493.961 806.705 494.09 807.125 494.09 807.621C494.09 808.387 493.84 808.994 493.34 809.443C492.84 809.893 492.189 810.117 491.389 810.117C490.588 810.117 489.936 809.9 489.432 809.467C488.932 809.033 488.682 808.461 488.682 807.75H489.771C489.771 808.199 489.918 808.559 490.211 808.828C490.504 809.098 490.896 809.232 491.389 809.232C491.912 809.232 492.312 809.096 492.59 808.822C492.867 808.549 493.006 808.156 493.006 807.645C493.006 807.148 492.854 806.768 492.549 806.502C492.244 806.236 491.805 806.1 491.23 806.092H490.416V805.207Z" fill="#686868"/>
<rect x="229" y="828" width="300" height="45" fill="#F9F9F9"/>
<line x1="229" y1="827.5" x2="529" y2="827.5" stroke="#CA6666"/>
<path d="M254.166 847.395H251.424V855H250.305V847.395H247.568V846.469H254.166V847.395ZM261.83 851.01C261.83 851.846 261.689 852.576 261.408 853.201C261.127 853.822 260.729 854.297 260.213 854.625C259.697 854.953 259.096 855.117 258.408 855.117C257.736 855.117 257.141 854.953 256.621 854.625C256.102 854.293 255.697 853.822 255.408 853.213C255.123 852.6 254.977 851.891 254.969 851.086V850.471C254.969 849.65 255.111 848.926 255.396 848.297C255.682 847.668 256.084 847.188 256.604 846.855C257.127 846.52 257.725 846.352 258.396 846.352C259.08 846.352 259.682 846.518 260.201 846.85C260.725 847.178 261.127 847.656 261.408 848.285C261.689 848.91 261.83 849.639 261.83 850.471V851.01ZM260.711 850.459C260.711 849.447 260.508 848.672 260.102 848.133C259.695 847.59 259.127 847.318 258.396 847.318C257.686 847.318 257.125 847.59 256.715 848.133C256.309 848.672 256.1 849.422 256.088 850.383V851.01C256.088 851.99 256.293 852.762 256.703 853.324C257.117 853.883 257.686 854.162 258.408 854.162C259.135 854.162 259.697 853.898 260.096 853.371C260.494 852.84 260.699 852.08 260.711 851.092V850.459ZM263.518 855V846.469H265.926C266.668 846.469 267.324 846.633 267.895 846.961C268.465 847.289 268.904 847.756 269.213 848.361C269.525 848.967 269.684 849.662 269.688 850.447V850.992C269.688 851.797 269.531 852.502 269.219 853.107C268.91 853.713 268.467 854.178 267.889 854.502C267.314 854.826 266.645 854.992 265.879 855H263.518ZM264.643 847.395V854.08H265.826C266.693 854.08 267.367 853.811 267.848 853.271C268.332 852.732 268.574 851.965 268.574 850.969V850.471C268.574 849.502 268.346 848.75 267.889 848.215C267.436 847.676 266.791 847.402 265.955 847.395H264.643ZM275.975 852.773H272.4L271.598 855H270.438L273.695 846.469H274.68L277.943 855H276.789L275.975 852.773ZM272.74 851.848H275.641L274.188 847.857L272.74 851.848ZM281.143 850.752L283.369 846.469H284.646L281.705 851.818V855H280.58V851.818L277.639 846.469H278.928L281.143 850.752ZM290.811 851.818H287.951V850.934H290.811V851.818ZM298.299 855H297.209V847.775L295.023 848.578V847.594L298.129 846.428H298.299V855ZM306.467 852.773H302.893L302.09 855H300.93L304.188 846.469H305.172L308.436 855H307.281L306.467 852.773ZM303.232 851.848H306.133L304.68 847.857L303.232 851.848ZM311.037 846.469L313.826 853.43L316.615 846.469H318.074V855H316.949V851.678L317.055 848.092L314.254 855H313.393L310.598 848.109L310.709 851.678V855H309.584V846.469H311.037ZM324.338 847.125V848.66H325.521V849.498H324.338V853.43C324.338 853.684 324.391 853.875 324.496 854.004C324.602 854.129 324.781 854.191 325.035 854.191C325.16 854.191 325.332 854.168 325.551 854.121V855C325.266 855.078 324.988 855.117 324.719 855.117C324.234 855.117 323.869 854.971 323.623 854.678C323.377 854.385 323.254 853.969 323.254 853.43V849.498H322.1V848.66H323.254V847.125H324.338ZM326.389 851.771C326.389 851.15 326.51 850.592 326.752 850.096C326.998 849.6 327.338 849.217 327.771 848.947C328.209 848.678 328.707 848.543 329.266 848.543C330.129 848.543 330.826 848.842 331.357 849.439C331.893 850.037 332.16 850.832 332.16 851.824V851.9C332.16 852.518 332.041 853.072 331.803 853.564C331.568 854.053 331.23 854.434 330.789 854.707C330.352 854.98 329.848 855.117 329.277 855.117C328.418 855.117 327.721 854.818 327.186 854.221C326.654 853.623 326.389 852.832 326.389 851.848V851.771ZM327.479 851.9C327.479 852.604 327.641 853.168 327.965 853.594C328.293 854.02 328.73 854.232 329.277 854.232C329.828 854.232 330.266 854.018 330.59 853.588C330.914 853.154 331.076 852.549 331.076 851.771C331.076 851.076 330.91 850.514 330.578 850.084C330.25 849.65 329.812 849.434 329.266 849.434C328.73 849.434 328.299 849.646 327.971 850.072C327.643 850.498 327.479 851.107 327.479 851.9ZM341.975 855H336.385V854.221L339.338 850.939C339.775 850.443 340.076 850.041 340.24 849.732C340.408 849.42 340.492 849.098 340.492 848.766C340.492 848.32 340.357 847.955 340.088 847.67C339.818 847.385 339.459 847.242 339.01 847.242C338.471 847.242 338.051 847.396 337.75 847.705C337.453 848.01 337.305 848.436 337.305 848.982H336.221C336.221 848.197 336.473 847.562 336.977 847.078C337.484 846.594 338.162 846.352 339.01 846.352C339.803 846.352 340.43 846.561 340.891 846.979C341.352 847.393 341.582 847.945 341.582 848.637C341.582 849.477 341.047 850.477 339.977 851.637L337.691 854.115H341.975V855ZM348.115 852.773H344.541L343.738 855H342.578L345.836 846.469H346.82L350.084 855H348.93L348.115 852.773ZM344.881 851.848H347.781L346.328 847.857L344.881 851.848ZM352.686 846.469L355.475 853.43L358.264 846.469H359.723V855H358.598V851.678L358.703 848.092L355.902 855H355.041L352.246 848.109L352.357 851.678V855H351.232V846.469H352.686Z" fill="#686868"/>
<path d="M414.338 850.723L414.771 846.469H419.143V847.471H415.691L415.434 849.797C415.852 849.551 416.326 849.428 416.857 849.428C417.635 849.428 418.252 849.686 418.709 850.201C419.166 850.713 419.395 851.406 419.395 852.281C419.395 853.16 419.156 853.854 418.68 854.361C418.207 854.865 417.545 855.117 416.693 855.117C415.939 855.117 415.324 854.908 414.848 854.49C414.371 854.072 414.1 853.494 414.033 852.756H415.059C415.125 853.244 415.299 853.613 415.58 853.863C415.861 854.109 416.232 854.232 416.693 854.232C417.197 854.232 417.592 854.061 417.877 853.717C418.166 853.373 418.311 852.898 418.311 852.293C418.311 851.723 418.154 851.266 417.842 850.922C417.533 850.574 417.121 850.4 416.605 850.4C416.133 850.4 415.762 850.504 415.492 850.711L415.205 850.945L414.338 850.723Z" fill="#686868"/>
<path d="M490.416 850.207H491.23C491.742 850.199 492.145 850.064 492.438 849.803C492.73 849.541 492.877 849.188 492.877 848.742C492.877 847.742 492.379 847.242 491.383 847.242C490.914 847.242 490.539 847.377 490.258 847.646C489.98 847.912 489.842 848.266 489.842 848.707H488.758C488.758 848.031 489.004 847.471 489.496 847.025C489.992 846.576 490.621 846.352 491.383 846.352C492.188 846.352 492.818 846.564 493.275 846.99C493.732 847.416 493.961 848.008 493.961 848.766C493.961 849.137 493.84 849.496 493.598 849.844C493.359 850.191 493.033 850.451 492.619 850.623C493.088 850.771 493.449 851.018 493.703 851.361C493.961 851.705 494.09 852.125 494.09 852.621C494.09 853.387 493.84 853.994 493.34 854.443C492.84 854.893 492.189 855.117 491.389 855.117C490.588 855.117 489.936 854.9 489.432 854.467C488.932 854.033 488.682 853.461 488.682 852.75H489.771C489.771 853.199 489.918 853.559 490.211 853.828C490.504 854.098 490.896 854.232 491.389 854.232C491.912 854.232 492.312 854.096 492.59 853.822C492.867 853.549 493.006 853.156 493.006 852.645C493.006 852.148 492.854 851.768 492.549 851.502C492.244 851.236 491.805 851.1 491.23 851.092H490.416V850.207Z" fill="#686868"/>
<rect x="229" y="873" width="300" height="45" fill="#F9F9F9"/>
<line x1="229" y1="872.5" x2="529" y2="872.5" stroke="#CA6666"/>
<path d="M254.166 892.395H251.424V900H250.305V892.395H247.568V891.469H254.166V892.395ZM261.83 896.01C261.83 896.846 261.689 897.576 261.408 898.201C261.127 898.822 260.729 899.297 260.213 899.625C259.697 899.953 259.096 900.117 258.408 900.117C257.736 900.117 257.141 899.953 256.621 899.625C256.102 899.293 255.697 898.822 255.408 898.213C255.123 897.6 254.977 896.891 254.969 896.086V895.471C254.969 894.65 255.111 893.926 255.396 893.297C255.682 892.668 256.084 892.188 256.604 891.855C257.127 891.52 257.725 891.352 258.396 891.352C259.08 891.352 259.682 891.518 260.201 891.85C260.725 892.178 261.127 892.656 261.408 893.285C261.689 893.91 261.83 894.639 261.83 895.471V896.01ZM260.711 895.459C260.711 894.447 260.508 893.672 260.102 893.133C259.695 892.59 259.127 892.318 258.396 892.318C257.686 892.318 257.125 892.59 256.715 893.133C256.309 893.672 256.1 894.422 256.088 895.383V896.01C256.088 896.99 256.293 897.762 256.703 898.324C257.117 898.883 257.686 899.162 258.408 899.162C259.135 899.162 259.697 898.898 260.096 898.371C260.494 897.84 260.699 897.08 260.711 896.092V895.459ZM263.518 900V891.469H265.926C266.668 891.469 267.324 891.633 267.895 891.961C268.465 892.289 268.904 892.756 269.213 893.361C269.525 893.967 269.684 894.662 269.688 895.447V895.992C269.688 896.797 269.531 897.502 269.219 898.107C268.91 898.713 268.467 899.178 267.889 899.502C267.314 899.826 266.645 899.992 265.879 900H263.518ZM264.643 892.395V899.08H265.826C266.693 899.08 267.367 898.811 267.848 898.271C268.332 897.732 268.574 896.965 268.574 895.969V895.471C268.574 894.502 268.346 893.75 267.889 893.215C267.436 892.676 266.791 892.402 265.955 892.395H264.643ZM275.975 897.773H272.4L271.598 900H270.438L273.695 891.469H274.68L277.943 900H276.789L275.975 897.773ZM272.74 896.848H275.641L274.188 892.857L272.74 896.848ZM281.143 895.752L283.369 891.469H284.646L281.705 896.818V900H280.58V896.818L277.639 891.469H278.928L281.143 895.752ZM290.811 896.818H287.951V895.934H290.811V896.818ZM298.299 900H297.209V892.775L295.023 893.578V892.594L298.129 891.428H298.299V900ZM306.467 897.773H302.893L302.09 900H300.93L304.188 891.469H305.172L308.436 900H307.281L306.467 897.773ZM303.232 896.848H306.133L304.68 892.857L303.232 896.848ZM311.037 891.469L313.826 898.43L316.615 891.469H318.074V900H316.949V896.678L317.055 893.092L314.254 900H313.393L310.598 893.109L310.709 896.678V900H309.584V891.469H311.037ZM324.338 892.125V893.66H325.521V894.498H324.338V898.43C324.338 898.684 324.391 898.875 324.496 899.004C324.602 899.129 324.781 899.191 325.035 899.191C325.16 899.191 325.332 899.168 325.551 899.121V900C325.266 900.078 324.988 900.117 324.719 900.117C324.234 900.117 323.869 899.971 323.623 899.678C323.377 899.385 323.254 898.969 323.254 898.43V894.498H322.1V893.66H323.254V892.125H324.338ZM326.389 896.771C326.389 896.15 326.51 895.592 326.752 895.096C326.998 894.6 327.338 894.217 327.771 893.947C328.209 893.678 328.707 893.543 329.266 893.543C330.129 893.543 330.826 893.842 331.357 894.439C331.893 895.037 332.16 895.832 332.16 896.824V896.9C332.16 897.518 332.041 898.072 331.803 898.564C331.568 899.053 331.23 899.434 330.789 899.707C330.352 899.98 329.848 900.117 329.277 900.117C328.418 900.117 327.721 899.818 327.186 899.221C326.654 898.623 326.389 897.832 326.389 896.848V896.771ZM327.479 896.9C327.479 897.604 327.641 898.168 327.965 898.594C328.293 899.02 328.73 899.232 329.277 899.232C329.828 899.232 330.266 899.018 330.59 898.588C330.914 898.154 331.076 897.549 331.076 896.771C331.076 896.076 330.91 895.514 330.578 895.084C330.25 894.65 329.812 894.434 329.266 894.434C328.73 894.434 328.299 894.646 327.971 895.072C327.643 895.498 327.479 896.107 327.479 896.9ZM341.975 900H336.385V899.221L339.338 895.939C339.775 895.443 340.076 895.041 340.24 894.732C340.408 894.42 340.492 894.098 340.492 893.766C340.492 893.32 340.357 892.955 340.088 892.67C339.818 892.385 339.459 892.242 339.01 892.242C338.471 892.242 338.051 892.396 337.75 892.705C337.453 893.01 337.305 893.436 337.305 893.982H336.221C336.221 893.197 336.473 892.562 336.977 892.078C337.484 891.594 338.162 891.352 339.01 891.352C339.803 891.352 340.43 891.561 340.891 891.979C341.352 892.393 341.582 892.945 341.582 893.637C341.582 894.477 341.047 895.477 339.977 896.637L337.691 899.115H341.975V900ZM348.115 897.773H344.541L343.738 900H342.578L345.836 891.469H346.82L350.084 900H348.93L348.115 897.773ZM344.881 896.848H347.781L346.328 892.857L344.881 896.848ZM352.686 891.469L355.475 898.43L358.264 891.469H359.723V900H358.598V896.678L358.703 893.092L355.902 900H355.041L352.246 893.109L352.357 896.678V900H351.232V891.469H352.686Z" fill="#686868"/>
<path d="M414.338 895.723L414.771 891.469H419.143V892.471H415.691L415.434 894.797C415.852 894.551 416.326 894.428 416.857 894.428C417.635 894.428 418.252 894.686 418.709 895.201C419.166 895.713 419.395 896.406 419.395 897.281C419.395 898.16 419.156 898.854 418.68 899.361C418.207 899.865 417.545 900.117 416.693 900.117C415.939 900.117 415.324 899.908 414.848 899.49C414.371 899.072 414.1 898.494 414.033 897.756H415.059C415.125 898.244 415.299 898.613 415.58 898.863C415.861 899.109 416.232 899.232 416.693 899.232C417.197 899.232 417.592 899.061 417.877 898.717C418.166 898.373 418.311 897.898 418.311 897.293C418.311 896.723 418.154 896.266 417.842 895.922C417.533 895.574 417.121 895.4 416.605 895.4C416.133 895.4 415.762 895.504 415.492 895.711L415.205 895.945L414.338 895.723Z" fill="#686868"/>
<path d="M490.416 895.207H491.23C491.742 895.199 492.145 895.064 492.438 894.803C492.73 894.541 492.877 894.188 492.877 893.742C492.877 892.742 492.379 892.242 491.383 892.242C490.914 892.242 490.539 892.377 490.258 892.646C489.98 892.912 489.842 893.266 489.842 893.707H488.758C488.758 893.031 489.004 892.471 489.496 892.025C489.992 891.576 490.621 891.352 491.383 891.352C492.188 891.352 492.818 891.564 493.275 891.99C493.732 892.416 493.961 893.008 493.961 893.766C493.961 894.137 493.84 894.496 493.598 894.844C493.359 895.191 493.033 895.451 492.619 895.623C493.088 895.771 493.449 896.018 493.703 896.361C493.961 896.705 494.09 897.125 494.09 897.621C494.09 898.387 493.84 898.994 493.34 899.443C492.84 899.893 492.189 900.117 491.389 900.117C490.588 900.117 489.936 899.9 489.432 899.467C488.932 899.033 488.682 898.461 488.682 897.75H489.771C489.771 898.199 489.918 898.559 490.211 898.828C490.504 899.098 490.896 899.232 491.389 899.232C491.912 899.232 492.312 899.096 492.59 898.822C492.867 898.549 493.006 898.156 493.006 897.645C493.006 897.148 492.854 896.768 492.549 896.502C492.244 896.236 491.805 896.1 491.23 896.092H490.416V895.207Z" fill="#686868"/>
<rect x="229" y="918" width="300" height="45" fill="#F9F9F9"/>
<line x1="229" y1="917.5" x2="529" y2="917.5" stroke="#CA6666"/>
<path d="M254.166 937.395H251.424V945H250.305V937.395H247.568V936.469H254.166V937.395ZM261.83 941.01C261.83 941.846 261.689 942.576 261.408 943.201C261.127 943.822 260.729 944.297 260.213 944.625C259.697 944.953 259.096 945.117 258.408 945.117C257.736 945.117 257.141 944.953 256.621 944.625C256.102 944.293 255.697 943.822 255.408 943.213C255.123 942.6 254.977 941.891 254.969 941.086V940.471C254.969 939.65 255.111 938.926 255.396 938.297C255.682 937.668 256.084 937.188 256.604 936.855C257.127 936.52 257.725 936.352 258.396 936.352C259.08 936.352 259.682 936.518 260.201 936.85C260.725 937.178 261.127 937.656 261.408 938.285C261.689 938.91 261.83 939.639 261.83 940.471V941.01ZM260.711 940.459C260.711 939.447 260.508 938.672 260.102 938.133C259.695 937.59 259.127 937.318 258.396 937.318C257.686 937.318 257.125 937.59 256.715 938.133C256.309 938.672 256.1 939.422 256.088 940.383V941.01C256.088 941.99 256.293 942.762 256.703 943.324C257.117 943.883 257.686 944.162 258.408 944.162C259.135 944.162 259.697 943.898 260.096 943.371C260.494 942.84 260.699 942.08 260.711 941.092V940.459ZM263.518 945V936.469H265.926C266.668 936.469 267.324 936.633 267.895 936.961C268.465 937.289 268.904 937.756 269.213 938.361C269.525 938.967 269.684 939.662 269.688 940.447V940.992C269.688 941.797 269.531 942.502 269.219 943.107C268.91 943.713 268.467 944.178 267.889 944.502C267.314 944.826 266.645 944.992 265.879 945H263.518ZM264.643 937.395V944.08H265.826C266.693 944.08 267.367 943.811 267.848 943.271C268.332 942.732 268.574 941.965 268.574 940.969V940.471C268.574 939.502 268.346 938.75 267.889 938.215C267.436 937.676 266.791 937.402 265.955 937.395H264.643ZM275.975 942.773H272.4L271.598 945H270.438L273.695 936.469H274.68L277.943 945H276.789L275.975 942.773ZM272.74 941.848H275.641L274.188 937.857L272.74 941.848ZM281.143 940.752L283.369 936.469H284.646L281.705 941.818V945H280.58V941.818L277.639 936.469H278.928L281.143 940.752ZM290.811 941.818H287.951V940.934H290.811V941.818ZM298.299 945H297.209V937.775L295.023 938.578V937.594L298.129 936.428H298.299V945ZM306.467 942.773H302.893L302.09 945H300.93L304.188 936.469H305.172L308.436 945H307.281L306.467 942.773ZM303.232 941.848H306.133L304.68 937.857L303.232 941.848ZM311.037 936.469L313.826 943.43L316.615 936.469H318.074V945H316.949V941.678L317.055 938.092L314.254 945H313.393L310.598 938.109L310.709 941.678V945H309.584V936.469H311.037ZM324.338 937.125V938.66H325.521V939.498H324.338V943.43C324.338 943.684 324.391 943.875 324.496 944.004C324.602 944.129 324.781 944.191 325.035 944.191C325.16 944.191 325.332 944.168 325.551 944.121V945C325.266 945.078 324.988 945.117 324.719 945.117C324.234 945.117 323.869 944.971 323.623 944.678C323.377 944.385 323.254 943.969 323.254 943.43V939.498H322.1V938.66H323.254V937.125H324.338ZM326.389 941.771C326.389 941.15 326.51 940.592 326.752 940.096C326.998 939.6 327.338 939.217 327.771 938.947C328.209 938.678 328.707 938.543 329.266 938.543C330.129 938.543 330.826 938.842 331.357 939.439C331.893 940.037 332.16 940.832 332.16 941.824V941.9C332.16 942.518 332.041 943.072 331.803 943.564C331.568 944.053 331.23 944.434 330.789 944.707C330.352 944.98 329.848 945.117 329.277 945.117C328.418 945.117 327.721 944.818 327.186 944.221C326.654 943.623 326.389 942.832 326.389 941.848V941.771ZM327.479 941.9C327.479 942.604 327.641 943.168 327.965 943.594C328.293 944.02 328.73 944.232 329.277 944.232C329.828 944.232 330.266 944.018 330.59 943.588C330.914 943.154 331.076 942.549 331.076 941.771C331.076 941.076 330.91 940.514 330.578 940.084C330.25 939.65 329.812 939.434 329.266 939.434C328.73 939.434 328.299 939.646 327.971 940.072C327.643 940.498 327.479 941.107 327.479 941.9ZM341.975 945H336.385V944.221L339.338 940.939C339.775 940.443 340.076 940.041 340.24 939.732C340.408 939.42 340.492 939.098 340.492 938.766C340.492 938.32 340.357 937.955 340.088 937.67C339.818 937.385 339.459 937.242 339.01 937.242C338.471 937.242 338.051 937.396 337.75 937.705C337.453 938.01 337.305 938.436 337.305 938.982H336.221C336.221 938.197 336.473 937.562 336.977 937.078C337.484 936.594 338.162 936.352 339.01 936.352C339.803 936.352 340.43 936.561 340.891 936.979C341.352 937.393 341.582 937.945 341.582 938.637C341.582 939.477 341.047 940.477 339.977 941.637L337.691 944.115H341.975V945ZM348.115 942.773H344.541L343.738 945H342.578L345.836 936.469H346.82L350.084 945H348.93L348.115 942.773ZM344.881 941.848H347.781L346.328 937.857L344.881 941.848ZM352.686 936.469L355.475 943.43L358.264 936.469H359.723V945H358.598V941.678L358.703 938.092L355.902 945H355.041L352.246 938.109L352.357 941.678V945H351.232V936.469H352.686Z" fill="#686868"/>
<path d="M414.338 940.723L414.771 936.469H419.143V937.471H415.691L415.434 939.797C415.852 939.551 416.326 939.428 416.857 939.428C417.635 939.428 418.252 939.686 418.709 940.201C419.166 940.713 419.395 941.406 419.395 942.281C419.395 943.16 419.156 943.854 418.68 944.361C418.207 944.865 417.545 945.117 416.693 945.117C415.939 945.117 415.324 944.908 414.848 944.49C414.371 944.072 414.1 943.494 414.033 942.756H415.059C415.125 943.244 415.299 943.613 415.58 943.863C415.861 944.109 416.232 944.232 416.693 944.232C417.197 944.232 417.592 944.061 417.877 943.717C418.166 943.373 418.311 942.898 418.311 942.293C418.311 941.723 418.154 941.266 417.842 940.922C417.533 940.574 417.121 940.4 416.605 940.4C416.133 940.4 415.762 940.504 415.492 940.711L415.205 940.945L414.338 940.723Z" fill="#686868"/>
<path d="M490.416 940.207H491.23C491.742 940.199 492.145 940.064 492.438 939.803C492.73 939.541 492.877 939.188 492.877 938.742C492.877 937.742 492.379 937.242 491.383 937.242C490.914 937.242 490.539 937.377 490.258 937.646C489.98 937.912 489.842 938.266 489.842 938.707H488.758C488.758 938.031 489.004 937.471 489.496 937.025C489.992 936.576 490.621 936.352 491.383 936.352C492.188 936.352 492.818 936.564 493.275 936.99C493.732 937.416 493.961 938.008 493.961 938.766C493.961 939.137 493.84 939.496 493.598 939.844C493.359 940.191 493.033 940.451 492.619 940.623C493.088 940.771 493.449 941.018 493.703 941.361C493.961 941.705 494.09 942.125 494.09 942.621C494.09 943.387 493.84 943.994 493.34 944.443C492.84 944.893 492.189 945.117 491.389 945.117C490.588 945.117 489.936 944.9 489.432 944.467C488.932 944.033 488.682 943.461 488.682 942.75H489.771C489.771 943.199 489.918 943.559 490.211 943.828C490.504 944.098 490.896 944.232 491.389 944.232C491.912 944.232 492.312 944.096 492.59 943.822C492.867 943.549 493.006 943.156 493.006 942.645C493.006 942.148 492.854 941.768 492.549 941.502C492.244 941.236 491.805 941.1 491.23 941.092H490.416V940.207Z" fill="#686868"/>
<rect x="229" y="963" width="300" height="45" fill="#F9F9F9"/>
<line x1="229" y1="962.5" x2="529" y2="962.5" stroke="#CA6666"/>
<path d="M254.166 982.395H251.424V990H250.305V982.395H247.568V981.469H254.166V982.395ZM261.83 986.01C261.83 986.846 261.689 987.576 261.408 988.201C261.127 988.822 260.729 989.297 260.213 989.625C259.697 989.953 259.096 990.117 258.408 990.117C257.736 990.117 257.141 989.953 256.621 989.625C256.102 989.293 255.697 988.822 255.408 988.213C255.123 987.6 254.977 986.891 254.969 986.086V985.471C254.969 984.65 255.111 983.926 255.396 983.297C255.682 982.668 256.084 982.188 256.604 981.855C257.127 981.52 257.725 981.352 258.396 981.352C259.08 981.352 259.682 981.518 260.201 981.85C260.725 982.178 261.127 982.656 261.408 983.285C261.689 983.91 261.83 984.639 261.83 985.471V986.01ZM260.711 985.459C260.711 984.447 260.508 983.672 260.102 983.133C259.695 982.59 259.127 982.318 258.396 982.318C257.686 982.318 257.125 982.59 256.715 983.133C256.309 983.672 256.1 984.422 256.088 985.383V986.01C256.088 986.99 256.293 987.762 256.703 988.324C257.117 988.883 257.686 989.162 258.408 989.162C259.135 989.162 259.697 988.898 260.096 988.371C260.494 987.84 260.699 987.08 260.711 986.092V985.459ZM263.518 990V981.469H265.926C266.668 981.469 267.324 981.633 267.895 981.961C268.465 982.289 268.904 982.756 269.213 983.361C269.525 983.967 269.684 984.662 269.688 985.447V985.992C269.688 986.797 269.531 987.502 269.219 988.107C268.91 988.713 268.467 989.178 267.889 989.502C267.314 989.826 266.645 989.992 265.879 990H263.518ZM264.643 982.395V989.08H265.826C266.693 989.08 267.367 988.811 267.848 988.271C268.332 987.732 268.574 986.965 268.574 985.969V985.471C268.574 984.502 268.346 983.75 267.889 983.215C267.436 982.676 266.791 982.402 265.955 982.395H264.643ZM275.975 987.773H272.4L271.598 990H270.438L273.695 981.469H274.68L277.943 990H276.789L275.975 987.773ZM272.74 986.848H275.641L274.188 982.857L272.74 986.848ZM281.143 985.752L283.369 981.469H284.646L281.705 986.818V990H280.58V986.818L277.639 981.469H278.928L281.143 985.752ZM290.811 986.818H287.951V985.934H290.811V986.818ZM298.299 990H297.209V982.775L295.023 983.578V982.594L298.129 981.428H298.299V990ZM306.467 987.773H302.893L302.09 990H300.93L304.188 981.469H305.172L308.436 990H307.281L306.467 987.773ZM303.232 986.848H306.133L304.68 982.857L303.232 986.848ZM311.037 981.469L313.826 988.43L316.615 981.469H318.074V990H316.949V986.678L317.055 983.092L314.254 990H313.393L310.598 983.109L310.709 986.678V990H309.584V981.469H311.037ZM324.338 982.125V983.66H325.521V984.498H324.338V988.43C324.338 988.684 324.391 988.875 324.496 989.004C324.602 989.129 324.781 989.191 325.035 989.191C325.16 989.191 325.332 989.168 325.551 989.121V990C325.266 990.078 324.988 990.117 324.719 990.117C324.234 990.117 323.869 989.971 323.623 989.678C323.377 989.385 323.254 988.969 323.254 988.43V984.498H322.1V983.66H323.254V982.125H324.338ZM326.389 986.771C326.389 986.15 326.51 985.592 326.752 985.096C326.998 984.6 327.338 984.217 327.771 983.947C328.209 983.678 328.707 983.543 329.266 983.543C330.129 983.543 330.826 983.842 331.357 984.439C331.893 985.037 332.16 985.832 332.16 986.824V986.9C332.16 987.518 332.041 988.072 331.803 988.564C331.568 989.053 331.23 989.434 330.789 989.707C330.352 989.98 329.848 990.117 329.277 990.117C328.418 990.117 327.721 989.818 327.186 989.221C326.654 988.623 326.389 987.832 326.389 986.848V986.771ZM327.479 986.9C327.479 987.604 327.641 988.168 327.965 988.594C328.293 989.02 328.73 989.232 329.277 989.232C329.828 989.232 330.266 989.018 330.59 988.588C330.914 988.154 331.076 987.549 331.076 986.771C331.076 986.076 330.91 985.514 330.578 985.084C330.25 984.65 329.812 984.434 329.266 984.434C328.73 984.434 328.299 984.646 327.971 985.072C327.643 985.498 327.479 986.107 327.479 986.9ZM341.975 990H336.385V989.221L339.338 985.939C339.775 985.443 340.076 985.041 340.24 984.732C340.408 984.42 340.492 984.098 340.492 983.766C340.492 983.32 340.357 982.955 340.088 982.67C339.818 982.385 339.459 982.242 339.01 982.242C338.471 982.242 338.051 982.396 337.75 982.705C337.453 983.01 337.305 983.436 337.305 983.982H336.221C336.221 983.197 336.473 982.562 336.977 982.078C337.484 981.594 338.162 981.352 339.01 981.352C339.803 981.352 340.43 981.561 340.891 981.979C341.352 982.393 341.582 982.945 341.582 983.637C341.582 984.477 341.047 985.477 339.977 986.637L337.691 989.115H341.975V990ZM348.115 987.773H344.541L343.738 990H342.578L345.836 981.469H346.82L350.084 990H348.93L348.115 987.773ZM344.881 986.848H347.781L346.328 982.857L344.881 986.848ZM352.686 981.469L355.475 988.43L358.264 981.469H359.723V990H358.598V986.678L358.703 983.092L355.902 990H355.041L352.246 983.109L352.357 986.678V990H351.232V981.469H352.686Z" fill="#686868"/>
<path d="M414.338 985.723L414.771 981.469H419.143V982.471H415.691L415.434 984.797C415.852 984.551 416.326 984.428 416.857 984.428C417.635 984.428 418.252 984.686 418.709 985.201C419.166 985.713 419.395 986.406 419.395 987.281C419.395 988.16 419.156 988.854 418.68 989.361C418.207 989.865 417.545 990.117 416.693 990.117C415.939 990.117 415.324 989.908 414.848 989.49C414.371 989.072 414.1 988.494 414.033 987.756H415.059C415.125 988.244 415.299 988.613 415.58 988.863C415.861 989.109 416.232 989.232 416.693 989.232C417.197 989.232 417.592 989.061 417.877 988.717C418.166 988.373 418.311 987.898 418.311 987.293C418.311 986.723 418.154 986.266 417.842 985.922C417.533 985.574 417.121 985.4 416.605 985.4C416.133 985.4 415.762 985.504 415.492 985.711L415.205 985.945L414.338 985.723Z" fill="#686868"/>
<path d="M490.416 985.207H491.23C491.742 985.199 492.145 985.064 492.438 984.803C492.73 984.541 492.877 984.188 492.877 983.742C492.877 982.742 492.379 982.242 491.383 982.242C490.914 982.242 490.539 982.377 490.258 982.646C489.98 982.912 489.842 983.266 489.842 983.707H488.758C488.758 983.031 489.004 982.471 489.496 982.025C489.992 981.576 490.621 981.352 491.383 981.352C492.188 981.352 492.818 981.564 493.275 981.99C493.732 982.416 493.961 983.008 493.961 983.766C493.961 984.137 493.84 984.496 493.598 984.844C493.359 985.191 493.033 985.451 492.619 985.623C493.088 985.771 493.449 986.018 493.703 986.361C493.961 986.705 494.09 987.125 494.09 987.621C494.09 988.387 493.84 988.994 493.34 989.443C492.84 989.893 492.189 990.117 491.389 990.117C490.588 990.117 489.936 989.9 489.432 989.467C488.932 989.033 488.682 988.461 488.682 987.75H489.771C489.771 988.199 489.918 988.559 490.211 988.828C490.504 989.098 490.896 989.232 491.389 989.232C491.912 989.232 492.312 989.096 492.59 988.822C492.867 988.549 493.006 988.156 493.006 987.645C493.006 987.148 492.854 986.768 492.549 986.502C492.244 986.236 491.805 986.1 491.23 986.092H490.416V985.207Z" fill="#686868"/>
<rect x="454" y="963" width="75" height="45" fill="#CA6666"/>
<path d="M474.296 990V982.891H476.303C476.921 982.891 477.468 983.027 477.943 983.301C478.419 983.574 478.785 983.963 479.042 984.468C479.302 984.972 479.434 985.552 479.438 986.206V986.66C479.438 987.331 479.307 987.918 479.047 988.423C478.79 988.927 478.42 989.315 477.938 989.585C477.46 989.855 476.902 989.993 476.264 990H474.296ZM475.233 983.662V989.233H476.22C476.942 989.233 477.504 989.009 477.904 988.56C478.308 988.11 478.51 987.471 478.51 986.641V986.226C478.51 985.418 478.319 984.792 477.938 984.346C477.561 983.896 477.024 983.669 476.327 983.662H475.233ZM484.877 986.714H481.796V989.233H485.375V990H480.858V982.891H485.326V983.662H481.796V985.947H484.877V986.714ZM487.484 989.233H490.854V990H486.542V982.891H487.484V989.233ZM495.941 986.714H492.86V989.233H496.439V990H491.923V982.891H496.391V983.662H492.86V985.947H495.941V986.714ZM502.616 983.662H500.331V990H499.398V983.662H497.118V982.891H502.616V983.662ZM507.689 986.714H504.608V989.233H508.188V990H503.671V982.891H508.139V983.662H504.608V985.947H507.689V986.714Z" fill="white"/>
</svg>
