<svg width="360" height="640" viewBox="0 0 360 640" fill="none" xmlns="http://www.w3.org/2000/svg">
<rect width="360" height="640" fill="white"/>
<path d="M98.1914 75.2637C97.9688 75.2402 97.7988 75.1406 97.6816 74.9648C97.5645 74.7891 97.5176 74.5957 97.541 74.3848C97.5996 74.0215 97.7109 73.6875 97.875 73.3828C98.0391 73.0781 98.1562 72.8496 98.2266 72.6973C98.3086 72.5449 98.3906 72.375 98.4727 72.1875L99.1406 70.6406L106.365 49.002L114.135 64.0137L121.676 49.002L130.693 75H121.254L116.895 61.5703L110.145 75.6328L103.043 62.9766L100.582 70.6582C100.195 71.5137 99.9199 72.2402 99.7559 72.8379C99.5918 73.4355 99.457 73.8984 99.3516 74.2266C99.1172 74.9648 98.7305 75.3105 98.1914 75.2637ZM136.828 71.8359C135.668 70.6992 134.742 69.3281 134.051 67.7227C133.371 66.1055 133.031 64.3477 133.031 62.4492C133.031 60.5391 133.354 58.8281 133.998 57.3164C134.654 55.793 135.557 54.4746 136.705 53.3613C139.166 50.9941 142.254 49.8105 145.969 49.8105C149.66 49.8105 152.684 50.9766 155.039 53.3086C157.43 55.6758 158.625 58.7461 158.625 62.5195C158.625 66.2812 157.4 69.375 154.951 71.8008C153.416 73.3008 151.529 74.3379 149.291 74.9121C148.178 75.1934 146.883 75.334 145.406 75.334C143.941 75.334 142.436 75.0352 140.889 74.4375C139.342 73.8281 137.988 72.9609 136.828 71.8359ZM145.951 51.0938C145.307 51.0938 144.703 51.1406 144.141 51.2344V73.9102C144.68 74.0039 145.283 74.0508 145.951 74.0508C149.08 74.0508 151.717 73.0078 153.861 70.9219C156.1 68.7539 157.219 65.9531 157.219 62.5195C157.219 59.25 156.17 56.5312 154.072 54.3633C151.951 52.1836 149.244 51.0938 145.951 51.0938ZM163.652 50.127H170.965C174.375 50.127 176.877 50.3672 178.471 50.8477C180.287 51.4102 181.688 52.1309 182.672 53.0098C183.668 53.8887 184.447 54.7969 185.01 55.7344C186.158 57.6445 186.732 59.8125 186.732 62.2383C186.732 66.0586 185.361 69.1523 182.619 71.5195C180.674 73.2188 178.383 74.2676 175.746 74.666C174.281 74.8887 172.23 75 169.594 75H163.652V50.127ZM172.617 73.541C172.805 73.5527 172.975 73.5586 173.127 73.5586H173.531C176.707 73.5586 179.42 72.5684 181.67 70.5879C184.049 68.502 185.238 65.7305 185.238 62.2734C185.238 60.0938 184.717 58.1309 183.674 56.3848C182.162 53.8418 179.771 52.3008 176.502 51.7617C175.436 51.5859 174.141 51.4863 172.617 51.4629V73.541ZM206.807 73.4883C207.404 73.4883 207.703 73.7227 207.703 74.1914C207.703 74.4023 207.574 74.5898 207.316 74.7539C207.059 74.918 206.613 75 205.98 75H191.092V50.127C195.709 50.127 200.326 50.127 204.943 50.127L206.385 50.0742C207.264 50.0742 207.703 50.332 207.703 50.8477C207.703 51.0469 207.627 51.2344 207.475 51.4102C207.334 51.5742 207.17 51.6562 206.982 51.6562C206.678 51.6562 206.355 51.6211 206.016 51.5508C205.512 51.4453 204.82 51.3926 203.941 51.3926H200.057V56.7539H203.256C203.256 56.7539 203.977 56.7246 205.418 56.666C205.676 56.666 205.893 56.7305 206.068 56.8594C206.256 56.9766 206.35 57.1465 206.35 57.3691C206.35 57.8613 206.021 58.1074 205.365 58.1074L204.609 58.0898C204.223 58.0547 203.9 58.0371 203.643 58.0371H200.057V73.7168H203.941C204.809 73.7168 205.424 73.6816 205.787 73.6113C206.221 73.5293 206.561 73.4883 206.807 73.4883ZM224.262 66.4746L225.703 66.5801C227.766 66.5801 229.518 65.8594 230.959 64.418C232.4 62.9766 233.121 61.1836 233.121 59.0391C233.121 56.2266 231.885 54.1406 229.412 52.7812C228.053 52.0312 226.6 51.5977 225.053 51.4805C224.396 51.4219 223.787 51.3926 223.225 51.3926H222.029C221.783 51.3926 221.566 51.3984 221.379 51.4102V75H212.414V50.127C215.156 50.127 217.377 50.127 219.076 50.127C220.775 50.127 221.883 50.1328 222.398 50.1445C222.914 50.1562 223.371 50.1738 223.77 50.1973C224.18 50.209 224.561 50.2266 224.912 50.25C225.428 50.2969 226.154 50.4082 227.092 50.584C228.041 50.7598 228.979 51.0938 229.904 51.5859C230.83 52.0781 231.627 52.6875 232.295 53.4141C233.736 54.9609 234.457 56.8008 234.457 58.9336C234.457 61.043 233.789 62.9062 232.453 64.5234C231.082 66.1758 229.254 67.2422 226.969 67.7227C228.059 71.0977 229.447 73.1133 231.135 73.7695C231.65 73.9688 232.166 74.0684 232.682 74.0684L234.07 73.7344C234.504 73.7344 234.721 73.957 234.721 74.4023C234.721 75.0234 233.994 75.334 232.541 75.334C231.486 75.334 230.52 75.041 229.641 74.4551C228.27 73.6348 227.104 72.041 226.143 69.6738L225.633 68.4258C225.551 68.2266 225.475 68.1035 225.404 68.0566C225.346 68.0098 225.234 67.9863 225.07 67.9863C224.918 67.9863 224.783 67.998 224.666 68.0215L224.244 68.0391C223.775 68.0391 223.453 67.9512 223.277 67.7754C223.113 67.5996 223.031 67.418 223.031 67.2305C223.031 66.7266 223.441 66.4746 224.262 66.4746ZM240.398 72.4863L240.451 74.2441C240.451 74.5488 240.369 74.7832 240.205 74.9473C240.041 75.1113 239.842 75.1934 239.607 75.1934C239.385 75.1934 239.197 75.1172 239.045 74.9648C238.893 74.8125 238.816 74.6484 238.816 74.4727C238.816 74.2852 238.828 74.1152 238.852 73.9629C238.887 73.7988 238.916 73.6172 238.939 73.418C238.998 73.0781 239.027 72.2285 239.027 70.8691V49.002L258.135 64.1543V53.6777C258.135 52.8809 258.111 52.3125 258.064 51.9727C258.006 51.4219 257.977 51.0352 257.977 50.8125C257.977 50.2266 258.229 49.9336 258.732 49.9336C258.932 49.9336 259.119 50.0039 259.295 50.1445C259.482 50.2852 259.576 50.4902 259.576 50.7598V51.375L259.506 53.9238V75.9668L240.398 60.9727V72.4863ZM78.5742 111.705L80.1387 111.775C82.4121 111.775 84.2871 111.025 85.7637 109.525C87.2637 108.014 88.0488 106.057 88.1191 103.654C88.248 99.9512 86.4668 97.4492 82.7754 96.1484C81.3926 95.6562 79.5938 95.4102 77.3789 95.4102H75.9023V119H66.9375V94.127H73.6699C77.3027 94.127 79.4941 94.1797 80.2441 94.2852C80.9941 94.3906 81.7734 94.5254 82.582 94.6895C83.4023 94.8535 84.2812 95.2109 85.2188 95.7617C86.168 96.3125 86.9707 96.9688 87.627 97.7305C88.9512 99.2773 89.5898 101.094 89.543 103.18C89.4727 105.84 88.6934 108.055 87.2051 109.824C85.6934 111.605 83.6074 112.707 80.9473 113.129C80.1738 113.234 79.5645 113.287 79.1191 113.287C78.0645 113.287 77.5371 113 77.5371 112.426C77.5371 112.215 77.6309 112.045 77.8184 111.916C78.0059 111.775 78.2578 111.705 78.5742 111.705ZM96.2227 115.836C95.0625 114.699 94.1367 113.328 93.4453 111.723C92.7656 110.105 92.4258 108.348 92.4258 106.449C92.4258 104.539 92.748 102.828 93.3926 101.316C94.0488 99.793 94.9512 98.4746 96.0996 97.3613C98.5605 94.9941 101.648 93.8105 105.363 93.8105C109.055 93.8105 112.078 94.9766 114.434 97.3086C116.824 99.6758 118.02 102.746 118.02 106.52C118.02 110.281 116.795 113.375 114.346 115.801C112.811 117.301 110.924 118.338 108.686 118.912C107.572 119.193 106.277 119.334 104.801 119.334C103.336 119.334 101.83 119.035 100.283 118.438C98.7363 117.828 97.3828 116.961 96.2227 115.836ZM105.346 95.0938C104.701 95.0938 104.098 95.1406 103.535 95.2344V117.91C104.074 118.004 104.678 118.051 105.346 118.051C108.475 118.051 111.111 117.008 113.256 114.922C115.494 112.754 116.613 109.953 116.613 106.52C116.613 103.25 115.564 100.531 113.467 98.3633C111.346 96.1836 108.639 95.0938 105.346 95.0938ZM120.832 119.264C120.609 119.24 120.439 119.141 120.322 118.965C120.205 118.789 120.158 118.596 120.182 118.385C120.24 118.021 120.352 117.688 120.516 117.383C120.68 117.078 120.797 116.85 120.867 116.697C120.949 116.545 121.031 116.375 121.113 116.188L121.781 114.641L129.006 93.002L136.775 108.014L144.316 93.002L153.334 119H143.895L139.535 105.57L132.785 119.633L125.684 106.977L123.223 114.658C122.836 115.514 122.561 116.24 122.396 116.838C122.232 117.436 122.098 117.898 121.992 118.227C121.758 118.965 121.371 119.311 120.832 119.264ZM159.469 115.836C158.309 114.699 157.383 113.328 156.691 111.723C156.012 110.105 155.672 108.348 155.672 106.449C155.672 104.539 155.994 102.828 156.639 101.316C157.295 99.793 158.197 98.4746 159.346 97.3613C161.807 94.9941 164.895 93.8105 168.609 93.8105C172.301 93.8105 175.324 94.9766 177.68 97.3086C180.07 99.6758 181.266 102.746 181.266 106.52C181.266 110.281 180.041 113.375 177.592 115.801C176.057 117.301 174.17 118.338 171.932 118.912C170.818 119.193 169.523 119.334 168.047 119.334C166.582 119.334 165.076 119.035 163.529 118.438C161.982 117.828 160.629 116.961 159.469 115.836ZM168.592 95.0938C167.947 95.0938 167.344 95.1406 166.781 95.2344V117.91C167.32 118.004 167.924 118.051 168.592 118.051C171.721 118.051 174.357 117.008 176.502 114.922C178.74 112.754 179.859 109.953 179.859 106.52C179.859 103.25 178.811 100.531 176.713 98.3633C174.592 96.1836 171.885 95.0938 168.592 95.0938ZM186.293 94.127H193.605C197.016 94.127 199.518 94.3672 201.111 94.8477C202.928 95.4102 204.328 96.1309 205.312 97.0098C206.309 97.8887 207.088 98.7969 207.65 99.7344C208.799 101.645 209.373 103.812 209.373 106.238C209.373 110.059 208.002 113.152 205.26 115.52C203.314 117.219 201.023 118.268 198.387 118.666C196.922 118.889 194.871 119 192.234 119H186.293V94.127ZM195.258 117.541C195.445 117.553 195.615 117.559 195.768 117.559H196.172C199.348 117.559 202.061 116.568 204.311 114.588C206.689 112.502 207.879 109.73 207.879 106.273C207.879 104.094 207.357 102.131 206.314 100.385C204.803 97.8418 202.412 96.3008 199.143 95.7617C198.076 95.5859 196.781 95.4863 195.258 95.4629V117.541ZM216.633 115.836C215.473 114.699 214.547 113.328 213.855 111.723C213.176 110.105 212.836 108.348 212.836 106.449C212.836 104.539 213.158 102.828 213.803 101.316C214.459 99.793 215.361 98.4746 216.51 97.3613C218.971 94.9941 222.059 93.8105 225.773 93.8105C229.465 93.8105 232.488 94.9766 234.844 97.3086C237.234 99.6758 238.43 102.746 238.43 106.52C238.43 110.281 237.205 113.375 234.756 115.801C233.221 117.301 231.334 118.338 229.096 118.912C227.982 119.193 226.688 119.334 225.211 119.334C223.746 119.334 222.24 119.035 220.693 118.438C219.146 117.828 217.793 116.961 216.633 115.836ZM225.756 95.0938C225.111 95.0938 224.508 95.1406 223.945 95.2344V117.91C224.484 118.004 225.088 118.051 225.756 118.051C228.885 118.051 231.521 117.008 233.666 114.922C235.904 112.754 237.023 109.953 237.023 106.52C237.023 103.25 235.975 100.531 233.877 98.3633C231.756 96.1836 229.049 95.0938 225.756 95.0938ZM255.305 110.475L256.746 110.58C258.809 110.58 260.561 109.859 262.002 108.418C263.443 106.977 264.164 105.184 264.164 103.039C264.164 100.227 262.928 98.1406 260.455 96.7812C259.096 96.0312 257.643 95.5977 256.096 95.4805C255.439 95.4219 254.83 95.3926 254.268 95.3926H253.072C252.826 95.3926 252.609 95.3984 252.422 95.4102V119H243.457V94.127C246.199 94.127 248.42 94.127 250.119 94.127C251.818 94.127 252.926 94.1328 253.441 94.1445C253.957 94.1562 254.414 94.1738 254.812 94.1973C255.223 94.209 255.604 94.2266 255.955 94.25C256.471 94.2969 257.197 94.4082 258.135 94.584C259.084 94.7598 260.021 95.0938 260.947 95.5859C261.873 96.0781 262.67 96.6875 263.338 97.4141C264.779 98.9609 265.5 100.801 265.5 102.934C265.5 105.043 264.832 106.906 263.496 108.523C262.125 110.176 260.297 111.242 258.012 111.723C259.102 115.098 260.49 117.113 262.178 117.77C262.693 117.969 263.209 118.068 263.725 118.068L265.113 117.734C265.547 117.734 265.764 117.957 265.764 118.402C265.764 119.023 265.037 119.334 263.584 119.334C262.529 119.334 261.562 119.041 260.684 118.455C259.312 117.635 258.146 116.041 257.186 113.674L256.676 112.426C256.594 112.227 256.518 112.104 256.447 112.057C256.389 112.01 256.277 111.986 256.113 111.986C255.961 111.986 255.826 111.998 255.709 112.021L255.287 112.039C254.818 112.039 254.496 111.951 254.32 111.775C254.156 111.6 254.074 111.418 254.074 111.23C254.074 110.727 254.484 110.475 255.305 110.475ZM272.461 115.836C271.301 114.699 270.375 113.328 269.684 111.723C269.004 110.105 268.664 108.348 268.664 106.449C268.664 104.539 268.986 102.828 269.631 101.316C270.287 99.793 271.189 98.4746 272.338 97.3613C274.799 94.9941 277.887 93.8105 281.602 93.8105C285.293 93.8105 288.316 94.9766 290.672 97.3086C293.062 99.6758 294.258 102.746 294.258 106.52C294.258 110.281 293.033 113.375 290.584 115.801C289.049 117.301 287.162 118.338 284.924 118.912C283.811 119.193 282.516 119.334 281.039 119.334C279.574 119.334 278.068 119.035 276.521 118.438C274.975 117.828 273.621 116.961 272.461 115.836ZM281.584 95.0938C280.939 95.0938 280.336 95.1406 279.773 95.2344V117.91C280.312 118.004 280.916 118.051 281.584 118.051C284.713 118.051 287.35 117.008 289.494 114.922C291.732 112.754 292.852 109.953 292.852 106.52C292.852 103.25 291.803 100.531 289.705 98.3633C287.584 96.1836 284.877 95.0938 281.584 95.0938Z" fill="#CA6666"/>
<line x1="28" y1="176" x2="332" y2="176" stroke="#CA6666" stroke-width="2"/>
<path d="M32.554 213.144C31.75 213.144 30.964 213.048 30.196 212.856C29.428 212.652 28.816 212.4 28.36 212.1L29.296 210.084C29.728 210.36 30.25 210.588 30.862 210.768C31.474 210.936 32.074 211.02 32.662 211.02C33.85 211.02 34.444 210.726 34.444 210.138C34.444 209.862 34.282 209.664 33.958 209.544C33.634 209.424 33.136 209.322 32.464 209.238C31.672 209.118 31.018 208.98 30.502 208.824C29.986 208.668 29.536 208.392 29.152 207.996C28.78 207.6 28.594 207.036 28.594 206.304C28.594 205.692 28.768 205.152 29.116 204.684C29.476 204.204 29.992 203.832 30.664 203.568C31.348 203.304 32.152 203.172 33.076 203.172C33.76 203.172 34.438 203.25 35.11 203.406C35.794 203.55 36.358 203.754 36.802 204.018L35.866 206.016C35.014 205.536 34.084 205.296 33.076 205.296C32.476 205.296 32.026 205.38 31.726 205.548C31.426 205.716 31.276 205.932 31.276 206.196C31.276 206.496 31.438 206.706 31.762 206.826C32.086 206.946 32.602 207.06 33.31 207.168C34.102 207.3 34.75 207.444 35.254 207.6C35.758 207.744 36.196 208.014 36.568 208.41C36.94 208.806 37.126 209.358 37.126 210.066C37.126 210.666 36.946 211.2 36.586 211.668C36.226 212.136 35.698 212.502 35.002 212.766C34.318 213.018 33.502 213.144 32.554 213.144ZM48.3445 208.194C48.3445 208.23 48.3265 208.482 48.2905 208.95H40.9645C41.0965 209.55 41.4085 210.024 41.9005 210.372C42.3925 210.72 43.0045 210.894 43.7365 210.894C44.2405 210.894 44.6845 210.822 45.0685 210.678C45.4645 210.522 45.8305 210.282 46.1665 209.958L47.6605 211.578C46.7485 212.622 45.4165 213.144 43.6645 213.144C42.5725 213.144 41.6065 212.934 40.7665 212.514C39.9265 212.082 39.2785 211.488 38.8225 210.732C38.3665 209.976 38.1385 209.118 38.1385 208.158C38.1385 207.21 38.3605 206.358 38.8045 205.602C39.2605 204.834 39.8785 204.24 40.6585 203.82C41.4505 203.388 42.3325 203.172 43.3045 203.172C44.2525 203.172 45.1105 203.376 45.8785 203.784C46.6465 204.192 47.2465 204.78 47.6785 205.548C48.1225 206.304 48.3445 207.186 48.3445 208.194ZM43.3225 205.296C42.6865 205.296 42.1525 205.476 41.7205 205.836C41.2885 206.196 41.0245 206.688 40.9285 207.312H45.6985C45.6025 206.7 45.3385 206.214 44.9065 205.854C44.4745 205.482 43.9465 205.296 43.3225 205.296ZM56.46 212.532C56.184 212.736 55.842 212.892 55.434 213C55.038 213.096 54.618 213.144 54.174 213.144C53.022 213.144 52.128 212.85 51.492 212.262C50.868 211.674 50.556 210.81 50.556 209.67V205.692H49.062V203.532H50.556V201.174H53.364V203.532H55.776V205.692H53.364V209.634C53.364 210.042 53.466 210.36 53.67 210.588C53.886 210.804 54.186 210.912 54.57 210.912C55.014 210.912 55.392 210.792 55.704 210.552L56.46 212.532ZM64.0713 212.532C63.7953 212.736 63.4533 212.892 63.0453 213C62.6493 213.096 62.2293 213.144 61.7853 213.144C60.6333 213.144 59.7393 212.85 59.1033 212.262C58.4793 211.674 58.1673 210.81 58.1673 209.67V205.692H56.6733V203.532H58.1673V201.174H60.9753V203.532H63.3873V205.692H60.9753V209.634C60.9753 210.042 61.0773 210.36 61.2813 210.588C61.4973 210.804 61.7973 210.912 62.1813 210.912C62.6253 210.912 63.0033 210.792 63.3153 210.552L64.0713 212.532ZM65.6476 203.316H68.4556V213H65.6476V203.316ZM67.0516 201.966C66.5356 201.966 66.1156 201.816 65.7916 201.516C65.4676 201.216 65.3056 200.844 65.3056 200.4C65.3056 199.956 65.4676 199.584 65.7916 199.284C66.1156 198.984 66.5356 198.834 67.0516 198.834C67.5676 198.834 67.9876 198.978 68.3116 199.266C68.6356 199.554 68.7976 199.914 68.7976 200.346C68.7976 200.814 68.6356 201.204 68.3116 201.516C67.9876 201.816 67.5676 201.966 67.0516 201.966ZM76.9476 203.172C78.1476 203.172 79.1136 203.532 79.8456 204.252C80.5896 204.972 80.9616 206.04 80.9616 207.456V213H78.1536V207.888C78.1536 207.12 77.9856 206.55 77.6496 206.178C77.3136 205.794 76.8276 205.602 76.1916 205.602C75.4836 205.602 74.9196 205.824 74.4996 206.268C74.0796 206.7 73.8696 207.348 73.8696 208.212V213H71.0616V203.316H73.7436V204.45C74.1156 204.042 74.5776 203.73 75.1296 203.514C75.6816 203.286 76.2876 203.172 76.9476 203.172ZM93.6024 203.316V211.38C93.6024 213.156 93.1404 214.476 92.2164 215.34C91.2924 216.204 89.9424 216.636 88.1664 216.636C87.2304 216.636 86.3424 216.522 85.5024 216.294C84.6624 216.066 83.9664 215.736 83.4144 215.304L84.5304 213.288C84.9384 213.624 85.4544 213.888 86.0784 214.08C86.7024 214.284 87.3264 214.386 87.9504 214.386C88.9224 214.386 89.6364 214.164 90.0924 213.72C90.5604 213.288 90.7944 212.628 90.7944 211.74V211.326C90.0624 212.13 89.0424 212.532 87.7344 212.532C86.8464 212.532 86.0304 212.34 85.2864 211.956C84.5544 211.56 83.9724 211.008 83.5404 210.3C83.1084 209.592 82.8924 208.776 82.8924 207.852C82.8924 206.928 83.1084 206.112 83.5404 205.404C83.9724 204.696 84.5544 204.15 85.2864 203.766C86.0304 203.37 86.8464 203.172 87.7344 203.172C89.1384 203.172 90.2064 203.634 90.9384 204.558V203.316H93.6024ZM88.2924 210.228C89.0364 210.228 89.6424 210.012 90.1104 209.58C90.5904 209.136 90.8304 208.56 90.8304 207.852C90.8304 207.144 90.5904 206.574 90.1104 206.142C89.6424 205.698 89.0364 205.476 88.2924 205.476C87.5484 205.476 86.9364 205.698 86.4564 206.142C85.9764 206.574 85.7364 207.144 85.7364 207.852C85.7364 208.56 85.9764 209.136 86.4564 209.58C86.9364 210.012 87.5484 210.228 88.2924 210.228ZM99.4739 213.144C98.6699 213.144 97.8839 213.048 97.1159 212.856C96.3479 212.652 95.7359 212.4 95.2799 212.1L96.2159 210.084C96.6479 210.36 97.1699 210.588 97.7819 210.768C98.3939 210.936 98.9939 211.02 99.5819 211.02C100.77 211.02 101.364 210.726 101.364 210.138C101.364 209.862 101.202 209.664 100.878 209.544C100.554 209.424 100.056 209.322 99.3839 209.238C98.5919 209.118 97.9379 208.98 97.4219 208.824C96.9059 208.668 96.4559 208.392 96.0719 207.996C95.6999 207.6 95.5139 207.036 95.5139 206.304C95.5139 205.692 95.6879 205.152 96.0359 204.684C96.3959 204.204 96.9119 203.832 97.5839 203.568C98.2679 203.304 99.0719 203.172 99.9959 203.172C100.68 203.172 101.358 203.25 102.03 203.406C102.714 203.55 103.278 203.754 103.722 204.018L102.786 206.016C101.934 205.536 101.004 205.296 99.9959 205.296C99.3959 205.296 98.9459 205.38 98.6459 205.548C98.3459 205.716 98.1959 205.932 98.1959 206.196C98.1959 206.496 98.3579 206.706 98.6819 206.826C99.0059 206.946 99.5219 207.06 100.23 207.168C101.022 207.3 101.67 207.444 102.174 207.6C102.678 207.744 103.116 208.014 103.488 208.41C103.86 208.806 104.046 209.358 104.046 210.066C104.046 210.666 103.866 211.2 103.506 211.668C103.146 212.136 102.618 212.502 101.922 212.766C101.238 213.018 100.422 213.144 99.4739 213.144Z" fill="#CA6666"/>
<path fill-rule="evenodd" clip-rule="evenodd" d="M0 576H52.5C66.5833 576 78 564.583 78 550.5C78 536.417 66.5833 525 52.5 525H0V576Z" fill="url(#paint0_linear)"/>
<path d="M59 559L47 551L59 543L59 559Z" fill="white"/>
<g filter="url(#filter0_d)">
<rect x="106" y="525" width="149" height="51" rx="25.5" fill="#CA6666"/>
</g>
<path d="M164.775 557.144C163.827 557.144 162.909 557 162.021 556.712C161.145 556.412 160.455 556.028 159.951 555.56L160.617 554.156C161.097 554.588 161.709 554.942 162.453 555.218C163.209 555.482 163.983 555.614 164.775 555.614C165.819 555.614 166.599 555.44 167.115 555.092C167.631 554.732 167.889 554.258 167.889 553.67C167.889 553.238 167.745 552.89 167.457 552.626C167.181 552.35 166.833 552.14 166.413 551.996C166.005 551.852 165.423 551.69 164.667 551.51C163.719 551.282 162.951 551.054 162.363 550.826C161.787 550.598 161.289 550.25 160.869 549.782C160.461 549.302 160.257 548.66 160.257 547.856C160.257 547.184 160.431 546.578 160.779 546.038C161.139 545.498 161.679 545.066 162.399 544.742C163.119 544.418 164.013 544.256 165.081 544.256C165.825 544.256 166.557 544.352 167.277 544.544C167.997 544.736 168.615 545.012 169.131 545.372L168.537 546.812C168.009 546.476 167.445 546.224 166.845 546.056C166.245 545.876 165.657 545.786 165.081 545.786C164.061 545.786 163.293 545.972 162.777 546.344C162.273 546.716 162.021 547.196 162.021 547.784C162.021 548.216 162.165 548.57 162.453 548.846C162.741 549.11 163.095 549.32 163.515 549.476C163.947 549.62 164.529 549.776 165.261 549.944C166.209 550.172 166.971 550.4 167.547 550.628C168.123 550.856 168.615 551.204 169.023 551.672C169.443 552.14 169.653 552.77 169.653 553.562C169.653 554.222 169.473 554.828 169.113 555.38C168.753 555.92 168.207 556.352 167.475 556.676C166.743 556.988 165.843 557.144 164.775 557.144ZM175.505 547.37C176.825 547.37 177.833 547.694 178.529 548.342C179.237 548.99 179.591 549.956 179.591 551.24V557H177.953V555.74C177.665 556.184 177.251 556.526 176.711 556.766C176.183 556.994 175.553 557.108 174.821 557.108C173.753 557.108 172.895 556.85 172.247 556.334C171.611 555.818 171.293 555.14 171.293 554.3C171.293 553.46 171.599 552.788 172.211 552.284C172.823 551.768 173.795 551.51 175.127 551.51H177.863V551.168C177.863 550.424 177.647 549.854 177.215 549.458C176.783 549.062 176.147 548.864 175.307 548.864C174.743 548.864 174.191 548.96 173.651 549.152C173.111 549.332 172.655 549.578 172.283 549.89L171.563 548.594C172.055 548.198 172.643 547.898 173.327 547.694C174.011 547.478 174.737 547.37 175.505 547.37ZM175.109 555.776C175.769 555.776 176.339 555.632 176.819 555.344C177.299 555.044 177.647 554.624 177.863 554.084V552.752H175.199C173.735 552.752 173.003 553.244 173.003 554.228C173.003 554.708 173.189 555.086 173.561 555.362C173.933 555.638 174.449 555.776 175.109 555.776ZM191.055 547.46L186.879 557H185.115L180.939 547.46H182.739L186.015 555.11L189.363 547.46H191.055ZM201.026 552.284C201.026 552.416 201.014 552.59 200.99 552.806H193.25C193.358 553.646 193.724 554.324 194.348 554.84C194.984 555.344 195.77 555.596 196.706 555.596C197.846 555.596 198.764 555.212 199.46 554.444L200.414 555.56C199.982 556.064 199.442 556.448 198.794 556.712C198.158 556.976 197.444 557.108 196.652 557.108C195.644 557.108 194.75 556.904 193.97 556.496C193.19 556.076 192.584 555.494 192.152 554.75C191.732 554.006 191.522 553.166 191.522 552.23C191.522 551.306 191.726 550.472 192.134 549.728C192.554 548.984 193.124 548.408 193.844 548C194.576 547.58 195.398 547.37 196.31 547.37C197.222 547.37 198.032 547.58 198.74 548C199.46 548.408 200.018 548.984 200.414 549.728C200.822 550.472 201.026 551.324 201.026 552.284ZM196.31 548.828C195.482 548.828 194.786 549.08 194.222 549.584C193.67 550.088 193.346 550.748 193.25 551.564H199.37C199.274 550.76 198.944 550.106 198.38 549.602C197.828 549.086 197.138 548.828 196.31 548.828Z" fill="white"/>
<path d="M41.752 289L38.128 283.84C37.68 283.872 37.328 283.888 37.072 283.888H32.92V289H30.52V272.2H37.072C39.248 272.2 40.96 272.72 42.208 273.76C43.456 274.8 44.08 276.232 44.08 278.056C44.08 279.352 43.76 280.456 43.12 281.368C42.48 282.28 41.568 282.944 40.384 283.36L44.368 289H41.752ZM37 281.848C38.52 281.848 39.68 281.52 40.48 280.864C41.28 280.208 41.68 279.272 41.68 278.056C41.68 276.84 41.28 275.912 40.48 275.272C39.68 274.616 38.52 274.288 37 274.288H32.92V281.848H37ZM53.0695 289.144C51.8055 289.144 50.6695 288.864 49.6615 288.304C48.6535 287.744 47.8615 286.976 47.2855 286C46.7255 285.008 46.4455 283.888 46.4455 282.64C46.4455 281.392 46.7255 280.28 47.2855 279.304C47.8615 278.312 48.6535 277.544 49.6615 277C50.6695 276.44 51.8055 276.16 53.0695 276.16C54.3335 276.16 55.4615 276.44 56.4535 277C57.4615 277.544 58.2455 278.312 58.8055 279.304C59.3815 280.28 59.6695 281.392 59.6695 282.64C59.6695 283.888 59.3815 285.008 58.8055 286C58.2455 286.976 57.4615 287.744 56.4535 288.304C55.4615 288.864 54.3335 289.144 53.0695 289.144ZM53.0695 287.128C53.8855 287.128 54.6135 286.944 55.2535 286.576C55.9095 286.192 56.4215 285.664 56.7895 284.992C57.1575 284.304 57.3415 283.52 57.3415 282.64C57.3415 281.76 57.1575 280.984 56.7895 280.312C56.4215 279.624 55.9095 279.096 55.2535 278.728C54.6135 278.36 53.8855 278.176 53.0695 278.176C52.2535 278.176 51.5175 278.36 50.8615 278.728C50.2215 279.096 49.7095 279.624 49.3255 280.312C48.9575 280.984 48.7735 281.76 48.7735 282.64C48.7735 283.52 48.9575 284.304 49.3255 284.992C49.7095 285.664 50.2215 286.192 50.8615 286.576C51.5175 286.944 52.2535 287.128 53.0695 287.128ZM74.7119 276.28V289H72.5279V287.08C72.0639 287.736 71.4479 288.248 70.6799 288.616C69.9279 288.968 69.1039 289.144 68.2079 289.144C66.5119 289.144 65.1759 288.68 64.1999 287.752C63.2239 286.808 62.7359 285.424 62.7359 283.6V276.28H65.0399V283.336C65.0399 284.568 65.3359 285.504 65.9279 286.144C66.5199 286.768 67.3679 287.08 68.4719 287.08C69.6879 287.08 70.6479 286.712 71.3519 285.976C72.0559 285.24 72.4079 284.2 72.4079 282.856V276.28H74.7119ZM85.8901 276.16C87.5061 276.16 88.7861 276.632 89.7301 277.576C90.6901 278.504 91.1701 279.872 91.1701 281.68V289H88.8661V281.944C88.8661 280.712 88.5701 279.784 87.9781 279.16C87.3861 278.536 86.5381 278.224 85.4341 278.224C84.1861 278.224 83.2021 278.592 82.4821 279.328C81.7621 280.048 81.4021 281.088 81.4021 282.448V289H79.0981V276.28H81.3061V278.2C81.7701 277.544 82.3941 277.04 83.1781 276.688C83.9781 276.336 84.8821 276.16 85.8901 276.16ZM107.504 271.192V289H105.296V286.984C104.784 287.688 104.136 288.224 103.352 288.592C102.568 288.96 101.704 289.144 100.76 289.144C99.5283 289.144 98.4243 288.872 97.4483 288.328C96.4723 287.784 95.7043 287.024 95.1443 286.048C94.6003 285.056 94.3283 283.92 94.3283 282.64C94.3283 281.36 94.6003 280.232 95.1443 279.256C95.7043 278.28 96.4723 277.52 97.4483 276.976C98.4243 276.432 99.5283 276.16 100.76 276.16C101.672 276.16 102.512 276.336 103.28 276.688C104.048 277.024 104.688 277.528 105.2 278.2V271.192H107.504ZM100.952 287.128C101.752 287.128 102.48 286.944 103.136 286.576C103.792 286.192 104.304 285.664 104.672 284.992C105.04 284.304 105.224 283.52 105.224 282.64C105.224 281.76 105.04 280.984 104.672 280.312C104.304 279.624 103.792 279.096 103.136 278.728C102.48 278.36 101.752 278.176 100.952 278.176C100.136 278.176 99.4003 278.36 98.7443 278.728C98.1043 279.096 97.5923 279.624 97.2083 280.312C96.8403 280.984 96.6563 281.76 96.6563 282.64C96.6563 283.52 96.8403 284.304 97.2083 284.992C97.5923 285.664 98.1043 286.192 98.7443 286.576C99.4003 286.944 100.136 287.128 100.952 287.128ZM118.645 272.2H125.725C127.501 272.2 129.077 272.552 130.453 273.256C131.829 273.96 132.893 274.952 133.645 276.232C134.413 277.496 134.797 278.952 134.797 280.6C134.797 282.248 134.413 283.712 133.645 284.992C132.893 286.256 131.829 287.24 130.453 287.944C129.077 288.648 127.501 289 125.725 289H118.645V272.2ZM125.581 286.912C126.941 286.912 128.133 286.648 129.157 286.12C130.197 285.592 130.997 284.856 131.557 283.912C132.117 282.952 132.397 281.848 132.397 280.6C132.397 279.352 132.117 278.256 131.557 277.312C130.997 276.352 130.197 275.608 129.157 275.08C128.133 274.552 126.941 274.288 125.581 274.288H121.045V286.912H125.581ZM149.993 276.28V289H147.809V287.08C147.345 287.736 146.729 288.248 145.961 288.616C145.209 288.968 144.385 289.144 143.489 289.144C141.793 289.144 140.457 288.68 139.481 287.752C138.505 286.808 138.017 285.424 138.017 283.6V276.28H140.321V283.336C140.321 284.568 140.617 285.504 141.209 286.144C141.801 286.768 142.649 287.08 143.753 287.08C144.969 287.08 145.929 286.712 146.633 285.976C147.337 285.24 147.689 284.2 147.689 282.856V276.28H149.993ZM156.587 278.416C156.987 277.68 157.579 277.12 158.363 276.736C159.147 276.352 160.099 276.16 161.219 276.16V278.392C161.091 278.376 160.915 278.368 160.691 278.368C159.443 278.368 158.459 278.744 157.739 279.496C157.035 280.232 156.683 281.288 156.683 282.664V289H154.379V276.28H156.587V278.416ZM168.668 276.16C170.428 276.16 171.772 276.592 172.7 277.456C173.644 278.32 174.116 279.608 174.116 281.32V289H171.932V287.32C171.548 287.912 170.996 288.368 170.276 288.688C169.572 288.992 168.732 289.144 167.756 289.144C166.332 289.144 165.188 288.8 164.324 288.112C163.476 287.424 163.052 286.52 163.052 285.4C163.052 284.28 163.46 283.384 164.276 282.712C165.092 282.024 166.388 281.68 168.164 281.68H171.812V281.224C171.812 280.232 171.524 279.472 170.948 278.944C170.372 278.416 169.524 278.152 168.404 278.152C167.652 278.152 166.916 278.28 166.196 278.536C165.476 278.776 164.868 279.104 164.372 279.52L163.412 277.792C164.068 277.264 164.852 276.864 165.764 276.592C166.676 276.304 167.644 276.16 168.668 276.16ZM168.14 287.368C169.02 287.368 169.78 287.176 170.42 286.792C171.06 286.392 171.524 285.832 171.812 285.112V283.336H168.26C166.308 283.336 165.332 283.992 165.332 285.304C165.332 285.944 165.58 286.448 166.076 286.816C166.572 287.184 167.26 287.368 168.14 287.368ZM185.531 288.256C185.195 288.544 184.779 288.768 184.283 288.928C183.787 289.072 183.275 289.144 182.747 289.144C181.467 289.144 180.475 288.8 179.771 288.112C179.067 287.424 178.715 286.44 178.715 285.16V278.176H176.555V276.28H178.715V273.496H181.019V276.28H184.667V278.176H181.019V285.064C181.019 285.752 181.187 286.28 181.523 286.648C181.875 287.016 182.371 287.2 183.011 287.2C183.715 287.2 184.315 287 184.811 286.6L185.531 288.256ZM188.317 276.28H190.621V289H188.317V276.28ZM189.469 273.832C189.021 273.832 188.645 273.688 188.341 273.4C188.053 273.112 187.909 272.76 187.909 272.344C187.909 271.928 188.053 271.576 188.341 271.288C188.645 270.984 189.021 270.832 189.469 270.832C189.917 270.832 190.285 270.976 190.573 271.264C190.877 271.536 191.029 271.88 191.029 272.296C191.029 272.728 190.877 273.096 190.573 273.4C190.285 273.688 189.917 273.832 189.469 273.832ZM200.468 289.144C199.204 289.144 198.068 288.864 197.06 288.304C196.052 287.744 195.26 286.976 194.684 286C194.124 285.008 193.844 283.888 193.844 282.64C193.844 281.392 194.124 280.28 194.684 279.304C195.26 278.312 196.052 277.544 197.06 277C198.068 276.44 199.204 276.16 200.468 276.16C201.732 276.16 202.86 276.44 203.852 277C204.86 277.544 205.644 278.312 206.204 279.304C206.78 280.28 207.068 281.392 207.068 282.64C207.068 283.888 206.78 285.008 206.204 286C205.644 286.976 204.86 287.744 203.852 288.304C202.86 288.864 201.732 289.144 200.468 289.144ZM200.468 287.128C201.284 287.128 202.012 286.944 202.652 286.576C203.308 286.192 203.82 285.664 204.188 284.992C204.556 284.304 204.74 283.52 204.74 282.64C204.74 281.76 204.556 280.984 204.188 280.312C203.82 279.624 203.308 279.096 202.652 278.728C202.012 278.36 201.284 278.176 200.468 278.176C199.652 278.176 198.916 278.36 198.26 278.728C197.62 279.096 197.108 279.624 196.724 280.312C196.356 280.984 196.172 281.76 196.172 282.64C196.172 283.52 196.356 284.304 196.724 284.992C197.108 285.664 197.62 286.192 198.26 286.576C198.916 286.944 199.652 287.128 200.468 287.128ZM217.046 276.16C218.662 276.16 219.942 276.632 220.886 277.576C221.846 278.504 222.326 279.872 222.326 281.68V289H220.022V281.944C220.022 280.712 219.726 279.784 219.134 279.16C218.542 278.536 217.694 278.224 216.59 278.224C215.342 278.224 214.358 278.592 213.638 279.328C212.918 280.048 212.558 281.088 212.558 282.448V289H210.254V276.28H212.462V278.2C212.926 277.544 213.55 277.04 214.334 276.688C215.134 276.336 216.038 276.16 217.046 276.16Z" fill="#CA6666"/>
<g filter="url(#filter1_d)">
<rect x="288.735" y="251.891" width="33.8909" height="33.8909" rx="16.9455" transform="rotate(-180 288.735 251.891)" fill="#CA6666"/>
</g>
<path d="M264.635 240.594L272.166 228.544L279.698 240.594L264.635 240.594Z" fill="white"/>
<g filter="url(#filter2_d)">
<rect x="254.844" y="310.891" width="33.8909" height="33.8909" rx="16.9455" fill="#CA6666"/>
</g>
<path d="M278.944 322.188L271.413 334.238L263.882 322.188L278.944 322.188Z" fill="white"/>
<rect x="247.5" y="264.5" width="48" height="33" rx="4.5" fill="white" stroke="#CA6666"/>
<path d="M263.508 290.192C262.18 290.192 260.996 289.856 259.956 289.184C258.932 288.496 258.124 287.504 257.532 286.208C256.94 284.912 256.644 283.376 256.644 281.6C256.644 279.824 256.94 278.288 257.532 276.992C258.124 275.696 258.932 274.712 259.956 274.04C260.996 273.352 262.18 273.008 263.508 273.008C264.82 273.008 265.988 273.352 267.012 274.04C268.052 274.712 268.868 275.696 269.46 276.992C270.052 278.288 270.348 279.824 270.348 281.6C270.348 283.376 270.052 284.912 269.46 286.208C268.868 287.504 268.052 288.496 267.012 289.184C265.988 289.856 264.82 290.192 263.508 290.192ZM263.508 288.056C264.852 288.056 265.924 287.504 266.724 286.4C267.54 285.296 267.948 283.696 267.948 281.6C267.948 279.504 267.54 277.904 266.724 276.8C265.924 275.696 264.852 275.144 263.508 275.144C262.148 275.144 261.06 275.696 260.244 276.8C259.444 277.904 259.044 279.504 259.044 281.6C259.044 283.696 259.444 285.296 260.244 286.4C261.06 287.504 262.148 288.056 263.508 288.056ZM279.516 290.192C278.188 290.192 277.004 289.856 275.964 289.184C274.94 288.496 274.132 287.504 273.54 286.208C272.948 284.912 272.652 283.376 272.652 281.6C272.652 279.824 272.948 278.288 273.54 276.992C274.132 275.696 274.94 274.712 275.964 274.04C277.004 273.352 278.188 273.008 279.516 273.008C280.828 273.008 281.996 273.352 283.02 274.04C284.06 274.712 284.876 275.696 285.468 276.992C286.06 278.288 286.356 279.824 286.356 281.6C286.356 283.376 286.06 284.912 285.468 286.208C284.876 287.504 284.06 288.496 283.02 289.184C281.996 289.856 280.828 290.192 279.516 290.192ZM279.516 288.056C280.86 288.056 281.932 287.504 282.732 286.4C283.548 285.296 283.956 283.696 283.956 281.6C283.956 279.504 283.548 277.904 282.732 276.8C281.932 275.696 280.86 275.144 279.516 275.144C278.156 275.144 277.068 275.696 276.252 276.8C275.452 277.904 275.052 279.504 275.052 281.6C275.052 283.696 275.452 285.296 276.252 286.4C277.068 287.504 278.156 288.056 279.516 288.056Z" fill="#CA6666"/>
<path d="M309.948 288.58C310.748 288.58 311.38 288.812 311.844 289.276C312.316 289.74 312.552 290.428 312.552 291.34V295H311.4V291.472C311.4 290.856 311.256 290.392 310.968 290.08C310.688 289.768 310.284 289.612 309.756 289.612C309.172 289.612 308.708 289.796 308.364 290.164C308.02 290.524 307.848 291.044 307.848 291.724V295H306.696V291.472C306.696 290.856 306.552 290.392 306.264 290.08C305.984 289.768 305.58 289.612 305.052 289.612C304.468 289.612 304.004 289.796 303.66 290.164C303.316 290.524 303.144 291.044 303.144 291.724V295H301.992V288.64H303.096V289.588C303.328 289.26 303.632 289.012 304.008 288.844C304.384 288.668 304.812 288.58 305.292 288.58C305.788 288.58 306.228 288.68 306.612 288.88C306.996 289.08 307.292 289.372 307.5 289.756C307.74 289.388 308.072 289.1 308.496 288.892C308.928 288.684 309.412 288.58 309.948 288.58ZM314.672 288.64H315.824V295H314.672V288.64ZM315.248 287.416C315.024 287.416 314.836 287.344 314.684 287.2C314.54 287.056 314.468 286.88 314.468 286.672C314.468 286.464 314.54 286.288 314.684 286.144C314.836 285.992 315.024 285.916 315.248 285.916C315.472 285.916 315.656 285.988 315.8 286.132C315.952 286.268 316.028 286.44 316.028 286.648C316.028 286.864 315.952 287.048 315.8 287.2C315.656 287.344 315.472 287.416 315.248 287.416ZM321.42 288.58C322.228 288.58 322.868 288.816 323.34 289.288C323.82 289.752 324.06 290.436 324.06 291.34V295H322.908V291.472C322.908 290.856 322.76 290.392 322.464 290.08C322.168 289.768 321.744 289.612 321.192 289.612C320.568 289.612 320.076 289.796 319.716 290.164C319.356 290.524 319.176 291.044 319.176 291.724V295H318.024V288.64H319.128V289.6C319.36 289.272 319.672 289.02 320.064 288.844C320.464 288.668 320.916 288.58 321.42 288.58Z" fill="#CA6666"/>
<path d="M41.824 439.288C42.8 439.56 43.568 440.056 44.128 440.776C44.688 441.48 44.968 442.376 44.968 443.464C44.968 444.92 44.416 446.04 43.312 446.824C42.224 447.608 40.632 448 38.536 448H30.52V431.2H38.056C39.976 431.2 41.456 431.584 42.496 432.352C43.552 433.12 44.08 434.184 44.08 435.544C44.08 436.424 43.872 437.184 43.456 437.824C43.056 438.464 42.512 438.952 41.824 439.288ZM32.92 433.144V438.52H37.84C39.072 438.52 40.016 438.296 40.672 437.848C41.344 437.384 41.68 436.712 41.68 435.832C41.68 434.952 41.344 434.288 40.672 433.84C40.016 433.376 39.072 433.144 37.84 433.144H32.92ZM38.44 446.056C39.8 446.056 40.824 445.832 41.512 445.384C42.2 444.936 42.544 444.232 42.544 443.272C42.544 441.4 41.176 440.464 38.44 440.464H32.92V446.056H38.44ZM50.5561 437.416C50.9561 436.68 51.5481 436.12 52.3321 435.736C53.1161 435.352 54.0681 435.16 55.1881 435.16V437.392C55.0601 437.376 54.8841 437.368 54.6601 437.368C53.4121 437.368 52.4281 437.744 51.7081 438.496C51.0041 439.232 50.6521 440.288 50.6521 441.664V448H48.3481V435.28H50.5561V437.416ZM69.4066 441.712C69.4066 441.888 69.3906 442.12 69.3586 442.408H59.0386C59.1826 443.528 59.6706 444.432 60.5026 445.12C61.3506 445.792 62.3986 446.128 63.6466 446.128C65.1666 446.128 66.3906 445.616 67.3186 444.592L68.5906 446.08C68.0146 446.752 67.2946 447.264 66.4306 447.616C65.5826 447.968 64.6306 448.144 63.5746 448.144C62.2306 448.144 61.0386 447.872 59.9986 447.328C58.9586 446.768 58.1506 445.992 57.5746 445C57.0146 444.008 56.7346 442.888 56.7346 441.64C56.7346 440.408 57.0066 439.296 57.5506 438.304C58.1106 437.312 58.8706 436.544 59.8306 436C60.8066 435.44 61.9026 435.16 63.1186 435.16C64.3346 435.16 65.4146 435.44 66.3586 436C67.3186 436.544 68.0626 437.312 68.5906 438.304C69.1346 439.296 69.4066 440.432 69.4066 441.712ZM63.1186 437.104C62.0146 437.104 61.0866 437.44 60.3346 438.112C59.5986 438.784 59.1666 439.664 59.0386 440.752H67.1986C67.0706 439.68 66.6306 438.808 65.8786 438.136C65.1426 437.448 64.2226 437.104 63.1186 437.104ZM76.8863 435.16C78.6463 435.16 79.9903 435.592 80.9183 436.456C81.8623 437.32 82.3343 438.608 82.3343 440.32V448H80.1503V446.32C79.7663 446.912 79.2143 447.368 78.4943 447.688C77.7903 447.992 76.9503 448.144 75.9743 448.144C74.5503 448.144 73.4063 447.8 72.5423 447.112C71.6943 446.424 71.2703 445.52 71.2703 444.4C71.2703 443.28 71.6783 442.384 72.4943 441.712C73.3103 441.024 74.6063 440.68 76.3823 440.68H80.0303V440.224C80.0303 439.232 79.7423 438.472 79.1663 437.944C78.5903 437.416 77.7423 437.152 76.6223 437.152C75.8703 437.152 75.1343 437.28 74.4143 437.536C73.6943 437.776 73.0863 438.104 72.5903 438.52L71.6303 436.792C72.2863 436.264 73.0703 435.864 73.9823 435.592C74.8943 435.304 75.8623 435.16 76.8863 435.16ZM76.3583 446.368C77.2383 446.368 77.9983 446.176 78.6383 445.792C79.2783 445.392 79.7423 444.832 80.0303 444.112V442.336H76.4783C74.5263 442.336 73.5503 442.992 73.5503 444.304C73.5503 444.944 73.7983 445.448 74.2943 445.816C74.7903 446.184 75.4783 446.368 76.3583 446.368ZM91.5421 442.072L88.9021 444.52V448H86.5981V430.192H88.9021V441.616L95.8381 435.28H98.6221L93.2701 440.536L99.1501 448H96.3181L91.5421 442.072ZM108.168 431.2H115.248C117.024 431.2 118.6 431.552 119.976 432.256C121.352 432.96 122.416 433.952 123.168 435.232C123.936 436.496 124.32 437.952 124.32 439.6C124.32 441.248 123.936 442.712 123.168 443.992C122.416 445.256 121.352 446.24 119.976 446.944C118.6 447.648 117.024 448 115.248 448H108.168V431.2ZM115.104 445.912C116.464 445.912 117.656 445.648 118.68 445.12C119.72 444.592 120.52 443.856 121.08 442.912C121.64 441.952 121.92 440.848 121.92 439.6C121.92 438.352 121.64 437.256 121.08 436.312C120.52 435.352 119.72 434.608 118.68 434.08C117.656 433.552 116.464 433.288 115.104 433.288H110.568V445.912H115.104ZM139.517 435.28V448H137.333V446.08C136.869 446.736 136.253 447.248 135.485 447.616C134.733 447.968 133.909 448.144 133.013 448.144C131.317 448.144 129.981 447.68 129.005 446.752C128.029 445.808 127.541 444.424 127.541 442.6V435.28H129.845V442.336C129.845 443.568 130.141 444.504 130.733 445.144C131.325 445.768 132.173 446.08 133.277 446.08C134.493 446.08 135.453 445.712 136.157 444.976C136.861 444.24 137.213 443.2 137.213 441.856V435.28H139.517ZM146.111 437.416C146.511 436.68 147.103 436.12 147.887 435.736C148.671 435.352 149.623 435.16 150.743 435.16V437.392C150.615 437.376 150.439 437.368 150.215 437.368C148.967 437.368 147.983 437.744 147.263 438.496C146.559 439.232 146.207 440.288 146.207 441.664V448H143.903V435.28H146.111V437.416ZM158.191 435.16C159.951 435.16 161.295 435.592 162.223 436.456C163.167 437.32 163.639 438.608 163.639 440.32V448H161.455V446.32C161.071 446.912 160.519 447.368 159.799 447.688C159.095 447.992 158.255 448.144 157.279 448.144C155.855 448.144 154.711 447.8 153.847 447.112C152.999 446.424 152.575 445.52 152.575 444.4C152.575 443.28 152.983 442.384 153.799 441.712C154.615 441.024 155.911 440.68 157.687 440.68H161.335V440.224C161.335 439.232 161.047 438.472 160.471 437.944C159.895 437.416 159.047 437.152 157.927 437.152C157.175 437.152 156.439 437.28 155.719 437.536C154.999 437.776 154.391 438.104 153.895 438.52L152.935 436.792C153.591 436.264 154.375 435.864 155.287 435.592C156.199 435.304 157.167 435.16 158.191 435.16ZM157.663 446.368C158.543 446.368 159.303 446.176 159.943 445.792C160.583 445.392 161.047 444.832 161.335 444.112V442.336H157.783C155.831 442.336 154.855 442.992 154.855 444.304C154.855 444.944 155.103 445.448 155.599 445.816C156.095 446.184 156.783 446.368 157.663 446.368ZM175.055 447.256C174.719 447.544 174.303 447.768 173.807 447.928C173.311 448.072 172.799 448.144 172.271 448.144C170.991 448.144 169.999 447.8 169.295 447.112C168.591 446.424 168.239 445.44 168.239 444.16V437.176H166.079V435.28H168.239V432.496H170.543V435.28H174.191V437.176H170.543V444.064C170.543 444.752 170.711 445.28 171.047 445.648C171.399 446.016 171.895 446.2 172.535 446.2C173.239 446.2 173.839 446 174.335 445.6L175.055 447.256ZM177.84 435.28H180.144V448H177.84V435.28ZM178.992 432.832C178.544 432.832 178.168 432.688 177.864 432.4C177.576 432.112 177.432 431.76 177.432 431.344C177.432 430.928 177.576 430.576 177.864 430.288C178.168 429.984 178.544 429.832 178.992 429.832C179.44 429.832 179.808 429.976 180.096 430.264C180.4 430.536 180.552 430.88 180.552 431.296C180.552 431.728 180.4 432.096 180.096 432.4C179.808 432.688 179.44 432.832 178.992 432.832ZM189.991 448.144C188.727 448.144 187.591 447.864 186.583 447.304C185.575 446.744 184.783 445.976 184.207 445C183.647 444.008 183.367 442.888 183.367 441.64C183.367 440.392 183.647 439.28 184.207 438.304C184.783 437.312 185.575 436.544 186.583 436C187.591 435.44 188.727 435.16 189.991 435.16C191.255 435.16 192.383 435.44 193.375 436C194.383 436.544 195.167 437.312 195.727 438.304C196.303 439.28 196.591 440.392 196.591 441.64C196.591 442.888 196.303 444.008 195.727 445C195.167 445.976 194.383 446.744 193.375 447.304C192.383 447.864 191.255 448.144 189.991 448.144ZM189.991 446.128C190.807 446.128 191.535 445.944 192.175 445.576C192.831 445.192 193.343 444.664 193.711 443.992C194.079 443.304 194.263 442.52 194.263 441.64C194.263 440.76 194.079 439.984 193.711 439.312C193.343 438.624 192.831 438.096 192.175 437.728C191.535 437.36 190.807 437.176 189.991 437.176C189.175 437.176 188.439 437.36 187.783 437.728C187.143 438.096 186.631 438.624 186.247 439.312C185.879 439.984 185.695 440.76 185.695 441.64C185.695 442.52 185.879 443.304 186.247 443.992C186.631 444.664 187.143 445.192 187.783 445.576C188.439 445.944 189.175 446.128 189.991 446.128ZM206.57 435.16C208.186 435.16 209.466 435.632 210.41 436.576C211.37 437.504 211.85 438.872 211.85 440.68V448H209.546V440.944C209.546 439.712 209.25 438.784 208.658 438.16C208.066 437.536 207.218 437.224 206.114 437.224C204.866 437.224 203.882 437.592 203.162 438.328C202.442 439.048 202.082 440.088 202.082 441.448V448H199.778V435.28H201.986V437.2C202.45 436.544 203.074 436.04 203.858 435.688C204.658 435.336 205.562 435.16 206.57 435.16Z" fill="#CA6666"/>
<g filter="url(#filter3_d)">
<rect x="288.735" y="410.891" width="33.8909" height="33.8909" rx="16.9455" transform="rotate(-180 288.735 410.891)" fill="#CA6666"/>
</g>
<path d="M264.635 399.594L272.166 387.544L279.698 399.594L264.635 399.594Z" fill="white"/>
<g filter="url(#filter4_d)">
<rect x="254.844" y="469.891" width="33.8909" height="33.8909" rx="16.9455" fill="#CA6666"/>
</g>
<path d="M278.944 481.188L271.413 493.238L263.882 481.188L278.944 481.188Z" fill="white"/>
<rect x="247.5" y="423.5" width="48" height="33" rx="4.5" fill="white" stroke="#CA6666"/>
<path d="M263.508 449.192C262.18 449.192 260.996 448.856 259.956 448.184C258.932 447.496 258.124 446.504 257.532 445.208C256.94 443.912 256.644 442.376 256.644 440.6C256.644 438.824 256.94 437.288 257.532 435.992C258.124 434.696 258.932 433.712 259.956 433.04C260.996 432.352 262.18 432.008 263.508 432.008C264.82 432.008 265.988 432.352 267.012 433.04C268.052 433.712 268.868 434.696 269.46 435.992C270.052 437.288 270.348 438.824 270.348 440.6C270.348 442.376 270.052 443.912 269.46 445.208C268.868 446.504 268.052 447.496 267.012 448.184C265.988 448.856 264.82 449.192 263.508 449.192ZM263.508 447.056C264.852 447.056 265.924 446.504 266.724 445.4C267.54 444.296 267.948 442.696 267.948 440.6C267.948 438.504 267.54 436.904 266.724 435.8C265.924 434.696 264.852 434.144 263.508 434.144C262.148 434.144 261.06 434.696 260.244 435.8C259.444 436.904 259.044 438.504 259.044 440.6C259.044 442.696 259.444 444.296 260.244 445.4C261.06 446.504 262.148 447.056 263.508 447.056ZM279.516 449.192C278.188 449.192 277.004 448.856 275.964 448.184C274.94 447.496 274.132 446.504 273.54 445.208C272.948 443.912 272.652 442.376 272.652 440.6C272.652 438.824 272.948 437.288 273.54 435.992C274.132 434.696 274.94 433.712 275.964 433.04C277.004 432.352 278.188 432.008 279.516 432.008C280.828 432.008 281.996 432.352 283.02 433.04C284.06 433.712 284.876 434.696 285.468 435.992C286.06 437.288 286.356 438.824 286.356 440.6C286.356 442.376 286.06 443.912 285.468 445.208C284.876 446.504 284.06 447.496 283.02 448.184C281.996 448.856 280.828 449.192 279.516 449.192ZM279.516 447.056C280.86 447.056 281.932 446.504 282.732 445.4C283.548 444.296 283.956 442.696 283.956 440.6C283.956 438.504 283.548 436.904 282.732 435.8C281.932 434.696 280.86 434.144 279.516 434.144C278.156 434.144 277.068 434.696 276.252 435.8C275.452 436.904 275.052 438.504 275.052 440.6C275.052 442.696 275.452 444.296 276.252 445.4C277.068 446.504 278.156 447.056 279.516 447.056Z" fill="#CA6666"/>
<path d="M309.948 447.58C310.748 447.58 311.38 447.812 311.844 448.276C312.316 448.74 312.552 449.428 312.552 450.34V454H311.4V450.472C311.4 449.856 311.256 449.392 310.968 449.08C310.688 448.768 310.284 448.612 309.756 448.612C309.172 448.612 308.708 448.796 308.364 449.164C308.02 449.524 307.848 450.044 307.848 450.724V454H306.696V450.472C306.696 449.856 306.552 449.392 306.264 449.08C305.984 448.768 305.58 448.612 305.052 448.612C304.468 448.612 304.004 448.796 303.66 449.164C303.316 449.524 303.144 450.044 303.144 450.724V454H301.992V447.64H303.096V448.588C303.328 448.26 303.632 448.012 304.008 447.844C304.384 447.668 304.812 447.58 305.292 447.58C305.788 447.58 306.228 447.68 306.612 447.88C306.996 448.08 307.292 448.372 307.5 448.756C307.74 448.388 308.072 448.1 308.496 447.892C308.928 447.684 309.412 447.58 309.948 447.58ZM314.672 447.64H315.824V454H314.672V447.64ZM315.248 446.416C315.024 446.416 314.836 446.344 314.684 446.2C314.54 446.056 314.468 445.88 314.468 445.672C314.468 445.464 314.54 445.288 314.684 445.144C314.836 444.992 315.024 444.916 315.248 444.916C315.472 444.916 315.656 444.988 315.8 445.132C315.952 445.268 316.028 445.44 316.028 445.648C316.028 445.864 315.952 446.048 315.8 446.2C315.656 446.344 315.472 446.416 315.248 446.416ZM321.42 447.58C322.228 447.58 322.868 447.816 323.34 448.288C323.82 448.752 324.06 449.436 324.06 450.34V454H322.908V450.472C322.908 449.856 322.76 449.392 322.464 449.08C322.168 448.768 321.744 448.612 321.192 448.612C320.568 448.612 320.076 448.796 319.716 449.164C319.356 449.524 319.176 450.044 319.176 450.724V454H318.024V447.64H319.128V448.6C319.36 448.272 319.672 448.02 320.064 447.844C320.464 447.668 320.916 447.58 321.42 447.58Z" fill="#CA6666"/>
<defs>
<filter id="filter0_d" x="86" y="515" width="189" height="91" filterUnits="userSpaceOnUse" color-interpolation-filters="sRGB">
<feFlood flood-opacity="0" result="BackgroundImageFix"/>
<feColorMatrix in="SourceAlpha" type="matrix" values="0 0 0 0 0 0 0 0 0 0 0 0 0 0 0 0 0 0 127 0"/>
<feOffset dy="10"/>
<feGaussianBlur stdDeviation="10"/>
<feColorMatrix type="matrix" values="0 0 0 0 0 0 0 0 0 0 0 0 0 0 0 0 0 0 0.08 0"/>
<feBlend mode="normal" in2="BackgroundImageFix" result="effect1_dropShadow"/>
<feBlend mode="normal" in="SourceGraphic" in2="effect1_dropShadow" result="shape"/>
</filter>
<filter id="filter1_d" x="249.844" y="215" width="43.8909" height="43.8909" filterUnits="userSpaceOnUse" color-interpolation-filters="sRGB">
<feFlood flood-opacity="0" result="BackgroundImageFix"/>
<feColorMatrix in="SourceAlpha" type="matrix" values="0 0 0 0 0 0 0 0 0 0 0 0 0 0 0 0 0 0 127 0"/>
<feOffset dy="2"/>
<feGaussianBlur stdDeviation="2.5"/>
<feColorMatrix type="matrix" values="0 0 0 0 0 0 0 0 0 0 0 0 0 0 0 0 0 0 0.2 0"/>
<feBlend mode="normal" in2="BackgroundImageFix" result="effect1_dropShadow"/>
<feBlend mode="normal" in="SourceGraphic" in2="effect1_dropShadow" result="shape"/>
</filter>
<filter id="filter2_d" x="249.844" y="307.891" width="43.8909" height="43.8909" filterUnits="userSpaceOnUse" color-interpolation-filters="sRGB">
<feFlood flood-opacity="0" result="BackgroundImageFix"/>
<feColorMatrix in="SourceAlpha" type="matrix" values="0 0 0 0 0 0 0 0 0 0 0 0 0 0 0 0 0 0 127 0"/>
<feOffset dy="2"/>
<feGaussianBlur stdDeviation="2.5"/>
<feColorMatrix type="matrix" values="0 0 0 0 0 0 0 0 0 0 0 0 0 0 0 0 0 0 0.2 0"/>
<feBlend mode="normal" in2="BackgroundImageFix" result="effect1_dropShadow"/>
<feBlend mode="normal" in="SourceGraphic" in2="effect1_dropShadow" result="shape"/>
</filter>
<filter id="filter3_d" x="249.844" y="374" width="43.8909" height="43.8909" filterUnits="userSpaceOnUse" color-interpolation-filters="sRGB">
<feFlood flood-opacity="0" result="BackgroundImageFix"/>
<feColorMatrix in="SourceAlpha" type="matrix" values="0 0 0 0 0 0 0 0 0 0 0 0 0 0 0 0 0 0 127 0"/>
<feOffset dy="2"/>
<feGaussianBlur stdDeviation="2.5"/>
<feColorMatrix type="matrix" values="0 0 0 0 0 0 0 0 0 0 0 0 0 0 0 0 0 0 0.2 0"/>
<feBlend mode="normal" in2="BackgroundImageFix" result="effect1_dropShadow"/>
<feBlend mode="normal" in="SourceGraphic" in2="effect1_dropShadow" result="shape"/>
</filter>
<filter id="filter4_d" x="249.844" y="466.891" width="43.8909" height="43.8909" filterUnits="userSpaceOnUse" color-interpolation-filters="sRGB">
<feFlood flood-opacity="0" result="BackgroundImageFix"/>
<feColorMatrix in="SourceAlpha" type="matrix" values="0 0 0 0 0 0 0 0 0 0 0 0 0 0 0 0 0 0 127 0"/>
<feOffset dy="2"/>
<feGaussianBlur stdDeviation="2.5"/>
<feColorMatrix type="matrix" values="0 0 0 0 0 0 0 0 0 0 0 0 0 0 0 0 0 0 0.2 0"/>
<feBlend mode="normal" in2="BackgroundImageFix" result="effect1_dropShadow"/>
<feBlend mode="normal" in="SourceGraphic" in2="effect1_dropShadow" result="shape"/>
</filter>
<linearGradient id="paint0_linear" x1="0" y1="525" x2="78" y2="525" gradientUnits="userSpaceOnUse">
<stop stop-color="#A84646"/>
<stop offset="0.640884" stop-color="#CA6666"/>
</linearGradient>
</defs>
</svg>
