<svg width="360" height="640" viewBox="0 0 360 640" fill="none" xmlns="http://www.w3.org/2000/svg">
<g clip-path="url(#clip0)">
<rect width="360" height="640" fill="white"/>
<path d="M98.1914 75.2637C97.9688 75.2402 97.7988 75.1406 97.6816 74.9648C97.5645 74.7891 97.5176 74.5957 97.541 74.3848C97.5996 74.0215 97.7109 73.6875 97.875 73.3828C98.0391 73.0781 98.1562 72.8496 98.2266 72.6973C98.3086 72.5449 98.3906 72.375 98.4727 72.1875L99.1406 70.6406L106.365 49.002L114.135 64.0137L121.676 49.002L130.693 75H121.254L116.895 61.5703L110.145 75.6328L103.043 62.9766L100.582 70.6582C100.195 71.5137 99.9199 72.2402 99.7559 72.8379C99.5918 73.4355 99.457 73.8984 99.3516 74.2266C99.1172 74.9648 98.7305 75.3105 98.1914 75.2637ZM136.828 71.8359C135.668 70.6992 134.742 69.3281 134.051 67.7227C133.371 66.1055 133.031 64.3477 133.031 62.4492C133.031 60.5391 133.354 58.8281 133.998 57.3164C134.654 55.793 135.557 54.4746 136.705 53.3613C139.166 50.9941 142.254 49.8105 145.969 49.8105C149.66 49.8105 152.684 50.9766 155.039 53.3086C157.43 55.6758 158.625 58.7461 158.625 62.5195C158.625 66.2812 157.4 69.375 154.951 71.8008C153.416 73.3008 151.529 74.3379 149.291 74.9121C148.178 75.1934 146.883 75.334 145.406 75.334C143.941 75.334 142.436 75.0352 140.889 74.4375C139.342 73.8281 137.988 72.9609 136.828 71.8359ZM145.951 51.0938C145.307 51.0938 144.703 51.1406 144.141 51.2344V73.9102C144.68 74.0039 145.283 74.0508 145.951 74.0508C149.08 74.0508 151.717 73.0078 153.861 70.9219C156.1 68.7539 157.219 65.9531 157.219 62.5195C157.219 59.25 156.17 56.5312 154.072 54.3633C151.951 52.1836 149.244 51.0938 145.951 51.0938ZM163.652 50.127H170.965C174.375 50.127 176.877 50.3672 178.471 50.8477C180.287 51.4102 181.688 52.1309 182.672 53.0098C183.668 53.8887 184.447 54.7969 185.01 55.7344C186.158 57.6445 186.732 59.8125 186.732 62.2383C186.732 66.0586 185.361 69.1523 182.619 71.5195C180.674 73.2188 178.383 74.2676 175.746 74.666C174.281 74.8887 172.23 75 169.594 75H163.652V50.127ZM172.617 73.541C172.805 73.5527 172.975 73.5586 173.127 73.5586H173.531C176.707 73.5586 179.42 72.5684 181.67 70.5879C184.049 68.502 185.238 65.7305 185.238 62.2734C185.238 60.0938 184.717 58.1309 183.674 56.3848C182.162 53.8418 179.771 52.3008 176.502 51.7617C175.436 51.5859 174.141 51.4863 172.617 51.4629V73.541ZM206.807 73.4883C207.404 73.4883 207.703 73.7227 207.703 74.1914C207.703 74.4023 207.574 74.5898 207.316 74.7539C207.059 74.918 206.613 75 205.98 75H191.092V50.127C195.709 50.127 200.326 50.127 204.943 50.127L206.385 50.0742C207.264 50.0742 207.703 50.332 207.703 50.8477C207.703 51.0469 207.627 51.2344 207.475 51.4102C207.334 51.5742 207.17 51.6562 206.982 51.6562C206.678 51.6562 206.355 51.6211 206.016 51.5508C205.512 51.4453 204.82 51.3926 203.941 51.3926H200.057V56.7539H203.256C203.256 56.7539 203.977 56.7246 205.418 56.666C205.676 56.666 205.893 56.7305 206.068 56.8594C206.256 56.9766 206.35 57.1465 206.35 57.3691C206.35 57.8613 206.021 58.1074 205.365 58.1074L204.609 58.0898C204.223 58.0547 203.9 58.0371 203.643 58.0371H200.057V73.7168H203.941C204.809 73.7168 205.424 73.6816 205.787 73.6113C206.221 73.5293 206.561 73.4883 206.807 73.4883ZM224.262 66.4746L225.703 66.5801C227.766 66.5801 229.518 65.8594 230.959 64.418C232.4 62.9766 233.121 61.1836 233.121 59.0391C233.121 56.2266 231.885 54.1406 229.412 52.7812C228.053 52.0312 226.6 51.5977 225.053 51.4805C224.396 51.4219 223.787 51.3926 223.225 51.3926H222.029C221.783 51.3926 221.566 51.3984 221.379 51.4102V75H212.414V50.127C215.156 50.127 217.377 50.127 219.076 50.127C220.775 50.127 221.883 50.1328 222.398 50.1445C222.914 50.1562 223.371 50.1738 223.77 50.1973C224.18 50.209 224.561 50.2266 224.912 50.25C225.428 50.2969 226.154 50.4082 227.092 50.584C228.041 50.7598 228.979 51.0938 229.904 51.5859C230.83 52.0781 231.627 52.6875 232.295 53.4141C233.736 54.9609 234.457 56.8008 234.457 58.9336C234.457 61.043 233.789 62.9062 232.453 64.5234C231.082 66.1758 229.254 67.2422 226.969 67.7227C228.059 71.0977 229.447 73.1133 231.135 73.7695C231.65 73.9688 232.166 74.0684 232.682 74.0684L234.07 73.7344C234.504 73.7344 234.721 73.957 234.721 74.4023C234.721 75.0234 233.994 75.334 232.541 75.334C231.486 75.334 230.52 75.041 229.641 74.4551C228.27 73.6348 227.104 72.041 226.143 69.6738L225.633 68.4258C225.551 68.2266 225.475 68.1035 225.404 68.0566C225.346 68.0098 225.234 67.9863 225.07 67.9863C224.918 67.9863 224.783 67.998 224.666 68.0215L224.244 68.0391C223.775 68.0391 223.453 67.9512 223.277 67.7754C223.113 67.5996 223.031 67.418 223.031 67.2305C223.031 66.7266 223.441 66.4746 224.262 66.4746ZM240.398 72.4863L240.451 74.2441C240.451 74.5488 240.369 74.7832 240.205 74.9473C240.041 75.1113 239.842 75.1934 239.607 75.1934C239.385 75.1934 239.197 75.1172 239.045 74.9648C238.893 74.8125 238.816 74.6484 238.816 74.4727C238.816 74.2852 238.828 74.1152 238.852 73.9629C238.887 73.7988 238.916 73.6172 238.939 73.418C238.998 73.0781 239.027 72.2285 239.027 70.8691V49.002L258.135 64.1543V53.6777C258.135 52.8809 258.111 52.3125 258.064 51.9727C258.006 51.4219 257.977 51.0352 257.977 50.8125C257.977 50.2266 258.229 49.9336 258.732 49.9336C258.932 49.9336 259.119 50.0039 259.295 50.1445C259.482 50.2852 259.576 50.4902 259.576 50.7598V51.375L259.506 53.9238V75.9668L240.398 60.9727V72.4863ZM78.5742 111.705L80.1387 111.775C82.4121 111.775 84.2871 111.025 85.7637 109.525C87.2637 108.014 88.0488 106.057 88.1191 103.654C88.248 99.9512 86.4668 97.4492 82.7754 96.1484C81.3926 95.6562 79.5938 95.4102 77.3789 95.4102H75.9023V119H66.9375V94.127H73.6699C77.3027 94.127 79.4941 94.1797 80.2441 94.2852C80.9941 94.3906 81.7734 94.5254 82.582 94.6895C83.4023 94.8535 84.2812 95.2109 85.2188 95.7617C86.168 96.3125 86.9707 96.9688 87.627 97.7305C88.9512 99.2773 89.5898 101.094 89.543 103.18C89.4727 105.84 88.6934 108.055 87.2051 109.824C85.6934 111.605 83.6074 112.707 80.9473 113.129C80.1738 113.234 79.5645 113.287 79.1191 113.287C78.0645 113.287 77.5371 113 77.5371 112.426C77.5371 112.215 77.6309 112.045 77.8184 111.916C78.0059 111.775 78.2578 111.705 78.5742 111.705ZM96.2227 115.836C95.0625 114.699 94.1367 113.328 93.4453 111.723C92.7656 110.105 92.4258 108.348 92.4258 106.449C92.4258 104.539 92.748 102.828 93.3926 101.316C94.0488 99.793 94.9512 98.4746 96.0996 97.3613C98.5605 94.9941 101.648 93.8105 105.363 93.8105C109.055 93.8105 112.078 94.9766 114.434 97.3086C116.824 99.6758 118.02 102.746 118.02 106.52C118.02 110.281 116.795 113.375 114.346 115.801C112.811 117.301 110.924 118.338 108.686 118.912C107.572 119.193 106.277 119.334 104.801 119.334C103.336 119.334 101.83 119.035 100.283 118.438C98.7363 117.828 97.3828 116.961 96.2227 115.836ZM105.346 95.0938C104.701 95.0938 104.098 95.1406 103.535 95.2344V117.91C104.074 118.004 104.678 118.051 105.346 118.051C108.475 118.051 111.111 117.008 113.256 114.922C115.494 112.754 116.613 109.953 116.613 106.52C116.613 103.25 115.564 100.531 113.467 98.3633C111.346 96.1836 108.639 95.0938 105.346 95.0938ZM120.832 119.264C120.609 119.24 120.439 119.141 120.322 118.965C120.205 118.789 120.158 118.596 120.182 118.385C120.24 118.021 120.352 117.688 120.516 117.383C120.68 117.078 120.797 116.85 120.867 116.697C120.949 116.545 121.031 116.375 121.113 116.188L121.781 114.641L129.006 93.002L136.775 108.014L144.316 93.002L153.334 119H143.895L139.535 105.57L132.785 119.633L125.684 106.977L123.223 114.658C122.836 115.514 122.561 116.24 122.396 116.838C122.232 117.436 122.098 117.898 121.992 118.227C121.758 118.965 121.371 119.311 120.832 119.264ZM159.469 115.836C158.309 114.699 157.383 113.328 156.691 111.723C156.012 110.105 155.672 108.348 155.672 106.449C155.672 104.539 155.994 102.828 156.639 101.316C157.295 99.793 158.197 98.4746 159.346 97.3613C161.807 94.9941 164.895 93.8105 168.609 93.8105C172.301 93.8105 175.324 94.9766 177.68 97.3086C180.07 99.6758 181.266 102.746 181.266 106.52C181.266 110.281 180.041 113.375 177.592 115.801C176.057 117.301 174.17 118.338 171.932 118.912C170.818 119.193 169.523 119.334 168.047 119.334C166.582 119.334 165.076 119.035 163.529 118.438C161.982 117.828 160.629 116.961 159.469 115.836ZM168.592 95.0938C167.947 95.0938 167.344 95.1406 166.781 95.2344V117.91C167.32 118.004 167.924 118.051 168.592 118.051C171.721 118.051 174.357 117.008 176.502 114.922C178.74 112.754 179.859 109.953 179.859 106.52C179.859 103.25 178.811 100.531 176.713 98.3633C174.592 96.1836 171.885 95.0938 168.592 95.0938ZM186.293 94.127H193.605C197.016 94.127 199.518 94.3672 201.111 94.8477C202.928 95.4102 204.328 96.1309 205.312 97.0098C206.309 97.8887 207.088 98.7969 207.65 99.7344C208.799 101.645 209.373 103.812 209.373 106.238C209.373 110.059 208.002 113.152 205.26 115.52C203.314 117.219 201.023 118.268 198.387 118.666C196.922 118.889 194.871 119 192.234 119H186.293V94.127ZM195.258 117.541C195.445 117.553 195.615 117.559 195.768 117.559H196.172C199.348 117.559 202.061 116.568 204.311 114.588C206.689 112.502 207.879 109.73 207.879 106.273C207.879 104.094 207.357 102.131 206.314 100.385C204.803 97.8418 202.412 96.3008 199.143 95.7617C198.076 95.5859 196.781 95.4863 195.258 95.4629V117.541ZM216.633 115.836C215.473 114.699 214.547 113.328 213.855 111.723C213.176 110.105 212.836 108.348 212.836 106.449C212.836 104.539 213.158 102.828 213.803 101.316C214.459 99.793 215.361 98.4746 216.51 97.3613C218.971 94.9941 222.059 93.8105 225.773 93.8105C229.465 93.8105 232.488 94.9766 234.844 97.3086C237.234 99.6758 238.43 102.746 238.43 106.52C238.43 110.281 237.205 113.375 234.756 115.801C233.221 117.301 231.334 118.338 229.096 118.912C227.982 119.193 226.688 119.334 225.211 119.334C223.746 119.334 222.24 119.035 220.693 118.438C219.146 117.828 217.793 116.961 216.633 115.836ZM225.756 95.0938C225.111 95.0938 224.508 95.1406 223.945 95.2344V117.91C224.484 118.004 225.088 118.051 225.756 118.051C228.885 118.051 231.521 117.008 233.666 114.922C235.904 112.754 237.023 109.953 237.023 106.52C237.023 103.25 235.975 100.531 233.877 98.3633C231.756 96.1836 229.049 95.0938 225.756 95.0938ZM255.305 110.475L256.746 110.58C258.809 110.58 260.561 109.859 262.002 108.418C263.443 106.977 264.164 105.184 264.164 103.039C264.164 100.227 262.928 98.1406 260.455 96.7812C259.096 96.0312 257.643 95.5977 256.096 95.4805C255.439 95.4219 254.83 95.3926 254.268 95.3926H253.072C252.826 95.3926 252.609 95.3984 252.422 95.4102V119H243.457V94.127C246.199 94.127 248.42 94.127 250.119 94.127C251.818 94.127 252.926 94.1328 253.441 94.1445C253.957 94.1562 254.414 94.1738 254.812 94.1973C255.223 94.209 255.604 94.2266 255.955 94.25C256.471 94.2969 257.197 94.4082 258.135 94.584C259.084 94.7598 260.021 95.0938 260.947 95.5859C261.873 96.0781 262.67 96.6875 263.338 97.4141C264.779 98.9609 265.5 100.801 265.5 102.934C265.5 105.043 264.832 106.906 263.496 108.523C262.125 110.176 260.297 111.242 258.012 111.723C259.102 115.098 260.49 117.113 262.178 117.77C262.693 117.969 263.209 118.068 263.725 118.068L265.113 117.734C265.547 117.734 265.764 117.957 265.764 118.402C265.764 119.023 265.037 119.334 263.584 119.334C262.529 119.334 261.562 119.041 260.684 118.455C259.312 117.635 258.146 116.041 257.186 113.674L256.676 112.426C256.594 112.227 256.518 112.104 256.447 112.057C256.389 112.01 256.277 111.986 256.113 111.986C255.961 111.986 255.826 111.998 255.709 112.021L255.287 112.039C254.818 112.039 254.496 111.951 254.32 111.775C254.156 111.6 254.074 111.418 254.074 111.23C254.074 110.727 254.484 110.475 255.305 110.475ZM272.461 115.836C271.301 114.699 270.375 113.328 269.684 111.723C269.004 110.105 268.664 108.348 268.664 106.449C268.664 104.539 268.986 102.828 269.631 101.316C270.287 99.793 271.189 98.4746 272.338 97.3613C274.799 94.9941 277.887 93.8105 281.602 93.8105C285.293 93.8105 288.316 94.9766 290.672 97.3086C293.062 99.6758 294.258 102.746 294.258 106.52C294.258 110.281 293.033 113.375 290.584 115.801C289.049 117.301 287.162 118.338 284.924 118.912C283.811 119.193 282.516 119.334 281.039 119.334C279.574 119.334 278.068 119.035 276.521 118.438C274.975 117.828 273.621 116.961 272.461 115.836ZM281.584 95.0938C280.939 95.0938 280.336 95.1406 279.773 95.2344V117.91C280.312 118.004 280.916 118.051 281.584 118.051C284.713 118.051 287.35 117.008 289.494 114.922C291.732 112.754 292.852 109.953 292.852 106.52C292.852 103.25 291.803 100.531 289.705 98.3633C287.584 96.1836 284.877 95.0938 281.584 95.0938Z" fill="#CA6666"/>
<line x1="27" y1="484" x2="27" y2="242" stroke="#EFEFEF" stroke-width="2"/>
<line x1="79" y1="484" x2="79" y2="242" stroke="#EFEFEF" stroke-width="2"/>
<line x1="131" y1="484" x2="131" y2="242" stroke="#EFEFEF" stroke-width="2"/>
<line x1="183" y1="484" x2="183" y2="242" stroke="#EFEFEF" stroke-width="2"/>
<line x1="235" y1="484" x2="235" y2="242" stroke="#EFEFEF" stroke-width="2"/>
<line x1="287" y1="484" x2="287" y2="242" stroke="#EFEFEF" stroke-width="2"/>
<line x1="339" y1="484" x2="339" y2="242" stroke="#EFEFEF" stroke-width="2"/>
<line x1="360" y1="416" x2="5.36458e-08" y2="416" stroke="#EFEFEF" stroke-width="2"/>
<line x1="360" y1="364" x2="5.36458e-08" y2="364" stroke="#EFEFEF" stroke-width="2"/>
<line x1="360" y1="312" x2="5.36458e-08" y2="312" stroke="#EFEFEF" stroke-width="2"/>
<line x1="28" y1="176" x2="332" y2="176" stroke="#CA6666" stroke-width="2"/>
<line x1="-8.74228e-08" y1="258" x2="360" y2="258" stroke="#CA6666" stroke-width="2"/>
<line x1="-8.74228e-08" y1="466" x2="360" y2="466" stroke="#CA6666" stroke-width="2"/>
<path d="M35.182 203.172C36.382 203.172 37.348 203.532 38.08 204.252C38.824 204.972 39.196 206.04 39.196 207.456V213H36.388V207.888C36.388 207.12 36.22 206.55 35.884 206.178C35.548 205.794 35.062 205.602 34.426 205.602C33.718 205.602 33.154 205.824 32.734 206.268C32.314 206.7 32.104 207.348 32.104 208.212V213H29.296V199.644H32.104V204.324C32.476 203.952 32.926 203.67 33.454 203.478C33.982 203.274 34.558 203.172 35.182 203.172ZM41.7413 203.316H44.5493V213H41.7413V203.316ZM43.1453 201.966C42.6293 201.966 42.2093 201.816 41.8853 201.516C41.5613 201.216 41.3993 200.844 41.3993 200.4C41.3993 199.956 41.5613 199.584 41.8853 199.284C42.2093 198.984 42.6293 198.834 43.1453 198.834C43.6613 198.834 44.0813 198.978 44.4053 199.266C44.7293 199.554 44.8913 199.914 44.8913 200.346C44.8913 200.814 44.7293 201.204 44.4053 201.516C44.0813 201.816 43.6613 201.966 43.1453 201.966ZM50.4134 213.144C49.6094 213.144 48.8234 213.048 48.0554 212.856C47.2874 212.652 46.6754 212.4 46.2194 212.1L47.1554 210.084C47.5874 210.36 48.1094 210.588 48.7214 210.768C49.3334 210.936 49.9334 211.02 50.5214 211.02C51.7094 211.02 52.3034 210.726 52.3034 210.138C52.3034 209.862 52.1414 209.664 51.8174 209.544C51.4934 209.424 50.9954 209.322 50.3234 209.238C49.5314 209.118 48.8774 208.98 48.3614 208.824C47.8454 208.668 47.3954 208.392 47.0114 207.996C46.6394 207.6 46.4534 207.036 46.4534 206.304C46.4534 205.692 46.6274 205.152 46.9754 204.684C47.3354 204.204 47.8514 203.832 48.5234 203.568C49.2074 203.304 50.0114 203.172 50.9354 203.172C51.6194 203.172 52.2974 203.25 52.9694 203.406C53.6534 203.55 54.2174 203.754 54.6614 204.018L53.7254 206.016C52.8734 205.536 51.9434 205.296 50.9354 205.296C50.3354 205.296 49.8854 205.38 49.5854 205.548C49.2854 205.716 49.1354 205.932 49.1354 206.196C49.1354 206.496 49.2974 206.706 49.6214 206.826C49.9454 206.946 50.4614 207.06 51.1694 207.168C51.9614 207.3 52.6094 207.444 53.1134 207.6C53.6174 207.744 54.0554 208.014 54.4274 208.41C54.7994 208.806 54.9854 209.358 54.9854 210.066C54.9854 210.666 54.8054 211.2 54.4454 211.668C54.0854 212.136 53.5574 212.502 52.8614 212.766C52.1774 213.018 51.3614 213.144 50.4134 213.144ZM62.9639 212.532C62.6879 212.736 62.3459 212.892 61.9379 213C61.5419 213.096 61.1219 213.144 60.6779 213.144C59.5259 213.144 58.6319 212.85 57.9959 212.262C57.3719 211.674 57.0599 210.81 57.0599 209.67V205.692H55.5659V203.532H57.0599V201.174H59.8679V203.532H62.2799V205.692H59.8679V209.634C59.8679 210.042 59.9699 210.36 60.1739 210.588C60.3899 210.804 60.6899 210.912 61.0739 210.912C61.5179 210.912 61.8959 210.792 62.2079 210.552L62.9639 212.532ZM68.8493 213.144C67.8293 213.144 66.9113 212.934 66.0953 212.514C65.2913 212.082 64.6613 211.488 64.2053 210.732C63.7493 209.976 63.5213 209.118 63.5213 208.158C63.5213 207.198 63.7493 206.34 64.2053 205.584C64.6613 204.828 65.2913 204.24 66.0953 203.82C66.9113 203.388 67.8293 203.172 68.8493 203.172C69.8693 203.172 70.7813 203.388 71.5853 203.82C72.3893 204.24 73.0193 204.828 73.4753 205.584C73.9313 206.34 74.1593 207.198 74.1593 208.158C74.1593 209.118 73.9313 209.976 73.4753 210.732C73.0193 211.488 72.3893 212.082 71.5853 212.514C70.7813 212.934 69.8693 213.144 68.8493 213.144ZM68.8493 210.84C69.5693 210.84 70.1573 210.6 70.6133 210.12C71.0813 209.628 71.3153 208.974 71.3153 208.158C71.3153 207.342 71.0813 206.694 70.6133 206.214C70.1573 205.722 69.5693 205.476 68.8493 205.476C68.1293 205.476 67.5353 205.722 67.0673 206.214C66.5993 206.694 66.3653 207.342 66.3653 208.158C66.3653 208.974 66.5993 209.628 67.0673 210.12C67.5353 210.6 68.1293 210.84 68.8493 210.84ZM78.7182 204.594C79.0542 204.126 79.5042 203.772 80.0682 203.532C80.6442 203.292 81.3042 203.172 82.0482 203.172V205.764C81.7362 205.74 81.5262 205.728 81.4182 205.728C80.6142 205.728 79.9842 205.956 79.5282 206.412C79.0722 206.856 78.8442 207.528 78.8442 208.428V213H76.0362V203.316H78.7182V204.594ZM93.6639 203.316L89.2899 213.594C88.8459 214.71 88.2939 215.496 87.6339 215.952C86.9859 216.408 86.1999 216.636 85.2759 216.636C84.7719 216.636 84.2739 216.558 83.7819 216.402C83.2899 216.246 82.8879 216.03 82.5759 215.754L83.6019 213.756C83.8179 213.948 84.0639 214.098 84.3399 214.206C84.6279 214.314 84.9099 214.368 85.1859 214.368C85.5699 214.368 85.8819 214.272 86.1219 214.08C86.3619 213.9 86.5779 213.594 86.7699 213.162L86.8059 213.072L82.6119 203.316H85.5099L88.2279 209.886L90.9639 203.316H93.6639Z" fill="#CA6666"/>
<path fill-rule="evenodd" clip-rule="evenodd" d="M360 576H307.5C293.417 576 282 564.583 282 550.5C282 536.417 293.417 525 307.5 525H360V576Z" fill="url(#paint0_linear)"/>
<path d="M301 559L313 551L301 543L301 559Z" fill="white"/>
<path d="M51.5 428C61 405.167 85.3 356.7 106.5 345.5C133 331.5 141.5 303.5 158.5 319C172.1 331.4 198.5 358.5 210 370.5C219.333 367.5 246.4 354.5 280 326.5C313.6 298.5 354.667 323.833 371 340" stroke="#A84646"/>
<circle cx="51" cy="428" r="5" fill="#CA6666"/>
<circle cx="106" cy="346" r="5" fill="#CA6666"/>
<circle cx="158" cy="319" r="5" fill="#CA6666"/>
<circle cx="210" cy="368" r="5" fill="#CA6666"/>
<circle cx="262" cy="340" r="5" fill="#CA6666"/>
<circle cx="314" cy="314" r="5" fill="#CA6666"/>
<path d="M26.8739 489.31C28.5059 489.31 29.7539 489.868 30.6179 490.984C31.4939 492.088 31.9319 493.636 31.9319 495.628C31.9319 497.02 31.6979 498.202 31.2299 499.174C30.7739 500.134 30.1259 500.86 29.2859 501.352C28.4459 501.844 27.4619 502.09 26.3339 502.09C25.1459 502.09 24.1919 501.874 23.4719 501.442L23.8499 500.704C24.4499 501.088 25.2779 501.28 26.3339 501.28C27.7859 501.28 28.9259 500.812 29.7539 499.876C30.5939 498.928 31.0139 497.56 31.0139 495.772C31.0139 495.22 30.9779 494.716 30.9059 494.26C30.6539 495.076 30.1619 495.712 29.4299 496.168C28.7099 496.624 27.8639 496.852 26.8919 496.852C26.0639 496.852 25.3259 496.702 24.6779 496.402C24.0419 496.09 23.5499 495.652 23.2019 495.088C22.8539 494.512 22.6799 493.852 22.6799 493.108C22.6799 492.352 22.8599 491.686 23.2199 491.11C23.5799 490.534 24.0779 490.09 24.7139 489.778C25.3499 489.466 26.0699 489.31 26.8739 489.31ZM27.0179 496.06C27.6899 496.06 28.2899 495.928 28.8179 495.664C29.3579 495.4 29.7719 495.04 30.0599 494.584C30.3599 494.128 30.5099 493.618 30.5099 493.054C30.5099 492.55 30.3659 492.07 30.0779 491.614C29.8019 491.158 29.3939 490.792 28.8539 490.516C28.3139 490.24 27.6659 490.102 26.9099 490.102C25.9259 490.102 25.1279 490.378 24.5159 490.93C23.9039 491.47 23.5979 492.19 23.5979 493.09C23.5979 493.99 23.9039 494.71 24.5159 495.25C25.1279 495.79 25.9619 496.06 27.0179 496.06Z" fill="#CA6666"/>
<path d="M74.5613 489.4V502H73.6433V490.228H70.5653V489.4H74.5613ZM82.671 502.09C81.711 502.09 80.853 501.832 80.097 501.316C79.353 500.788 78.771 500.044 78.351 499.084C77.943 498.124 77.739 496.996 77.739 495.7C77.739 494.404 77.943 493.276 78.351 492.316C78.771 491.356 79.353 490.618 80.097 490.102C80.853 489.574 81.711 489.31 82.671 489.31C83.631 489.31 84.483 489.574 85.227 490.102C85.983 490.618 86.565 491.356 86.973 492.316C87.393 493.276 87.603 494.404 87.603 495.7C87.603 496.996 87.393 498.124 86.973 499.084C86.565 500.044 85.983 500.788 85.227 501.316C84.483 501.832 83.631 502.09 82.671 502.09ZM82.671 501.244C83.463 501.244 84.159 501.028 84.759 500.596C85.371 500.152 85.845 499.516 86.181 498.688C86.517 497.848 86.685 496.852 86.685 495.7C86.685 494.548 86.517 493.558 86.181 492.73C85.845 491.89 85.371 491.254 84.759 490.822C84.159 490.378 83.463 490.156 82.671 490.156C81.879 490.156 81.177 490.378 80.565 490.822C79.965 491.254 79.497 491.89 79.161 492.73C78.825 493.558 78.657 494.548 78.657 495.7C78.657 496.852 78.825 497.848 79.161 498.688C79.497 499.516 79.965 500.152 80.565 500.596C81.177 501.028 81.879 501.244 82.671 501.244Z" fill="#CA6666"/>
<path d="M129.312 489.4V502H128.394V490.228H125.316V489.4H129.312ZM135.658 489.4V502H134.74V490.228H131.662V489.4H135.658Z" fill="#CA6666"/>
<path d="M179.414 489.4V502H178.496V490.228H175.418V489.4H179.414ZM190.998 501.172V502H182.34V501.352L187.668 496.06C188.364 495.364 188.832 494.77 189.072 494.278C189.324 493.774 189.45 493.258 189.45 492.73C189.45 491.926 189.174 491.296 188.622 490.84C188.082 490.384 187.296 490.156 186.264 490.156C185.472 490.156 184.776 490.276 184.176 490.516C183.588 490.756 183.078 491.122 182.646 491.614L181.998 491.038C182.478 490.486 183.084 490.06 183.816 489.76C184.56 489.46 185.4 489.31 186.336 489.31C187.572 489.31 188.556 489.61 189.288 490.21C190.02 490.81 190.386 491.62 190.386 492.64C190.386 493.288 190.242 493.906 189.954 494.494C189.666 495.082 189.126 495.766 188.334 496.546L183.69 501.172H190.998Z" fill="#CA6666"/>
<path d="M231.467 489.4V502H230.549V490.228H227.471V489.4H231.467ZM238.478 494.89C239.87 494.926 240.926 495.268 241.646 495.916C242.378 496.552 242.744 497.398 242.744 498.454C242.744 499.162 242.576 499.792 242.24 500.344C241.904 500.884 241.4 501.31 240.728 501.622C240.068 501.934 239.27 502.09 238.334 502.09C237.422 502.09 236.564 501.94 235.76 501.64C234.956 501.328 234.332 500.914 233.888 500.398L234.356 499.696C234.764 500.152 235.316 500.524 236.012 500.812C236.72 501.1 237.494 501.244 238.334 501.244C239.45 501.244 240.308 500.998 240.908 500.506C241.508 500.002 241.808 499.318 241.808 498.454C241.808 497.578 241.502 496.894 240.89 496.402C240.278 495.91 239.36 495.664 238.136 495.664H237.344V494.998L241.07 490.228H234.356V489.4H242.258V490.048L238.478 494.89Z" fill="#CA6666"/>
<path d="M282.596 489.4V502H281.678V490.228H278.6V489.4H282.596ZM296.286 498.508H293.64V502H292.74V498.508H285.558V497.842L292.398 489.4H293.424L286.71 497.698H292.758V494.62H293.64V497.698H296.286V498.508Z" fill="#CA6666"/>
<path d="M335.467 489.4V502H334.549V490.228H331.471V489.4H335.467ZM341.722 494.674C343.558 494.674 344.89 494.998 345.718 495.646C346.546 496.282 346.96 497.188 346.96 498.364C346.96 499.084 346.792 499.726 346.456 500.29C346.132 500.842 345.64 501.28 344.98 501.604C344.32 501.928 343.51 502.09 342.55 502.09C341.638 502.09 340.78 501.934 339.976 501.622C339.184 501.31 338.566 500.902 338.122 500.398L338.59 499.696C338.986 500.152 339.532 500.524 340.228 500.812C340.936 501.1 341.704 501.244 342.532 501.244C343.66 501.244 344.524 500.986 345.124 500.47C345.736 499.954 346.042 499.264 346.042 498.4C346.042 497.452 345.694 496.732 344.998 496.24C344.314 495.748 343.156 495.502 341.524 495.502H338.968L339.634 489.4H346.312V490.228H340.408L339.922 494.674H341.722Z" fill="#CA6666"/>
<g filter="url(#filter0_d)">
<rect x="106" y="525" width="149" height="51" rx="25.5" fill="#CA6666"/>
</g>
<path d="M129.682 557.144C128.422 557.144 127.282 556.868 126.262 556.316C125.254 555.752 124.462 554.984 123.886 554.012C123.31 553.028 123.022 551.924 123.022 550.7C123.022 549.476 123.31 548.378 123.886 547.406C124.462 546.422 125.26 545.654 126.28 545.102C127.3 544.538 128.44 544.256 129.7 544.256C130.684 544.256 131.584 544.424 132.4 544.76C133.216 545.084 133.912 545.57 134.488 546.218L133.318 547.352C132.37 546.356 131.188 545.858 129.772 545.858C128.836 545.858 127.99 546.068 127.234 546.488C126.478 546.908 125.884 547.49 125.452 548.234C125.032 548.966 124.822 549.788 124.822 550.7C124.822 551.612 125.032 552.44 125.452 553.184C125.884 553.916 126.478 554.492 127.234 554.912C127.99 555.332 128.836 555.542 129.772 555.542C131.176 555.542 132.358 555.038 133.318 554.03L134.488 555.164C133.912 555.812 133.21 556.304 132.382 556.64C131.566 556.976 130.666 557.144 129.682 557.144ZM136.804 543.644H138.532V557H136.804V543.644ZM150.453 552.284C150.453 552.416 150.441 552.59 150.417 552.806H142.677C142.785 553.646 143.151 554.324 143.775 554.84C144.411 555.344 145.197 555.596 146.133 555.596C147.273 555.596 148.191 555.212 148.887 554.444L149.841 555.56C149.409 556.064 148.869 556.448 148.221 556.712C147.585 556.976 146.871 557.108 146.079 557.108C145.071 557.108 144.177 556.904 143.397 556.496C142.617 556.076 142.011 555.494 141.579 554.75C141.159 554.006 140.949 553.166 140.949 552.23C140.949 551.306 141.153 550.472 141.561 549.728C141.981 548.984 142.551 548.408 143.271 548C144.003 547.58 144.825 547.37 145.737 547.37C146.649 547.37 147.459 547.58 148.167 548C148.887 548.408 149.445 548.984 149.841 549.728C150.249 550.472 150.453 551.324 150.453 552.284ZM145.737 548.828C144.909 548.828 144.213 549.08 143.649 549.584C143.097 550.088 142.773 550.748 142.677 551.564H148.797C148.701 550.76 148.371 550.106 147.807 549.602C147.255 549.086 146.565 548.828 145.737 548.828ZM156.063 547.37C157.383 547.37 158.391 547.694 159.087 548.342C159.795 548.99 160.149 549.956 160.149 551.24V557H158.511V555.74C158.223 556.184 157.809 556.526 157.269 556.766C156.741 556.994 156.111 557.108 155.379 557.108C154.311 557.108 153.453 556.85 152.805 556.334C152.169 555.818 151.851 555.14 151.851 554.3C151.851 553.46 152.157 552.788 152.769 552.284C153.381 551.768 154.353 551.51 155.685 551.51H158.421V551.168C158.421 550.424 158.205 549.854 157.773 549.458C157.341 549.062 156.705 548.864 155.865 548.864C155.301 548.864 154.749 548.96 154.209 549.152C153.669 549.332 153.213 549.578 152.841 549.89L152.121 548.594C152.613 548.198 153.201 547.898 153.885 547.694C154.569 547.478 155.295 547.37 156.063 547.37ZM155.667 555.776C156.327 555.776 156.897 555.632 157.377 555.344C157.857 555.044 158.205 554.624 158.421 554.084V552.752H155.757C154.293 552.752 153.561 553.244 153.561 554.228C153.561 554.708 153.747 555.086 154.119 555.362C154.491 555.638 155.007 555.776 155.667 555.776ZM165.003 549.062C165.303 548.51 165.747 548.09 166.335 547.802C166.923 547.514 167.637 547.37 168.477 547.37V549.044C168.381 549.032 168.249 549.026 168.081 549.026C167.145 549.026 166.407 549.308 165.867 549.872C165.339 550.424 165.075 551.216 165.075 552.248V557H163.347V547.46H165.003V549.062ZM186.652 544.4V557H184.852V551.384H177.616V557H175.816V544.4H177.616V549.818H184.852V544.4H186.652ZM190.171 547.46H191.899V557H190.171V547.46ZM191.035 545.624C190.699 545.624 190.417 545.516 190.189 545.3C189.973 545.084 189.865 544.82 189.865 544.508C189.865 544.196 189.973 543.932 190.189 543.716C190.417 543.488 190.699 543.374 191.035 543.374C191.371 543.374 191.647 543.482 191.863 543.698C192.091 543.902 192.205 544.16 192.205 544.472C192.205 544.796 192.091 545.072 191.863 545.3C191.647 545.516 191.371 545.624 191.035 545.624ZM197.935 557.108C197.155 557.108 196.405 557.006 195.685 556.802C194.965 556.586 194.401 556.316 193.993 555.992L194.713 554.624C195.133 554.924 195.643 555.164 196.243 555.344C196.843 555.524 197.449 555.614 198.061 555.614C199.573 555.614 200.329 555.182 200.329 554.318C200.329 554.03 200.227 553.802 200.023 553.634C199.819 553.466 199.561 553.346 199.249 553.274C198.949 553.19 198.517 553.1 197.953 553.004C197.185 552.884 196.555 552.746 196.063 552.59C195.583 552.434 195.169 552.17 194.821 551.798C194.473 551.426 194.299 550.904 194.299 550.232C194.299 549.368 194.659 548.678 195.379 548.162C196.099 547.634 197.065 547.37 198.277 547.37C198.913 547.37 199.549 547.448 200.185 547.604C200.821 547.76 201.343 547.97 201.751 548.234L201.013 549.602C200.233 549.098 199.315 548.846 198.259 548.846C197.527 548.846 196.969 548.966 196.585 549.206C196.201 549.446 196.009 549.764 196.009 550.16C196.009 550.472 196.117 550.718 196.333 550.898C196.549 551.078 196.813 551.21 197.125 551.294C197.449 551.378 197.899 551.474 198.475 551.582C199.243 551.714 199.861 551.858 200.329 552.014C200.809 552.158 201.217 552.41 201.553 552.77C201.889 553.13 202.057 553.634 202.057 554.282C202.057 555.146 201.685 555.836 200.941 556.352C200.209 556.856 199.207 557.108 197.935 557.108ZM209.58 556.442C209.328 556.658 209.016 556.826 208.644 556.946C208.272 557.054 207.888 557.108 207.492 557.108C206.532 557.108 205.788 556.85 205.26 556.334C204.732 555.818 204.468 555.08 204.468 554.12V548.882H202.848V547.46H204.468V545.372H206.196V547.46H208.932V548.882H206.196V554.048C206.196 554.564 206.322 554.96 206.574 555.236C206.838 555.512 207.21 555.65 207.69 555.65C208.218 555.65 208.668 555.5 209.04 555.2L209.58 556.442ZM215.439 557.108C214.491 557.108 213.639 556.898 212.883 556.478C212.127 556.058 211.533 555.482 211.101 554.75C210.681 554.006 210.471 553.166 210.471 552.23C210.471 551.294 210.681 550.46 211.101 549.728C211.533 548.984 212.127 548.408 212.883 548C213.639 547.58 214.491 547.37 215.439 547.37C216.387 547.37 217.233 547.58 217.977 548C218.733 548.408 219.321 548.984 219.741 549.728C220.173 550.46 220.389 551.294 220.389 552.23C220.389 553.166 220.173 554.006 219.741 554.75C219.321 555.482 218.733 556.058 217.977 556.478C217.233 556.898 216.387 557.108 215.439 557.108ZM215.439 555.596C216.051 555.596 216.597 555.458 217.077 555.182C217.569 554.894 217.953 554.498 218.229 553.994C218.505 553.478 218.643 552.89 218.643 552.23C218.643 551.57 218.505 550.988 218.229 550.484C217.953 549.968 217.569 549.572 217.077 549.296C216.597 549.02 216.051 548.882 215.439 548.882C214.827 548.882 214.275 549.02 213.783 549.296C213.303 549.572 212.919 549.968 212.631 550.484C212.355 550.988 212.217 551.57 212.217 552.23C212.217 552.89 212.355 553.478 212.631 553.994C212.919 554.498 213.303 554.894 213.783 555.182C214.275 555.458 214.827 555.596 215.439 555.596ZM224.435 549.062C224.735 548.51 225.179 548.09 225.767 547.802C226.355 547.514 227.069 547.37 227.909 547.37V549.044C227.813 549.032 227.681 549.026 227.513 549.026C226.577 549.026 225.839 549.308 225.299 549.872C224.771 550.424 224.507 551.216 224.507 552.248V557H222.779V547.46H224.435V549.062ZM238.867 547.46L234.241 557.954C233.833 558.926 233.353 559.61 232.801 560.006C232.261 560.402 231.607 560.6 230.839 560.6C230.371 560.6 229.915 560.522 229.471 560.366C229.039 560.222 228.679 560.006 228.391 559.718L229.129 558.422C229.621 558.89 230.191 559.124 230.839 559.124C231.259 559.124 231.607 559.01 231.883 558.782C232.171 558.566 232.429 558.188 232.657 557.648L232.963 556.982L228.751 547.46H230.551L233.881 555.092L237.175 547.46H238.867Z" fill="white"/>
</g>
<defs>
<filter id="filter0_d" x="86" y="515" width="189" height="91" filterUnits="userSpaceOnUse" color-interpolation-filters="sRGB">
<feFlood flood-opacity="0" result="BackgroundImageFix"/>
<feColorMatrix in="SourceAlpha" type="matrix" values="0 0 0 0 0 0 0 0 0 0 0 0 0 0 0 0 0 0 127 0"/>
<feOffset dy="10"/>
<feGaussianBlur stdDeviation="10"/>
<feColorMatrix type="matrix" values="0 0 0 0 0 0 0 0 0 0 0 0 0 0 0 0 0 0 0.08 0"/>
<feBlend mode="normal" in2="BackgroundImageFix" result="effect1_dropShadow"/>
<feBlend mode="normal" in="SourceGraphic" in2="effect1_dropShadow" result="shape"/>
</filter>
<linearGradient id="paint0_linear" x1="360" y1="525" x2="282" y2="525" gradientUnits="userSpaceOnUse">
<stop stop-color="#A84646"/>
<stop offset="0.640884" stop-color="#CA6666"/>
</linearGradient>
<clipPath id="clip0">
<rect width="360" height="640" fill="white"/>
</clipPath>
</defs>
</svg>
