<svg width="360" height="640" viewBox="0 0 360 640" fill="none" xmlns="http://www.w3.org/2000/svg">
<g clip-path="url(#clip0)">
<rect width="360" height="640" fill="white"/>
<path d="M98.1914 75.2637C97.9688 75.2402 97.7988 75.1406 97.6816 74.9648C97.5645 74.7891 97.5176 74.5957 97.541 74.3848C97.5996 74.0215 97.7109 73.6875 97.875 73.3828C98.0391 73.0781 98.1562 72.8496 98.2266 72.6973C98.3086 72.5449 98.3906 72.375 98.4727 72.1875L99.1406 70.6406L106.365 49.002L114.135 64.0137L121.676 49.002L130.693 75H121.254L116.895 61.5703L110.145 75.6328L103.043 62.9766L100.582 70.6582C100.195 71.5137 99.9199 72.2402 99.7559 72.8379C99.5918 73.4355 99.457 73.8984 99.3516 74.2266C99.1172 74.9648 98.7305 75.3105 98.1914 75.2637ZM136.828 71.8359C135.668 70.6992 134.742 69.3281 134.051 67.7227C133.371 66.1055 133.031 64.3477 133.031 62.4492C133.031 60.5391 133.354 58.8281 133.998 57.3164C134.654 55.793 135.557 54.4746 136.705 53.3613C139.166 50.9941 142.254 49.8105 145.969 49.8105C149.66 49.8105 152.684 50.9766 155.039 53.3086C157.43 55.6758 158.625 58.7461 158.625 62.5195C158.625 66.2812 157.4 69.375 154.951 71.8008C153.416 73.3008 151.529 74.3379 149.291 74.9121C148.178 75.1934 146.883 75.334 145.406 75.334C143.941 75.334 142.436 75.0352 140.889 74.4375C139.342 73.8281 137.988 72.9609 136.828 71.8359ZM145.951 51.0938C145.307 51.0938 144.703 51.1406 144.141 51.2344V73.9102C144.68 74.0039 145.283 74.0508 145.951 74.0508C149.08 74.0508 151.717 73.0078 153.861 70.9219C156.1 68.7539 157.219 65.9531 157.219 62.5195C157.219 59.25 156.17 56.5312 154.072 54.3633C151.951 52.1836 149.244 51.0938 145.951 51.0938ZM163.652 50.127H170.965C174.375 50.127 176.877 50.3672 178.471 50.8477C180.287 51.4102 181.688 52.1309 182.672 53.0098C183.668 53.8887 184.447 54.7969 185.01 55.7344C186.158 57.6445 186.732 59.8125 186.732 62.2383C186.732 66.0586 185.361 69.1523 182.619 71.5195C180.674 73.2188 178.383 74.2676 175.746 74.666C174.281 74.8887 172.23 75 169.594 75H163.652V50.127ZM172.617 73.541C172.805 73.5527 172.975 73.5586 173.127 73.5586H173.531C176.707 73.5586 179.42 72.5684 181.67 70.5879C184.049 68.502 185.238 65.7305 185.238 62.2734C185.238 60.0938 184.717 58.1309 183.674 56.3848C182.162 53.8418 179.771 52.3008 176.502 51.7617C175.436 51.5859 174.141 51.4863 172.617 51.4629V73.541ZM206.807 73.4883C207.404 73.4883 207.703 73.7227 207.703 74.1914C207.703 74.4023 207.574 74.5898 207.316 74.7539C207.059 74.918 206.613 75 205.98 75H191.092V50.127C195.709 50.127 200.326 50.127 204.943 50.127L206.385 50.0742C207.264 50.0742 207.703 50.332 207.703 50.8477C207.703 51.0469 207.627 51.2344 207.475 51.4102C207.334 51.5742 207.17 51.6562 206.982 51.6562C206.678 51.6562 206.355 51.6211 206.016 51.5508C205.512 51.4453 204.82 51.3926 203.941 51.3926H200.057V56.7539H203.256C203.256 56.7539 203.977 56.7246 205.418 56.666C205.676 56.666 205.893 56.7305 206.068 56.8594C206.256 56.9766 206.35 57.1465 206.35 57.3691C206.35 57.8613 206.021 58.1074 205.365 58.1074L204.609 58.0898C204.223 58.0547 203.9 58.0371 203.643 58.0371H200.057V73.7168H203.941C204.809 73.7168 205.424 73.6816 205.787 73.6113C206.221 73.5293 206.561 73.4883 206.807 73.4883ZM224.262 66.4746L225.703 66.5801C227.766 66.5801 229.518 65.8594 230.959 64.418C232.4 62.9766 233.121 61.1836 233.121 59.0391C233.121 56.2266 231.885 54.1406 229.412 52.7812C228.053 52.0312 226.6 51.5977 225.053 51.4805C224.396 51.4219 223.787 51.3926 223.225 51.3926H222.029C221.783 51.3926 221.566 51.3984 221.379 51.4102V75H212.414V50.127C215.156 50.127 217.377 50.127 219.076 50.127C220.775 50.127 221.883 50.1328 222.398 50.1445C222.914 50.1562 223.371 50.1738 223.77 50.1973C224.18 50.209 224.561 50.2266 224.912 50.25C225.428 50.2969 226.154 50.4082 227.092 50.584C228.041 50.7598 228.979 51.0938 229.904 51.5859C230.83 52.0781 231.627 52.6875 232.295 53.4141C233.736 54.9609 234.457 56.8008 234.457 58.9336C234.457 61.043 233.789 62.9062 232.453 64.5234C231.082 66.1758 229.254 67.2422 226.969 67.7227C228.059 71.0977 229.447 73.1133 231.135 73.7695C231.65 73.9688 232.166 74.0684 232.682 74.0684L234.07 73.7344C234.504 73.7344 234.721 73.957 234.721 74.4023C234.721 75.0234 233.994 75.334 232.541 75.334C231.486 75.334 230.52 75.041 229.641 74.4551C228.27 73.6348 227.104 72.041 226.143 69.6738L225.633 68.4258C225.551 68.2266 225.475 68.1035 225.404 68.0566C225.346 68.0098 225.234 67.9863 225.07 67.9863C224.918 67.9863 224.783 67.998 224.666 68.0215L224.244 68.0391C223.775 68.0391 223.453 67.9512 223.277 67.7754C223.113 67.5996 223.031 67.418 223.031 67.2305C223.031 66.7266 223.441 66.4746 224.262 66.4746ZM240.398 72.4863L240.451 74.2441C240.451 74.5488 240.369 74.7832 240.205 74.9473C240.041 75.1113 239.842 75.1934 239.607 75.1934C239.385 75.1934 239.197 75.1172 239.045 74.9648C238.893 74.8125 238.816 74.6484 238.816 74.4727C238.816 74.2852 238.828 74.1152 238.852 73.9629C238.887 73.7988 238.916 73.6172 238.939 73.418C238.998 73.0781 239.027 72.2285 239.027 70.8691V49.002L258.135 64.1543V53.6777C258.135 52.8809 258.111 52.3125 258.064 51.9727C258.006 51.4219 257.977 51.0352 257.977 50.8125C257.977 50.2266 258.229 49.9336 258.732 49.9336C258.932 49.9336 259.119 50.0039 259.295 50.1445C259.482 50.2852 259.576 50.4902 259.576 50.7598V51.375L259.506 53.9238V75.9668L240.398 60.9727V72.4863ZM78.5742 111.705L80.1387 111.775C82.4121 111.775 84.2871 111.025 85.7637 109.525C87.2637 108.014 88.0488 106.057 88.1191 103.654C88.248 99.9512 86.4668 97.4492 82.7754 96.1484C81.3926 95.6562 79.5938 95.4102 77.3789 95.4102H75.9023V119H66.9375V94.127H73.6699C77.3027 94.127 79.4941 94.1797 80.2441 94.2852C80.9941 94.3906 81.7734 94.5254 82.582 94.6895C83.4023 94.8535 84.2812 95.2109 85.2188 95.7617C86.168 96.3125 86.9707 96.9688 87.627 97.7305C88.9512 99.2773 89.5898 101.094 89.543 103.18C89.4727 105.84 88.6934 108.055 87.2051 109.824C85.6934 111.605 83.6074 112.707 80.9473 113.129C80.1738 113.234 79.5645 113.287 79.1191 113.287C78.0645 113.287 77.5371 113 77.5371 112.426C77.5371 112.215 77.6309 112.045 77.8184 111.916C78.0059 111.775 78.2578 111.705 78.5742 111.705ZM96.2227 115.836C95.0625 114.699 94.1367 113.328 93.4453 111.723C92.7656 110.105 92.4258 108.348 92.4258 106.449C92.4258 104.539 92.748 102.828 93.3926 101.316C94.0488 99.793 94.9512 98.4746 96.0996 97.3613C98.5605 94.9941 101.648 93.8105 105.363 93.8105C109.055 93.8105 112.078 94.9766 114.434 97.3086C116.824 99.6758 118.02 102.746 118.02 106.52C118.02 110.281 116.795 113.375 114.346 115.801C112.811 117.301 110.924 118.338 108.686 118.912C107.572 119.193 106.277 119.334 104.801 119.334C103.336 119.334 101.83 119.035 100.283 118.438C98.7363 117.828 97.3828 116.961 96.2227 115.836ZM105.346 95.0938C104.701 95.0938 104.098 95.1406 103.535 95.2344V117.91C104.074 118.004 104.678 118.051 105.346 118.051C108.475 118.051 111.111 117.008 113.256 114.922C115.494 112.754 116.613 109.953 116.613 106.52C116.613 103.25 115.564 100.531 113.467 98.3633C111.346 96.1836 108.639 95.0938 105.346 95.0938ZM120.832 119.264C120.609 119.24 120.439 119.141 120.322 118.965C120.205 118.789 120.158 118.596 120.182 118.385C120.24 118.021 120.352 117.688 120.516 117.383C120.68 117.078 120.797 116.85 120.867 116.697C120.949 116.545 121.031 116.375 121.113 116.188L121.781 114.641L129.006 93.002L136.775 108.014L144.316 93.002L153.334 119H143.895L139.535 105.57L132.785 119.633L125.684 106.977L123.223 114.658C122.836 115.514 122.561 116.24 122.396 116.838C122.232 117.436 122.098 117.898 121.992 118.227C121.758 118.965 121.371 119.311 120.832 119.264ZM159.469 115.836C158.309 114.699 157.383 113.328 156.691 111.723C156.012 110.105 155.672 108.348 155.672 106.449C155.672 104.539 155.994 102.828 156.639 101.316C157.295 99.793 158.197 98.4746 159.346 97.3613C161.807 94.9941 164.895 93.8105 168.609 93.8105C172.301 93.8105 175.324 94.9766 177.68 97.3086C180.07 99.6758 181.266 102.746 181.266 106.52C181.266 110.281 180.041 113.375 177.592 115.801C176.057 117.301 174.17 118.338 171.932 118.912C170.818 119.193 169.523 119.334 168.047 119.334C166.582 119.334 165.076 119.035 163.529 118.438C161.982 117.828 160.629 116.961 159.469 115.836ZM168.592 95.0938C167.947 95.0938 167.344 95.1406 166.781 95.2344V117.91C167.32 118.004 167.924 118.051 168.592 118.051C171.721 118.051 174.357 117.008 176.502 114.922C178.74 112.754 179.859 109.953 179.859 106.52C179.859 103.25 178.811 100.531 176.713 98.3633C174.592 96.1836 171.885 95.0938 168.592 95.0938ZM186.293 94.127H193.605C197.016 94.127 199.518 94.3672 201.111 94.8477C202.928 95.4102 204.328 96.1309 205.312 97.0098C206.309 97.8887 207.088 98.7969 207.65 99.7344C208.799 101.645 209.373 103.812 209.373 106.238C209.373 110.059 208.002 113.152 205.26 115.52C203.314 117.219 201.023 118.268 198.387 118.666C196.922 118.889 194.871 119 192.234 119H186.293V94.127ZM195.258 117.541C195.445 117.553 195.615 117.559 195.768 117.559H196.172C199.348 117.559 202.061 116.568 204.311 114.588C206.689 112.502 207.879 109.73 207.879 106.273C207.879 104.094 207.357 102.131 206.314 100.385C204.803 97.8418 202.412 96.3008 199.143 95.7617C198.076 95.5859 196.781 95.4863 195.258 95.4629V117.541ZM216.633 115.836C215.473 114.699 214.547 113.328 213.855 111.723C213.176 110.105 212.836 108.348 212.836 106.449C212.836 104.539 213.158 102.828 213.803 101.316C214.459 99.793 215.361 98.4746 216.51 97.3613C218.971 94.9941 222.059 93.8105 225.773 93.8105C229.465 93.8105 232.488 94.9766 234.844 97.3086C237.234 99.6758 238.43 102.746 238.43 106.52C238.43 110.281 237.205 113.375 234.756 115.801C233.221 117.301 231.334 118.338 229.096 118.912C227.982 119.193 226.688 119.334 225.211 119.334C223.746 119.334 222.24 119.035 220.693 118.438C219.146 117.828 217.793 116.961 216.633 115.836ZM225.756 95.0938C225.111 95.0938 224.508 95.1406 223.945 95.2344V117.91C224.484 118.004 225.088 118.051 225.756 118.051C228.885 118.051 231.521 117.008 233.666 114.922C235.904 112.754 237.023 109.953 237.023 106.52C237.023 103.25 235.975 100.531 233.877 98.3633C231.756 96.1836 229.049 95.0938 225.756 95.0938ZM255.305 110.475L256.746 110.58C258.809 110.58 260.561 109.859 262.002 108.418C263.443 106.977 264.164 105.184 264.164 103.039C264.164 100.227 262.928 98.1406 260.455 96.7812C259.096 96.0312 257.643 95.5977 256.096 95.4805C255.439 95.4219 254.83 95.3926 254.268 95.3926H253.072C252.826 95.3926 252.609 95.3984 252.422 95.4102V119H243.457V94.127C246.199 94.127 248.42 94.127 250.119 94.127C251.818 94.127 252.926 94.1328 253.441 94.1445C253.957 94.1562 254.414 94.1738 254.812 94.1973C255.223 94.209 255.604 94.2266 255.955 94.25C256.471 94.2969 257.197 94.4082 258.135 94.584C259.084 94.7598 260.021 95.0938 260.947 95.5859C261.873 96.0781 262.67 96.6875 263.338 97.4141C264.779 98.9609 265.5 100.801 265.5 102.934C265.5 105.043 264.832 106.906 263.496 108.523C262.125 110.176 260.297 111.242 258.012 111.723C259.102 115.098 260.49 117.113 262.178 117.77C262.693 117.969 263.209 118.068 263.725 118.068L265.113 117.734C265.547 117.734 265.764 117.957 265.764 118.402C265.764 119.023 265.037 119.334 263.584 119.334C262.529 119.334 261.562 119.041 260.684 118.455C259.312 117.635 258.146 116.041 257.186 113.674L256.676 112.426C256.594 112.227 256.518 112.104 256.447 112.057C256.389 112.01 256.277 111.986 256.113 111.986C255.961 111.986 255.826 111.998 255.709 112.021L255.287 112.039C254.818 112.039 254.496 111.951 254.32 111.775C254.156 111.6 254.074 111.418 254.074 111.23C254.074 110.727 254.484 110.475 255.305 110.475ZM272.461 115.836C271.301 114.699 270.375 113.328 269.684 111.723C269.004 110.105 268.664 108.348 268.664 106.449C268.664 104.539 268.986 102.828 269.631 101.316C270.287 99.793 271.189 98.4746 272.338 97.3613C274.799 94.9941 277.887 93.8105 281.602 93.8105C285.293 93.8105 288.316 94.9766 290.672 97.3086C293.062 99.6758 294.258 102.746 294.258 106.52C294.258 110.281 293.033 113.375 290.584 115.801C289.049 117.301 287.162 118.338 284.924 118.912C283.811 119.193 282.516 119.334 281.039 119.334C279.574 119.334 278.068 119.035 276.521 118.438C274.975 117.828 273.621 116.961 272.461 115.836ZM281.584 95.0938C280.939 95.0938 280.336 95.1406 279.773 95.2344V117.91C280.312 118.004 280.916 118.051 281.584 118.051C284.713 118.051 287.35 117.008 289.494 114.922C291.732 112.754 292.852 109.953 292.852 106.52C292.852 103.25 291.803 100.531 289.705 98.3633C287.584 96.1836 284.877 95.0938 281.584 95.0938Z" fill="#CA6666"/>
<g filter="url(#filter0_d)">
<rect x="37" y="177" width="286" height="286" rx="20" fill="white"/>
<rect x="38" y="178" width="284" height="284" rx="19" stroke="#CA6666" stroke-width="2"/>
</g>
<path d="M132.32 377.864C124.544 377.864 117.584 375.8 111.44 371.672C105.392 367.544 100.64 361.64 97.1843 353.96C93.8243 346.184 92.1443 337.064 92.1443 326.6C92.1443 316.136 93.8243 307.064 97.1843 299.384C100.64 291.608 105.392 285.656 111.44 281.528C117.584 277.4 124.544 275.336 132.32 275.336C140.096 275.336 147.008 277.4 153.056 281.528C159.2 285.656 164 291.608 167.456 299.384C170.912 307.064 172.64 316.136 172.64 326.6C172.64 337.064 170.912 346.184 167.456 353.96C164 361.64 159.2 367.544 153.056 371.672C147.008 375.8 140.096 377.864 132.32 377.864ZM132.32 368.36C138.176 368.36 143.312 366.728 147.728 363.464C152.24 360.2 155.744 355.448 158.24 349.208C160.736 342.968 161.984 335.432 161.984 326.6C161.984 317.768 160.736 310.232 158.24 303.992C155.744 297.752 152.24 293 147.728 289.736C143.312 286.472 138.176 284.84 132.32 284.84C126.464 284.84 121.28 286.472 116.768 289.736C112.352 293 108.896 297.752 106.4 303.992C103.904 310.232 102.656 317.768 102.656 326.6C102.656 335.432 103.904 342.968 106.4 349.208C108.896 355.448 112.352 360.2 116.768 363.464C121.28 366.728 126.464 368.36 132.32 368.36ZM227.664 377.864C219.888 377.864 212.928 375.8 206.784 371.672C200.736 367.544 195.984 361.64 192.528 353.96C189.168 346.184 187.488 337.064 187.488 326.6C187.488 316.136 189.168 307.064 192.528 299.384C195.984 291.608 200.736 285.656 206.784 281.528C212.928 277.4 219.888 275.336 227.664 275.336C235.44 275.336 242.352 277.4 248.4 281.528C254.544 285.656 259.344 291.608 262.8 299.384C266.256 307.064 267.984 316.136 267.984 326.6C267.984 337.064 266.256 346.184 262.8 353.96C259.344 361.64 254.544 367.544 248.4 371.672C242.352 375.8 235.44 377.864 227.664 377.864ZM227.664 368.36C233.52 368.36 238.656 366.728 243.072 363.464C247.584 360.2 251.088 355.448 253.584 349.208C256.08 342.968 257.328 335.432 257.328 326.6C257.328 317.768 256.08 310.232 253.584 303.992C251.088 297.752 247.584 293 243.072 289.736C238.656 286.472 233.52 284.84 227.664 284.84C221.808 284.84 216.624 286.472 212.112 289.736C207.696 293 204.24 297.752 201.744 303.992C199.248 310.232 198 317.768 198 326.6C198 335.432 199.248 342.968 201.744 349.208C204.24 355.448 207.696 360.2 212.112 363.464C216.624 366.728 221.808 368.36 227.664 368.36Z" fill="#686868"/>
<g filter="url(#filter1_d)">
<rect x="37" y="526" width="286" height="51" rx="25.5" fill="url(#paint0_linear)"/>
</g>
<g filter="url(#filter2_d)">
<circle cx="180" cy="552" r="46" fill="#CA6666"/>
</g>
<path d="M98.9032 224.5V242H97.3782L86.1282 227.8V242H84.2782V224.5H85.8032L97.0782 238.7V224.5H98.9032ZM116.99 240.4V242H104.615V224.5H116.615V226.1H106.465V232.325H115.515V233.9H106.465V240.4H116.99ZM132.094 242L126.444 234.3L120.819 242H118.694L125.344 233L119.119 224.5H121.244L126.519 231.65L131.769 224.5H133.769L127.569 232.95L134.244 242H132.094ZM140.168 226.1H134.018V224.5H148.168V226.1H142.018V242H140.168V226.1ZM168.692 232.975C169.842 233.225 170.725 233.725 171.342 234.475C171.975 235.208 172.292 236.158 172.292 237.325C172.292 238.825 171.734 239.983 170.617 240.8C169.517 241.6 167.884 242 165.717 242H157.667V224.5H165.217C167.167 224.5 168.675 224.892 169.742 225.675C170.825 226.458 171.367 227.567 171.367 229C171.367 229.967 171.125 230.792 170.642 231.475C170.175 232.142 169.525 232.642 168.692 232.975ZM159.517 226.025V232.375H165.092C166.509 232.375 167.6 232.108 168.367 231.575C169.134 231.025 169.517 230.233 169.517 229.2C169.517 228.167 169.134 227.383 168.367 226.85C167.6 226.3 166.509 226.025 165.092 226.025H159.517ZM165.692 240.475C167.259 240.475 168.442 240.208 169.242 239.675C170.042 239.142 170.442 238.308 170.442 237.175C170.442 234.992 168.859 233.9 165.692 233.9H159.517V240.475H165.692ZM188.465 242L184.465 236.375C184.015 236.425 183.548 236.45 183.065 236.45H178.365V242H176.515V224.5H183.065C185.298 224.5 187.048 225.033 188.315 226.1C189.581 227.167 190.215 228.633 190.215 230.5C190.215 231.867 189.865 233.025 189.165 233.975C188.481 234.908 187.498 235.583 186.215 236L190.49 242H188.465ZM183.015 234.875C184.748 234.875 186.073 234.492 186.99 233.725C187.906 232.958 188.365 231.883 188.365 230.5C188.365 229.083 187.906 228 186.99 227.25C186.073 226.483 184.748 226.1 183.015 226.1H178.365V234.875H183.015ZM206.956 240.4V242H194.581V224.5H206.581V226.1H196.431V232.325H205.481V233.9H196.431V240.4H206.956ZM222.28 237.325H212.53L210.43 242H208.505L216.505 224.5H218.33L226.33 242H224.38L222.28 237.325ZM221.605 235.825L217.405 226.425L213.205 235.825H221.605ZM234.65 233.775L231.075 237.4V242H229.225V224.5H231.075V235.075L241.35 224.5H243.475L235.9 232.425L244 242H241.8L234.65 233.775ZM253.541 224.5H255.391V242H253.541V224.5ZM275.71 224.5V242H274.185L262.935 227.8V242H261.085V224.5H262.61L273.885 238.7V224.5H275.71Z" fill="#686868"/>
<path d="M142.187 408.5V426H140.412V412L133.537 423.775H132.662L125.787 412.075V426H124.012V408.5H125.537L133.137 421.475L140.662 408.5H142.187ZM147.889 408.5H149.739V426H147.889V408.5ZM170.058 408.5V426H168.533L157.283 411.8V426H155.433V408.5H156.958L168.233 422.7V408.5H170.058ZM182.82 426.15C180.553 426.15 178.787 425.5 177.52 424.2C176.253 422.9 175.62 421.008 175.62 418.525V408.5H177.47V418.45C177.47 420.483 177.928 422 178.845 423C179.762 424 181.087 424.5 182.82 424.5C184.57 424.5 185.903 424 186.82 423C187.737 422 188.195 420.483 188.195 418.45V408.5H189.995V418.525C189.995 421.008 189.362 422.9 188.095 424.2C186.845 425.5 185.087 426.15 182.82 426.15ZM198.628 410.1H192.478V408.5H206.628V410.1H200.478V426H198.628V410.1ZM221.958 424.4V426H209.583V408.5H221.583V410.1H211.433V416.325H220.483V417.9H211.433V424.4H221.958ZM231.132 426.15C229.832 426.15 228.582 425.942 227.382 425.525C226.199 425.108 225.282 424.558 224.632 423.875L225.357 422.45C225.99 423.083 226.832 423.6 227.882 424C228.932 424.383 230.015 424.575 231.132 424.575C232.699 424.575 233.874 424.292 234.657 423.725C235.44 423.142 235.832 422.392 235.832 421.475C235.832 420.775 235.615 420.217 235.182 419.8C234.765 419.383 234.249 419.067 233.632 418.85C233.015 418.617 232.157 418.367 231.057 418.1C229.74 417.767 228.69 417.45 227.907 417.15C227.124 416.833 226.449 416.358 225.882 415.725C225.332 415.092 225.057 414.233 225.057 413.15C225.057 412.267 225.29 411.467 225.757 410.75C226.224 410.017 226.94 409.433 227.907 409C228.874 408.567 230.074 408.35 231.507 408.35C232.507 408.35 233.482 408.492 234.432 408.775C235.399 409.042 236.232 409.417 236.932 409.9L236.307 411.375C235.574 410.892 234.79 410.533 233.957 410.3C233.124 410.05 232.307 409.925 231.507 409.925C229.974 409.925 228.815 410.225 228.032 410.825C227.265 411.408 226.882 412.167 226.882 413.1C226.882 413.8 227.09 414.367 227.507 414.8C227.94 415.217 228.474 415.542 229.107 415.775C229.757 415.992 230.624 416.233 231.707 416.5C232.99 416.817 234.024 417.133 234.807 417.45C235.607 417.75 236.282 418.217 236.832 418.85C237.382 419.467 237.657 420.308 237.657 421.375C237.657 422.258 237.415 423.067 236.932 423.8C236.465 424.517 235.74 425.092 234.757 425.525C233.774 425.942 232.565 426.15 231.132 426.15Z" fill="#686868"/>
<path d="M170 535L196 552L170 569V535Z" fill="white"/>
<path d="M103 552H99L96 561L90 543L87 552H83" stroke="white" stroke-width="2" stroke-linecap="round" stroke-linejoin="round"/>
<path d="M260 561V554" stroke="white" stroke-width="2" stroke-linecap="round" stroke-linejoin="round"/>
<path d="M260 550V543" stroke="white" stroke-width="2" stroke-linecap="round" stroke-linejoin="round"/>
<path d="M268 561V552" stroke="white" stroke-width="2" stroke-linecap="round" stroke-linejoin="round"/>
<path d="M268 548V543" stroke="white" stroke-width="2" stroke-linecap="round" stroke-linejoin="round"/>
<path d="M276 561V556" stroke="white" stroke-width="2" stroke-linecap="round" stroke-linejoin="round"/>
<path d="M276 552V543" stroke="white" stroke-width="2" stroke-linecap="round" stroke-linejoin="round"/>
<path d="M257 554H263" stroke="white" stroke-width="2" stroke-linecap="round" stroke-linejoin="round"/>
<path d="M265 548H271" stroke="white" stroke-width="2" stroke-linecap="round" stroke-linejoin="round"/>
<path d="M273 556H279" stroke="white" stroke-width="2" stroke-linecap="round" stroke-linejoin="round"/>
</g>
<defs>
<filter id="filter0_d" x="-13" y="137" width="386" height="386" filterUnits="userSpaceOnUse" color-interpolation-filters="sRGB">
<feFlood flood-opacity="0" result="BackgroundImageFix"/>
<feColorMatrix in="SourceAlpha" type="matrix" values="0 0 0 0 0 0 0 0 0 0 0 0 0 0 0 0 0 0 127 0"/>
<feOffset dy="10"/>
<feGaussianBlur stdDeviation="25"/>
<feColorMatrix type="matrix" values="0 0 0 0 0 0 0 0 0 0 0 0 0 0 0 0 0 0 0.06 0"/>
<feBlend mode="normal" in2="BackgroundImageFix" result="effect1_dropShadow"/>
<feBlend mode="normal" in="SourceGraphic" in2="effect1_dropShadow" result="shape"/>
</filter>
<filter id="filter1_d" x="17" y="516" width="326" height="91" filterUnits="userSpaceOnUse" color-interpolation-filters="sRGB">
<feFlood flood-opacity="0" result="BackgroundImageFix"/>
<feColorMatrix in="SourceAlpha" type="matrix" values="0 0 0 0 0 0 0 0 0 0 0 0 0 0 0 0 0 0 127 0"/>
<feOffset dy="10"/>
<feGaussianBlur stdDeviation="10"/>
<feColorMatrix type="matrix" values="0 0 0 0 0 0 0 0 0 0 0 0 0 0 0 0 0 0 0.08 0"/>
<feBlend mode="normal" in2="BackgroundImageFix" result="effect1_dropShadow"/>
<feBlend mode="normal" in="SourceGraphic" in2="effect1_dropShadow" result="shape"/>
</filter>
<filter id="filter2_d" x="124" y="500" width="112" height="112" filterUnits="userSpaceOnUse" color-interpolation-filters="sRGB">
<feFlood flood-opacity="0" result="BackgroundImageFix"/>
<feColorMatrix in="SourceAlpha" type="matrix" values="0 0 0 0 0 0 0 0 0 0 0 0 0 0 0 0 0 0 127 0"/>
<feOffset dy="4"/>
<feGaussianBlur stdDeviation="5"/>
<feColorMatrix type="matrix" values="0 0 0 0 0 0 0 0 0 0 0 0 0 0 0 0 0 0 0.15 0"/>
<feBlend mode="normal" in2="BackgroundImageFix" result="effect1_dropShadow"/>
<feBlend mode="normal" in="SourceGraphic" in2="effect1_dropShadow" result="shape"/>
</filter>
<linearGradient id="paint0_linear" x1="91.5" y1="552" x2="268.5" y2="552" gradientUnits="userSpaceOnUse">
<stop stop-color="#CA6666"/>
<stop offset="0.497238" stop-color="#A84646"/>
<stop offset="1" stop-color="#CA6666"/>
</linearGradient>
<clipPath id="clip0">
<rect width="360" height="640" fill="white"/>
</clipPath>
</defs>
</svg>
